<svg height="512pt" viewBox="0 0 512 512" width="512pt" xmlns="http://www.w3.org/2000/svg"><path d="m361.929688 256c0 58.503906-47.425782 105.929688-105.929688 105.929688s-105.929688-47.425782-105.929688-105.929688 47.425782-105.929688 105.929688-105.929688 105.929688 47.425782 105.929688 105.929688zm0 0" fill="#7383bf"/><g fill="#556080"><path d="m256 370.757812c-63.277344 0-114.757812-51.480468-114.757812-114.757812s51.480468-114.757812 114.757812-114.757812 114.757812 51.480468 114.757812 114.757812-51.472656 114.757812-114.757812 114.757812zm0-211.859374c-53.539062 0-97.101562 43.5625-97.101562 97.101562s43.5625 97.101562 97.101562 97.101562 97.101562-43.5625 97.101562-97.101562-43.554687-97.101562-97.101562-97.101562zm0 0"/><path d="m256 370.757812c-34.648438 0-61.792969-50.40625-61.792969-114.757812s27.144531-114.757812 61.792969-114.757812 61.792969 50.40625 61.792969 114.757812-27.144531 114.757812-61.792969 114.757812zm0-211.859374c-20.878906 0-44.136719 39.882812-44.136719 97.101562s23.257813 97.101562 44.136719 97.101562 44.136719-39.882812 44.136719-97.101562-23.257813-97.101562-44.136719-97.101562zm0 0"/><path d="m361.929688 264.828125h-211.859376c-4.875 0-8.828124-3.945313-8.828124-8.828125s3.953124-8.828125 8.828124-8.828125h211.859376c4.875 0 8.828124 3.945313 8.828124 8.828125s-3.953124 8.828125-8.828124 8.828125zm0 0"/><path d="m256 370.757812c-4.871094 0-8.828125-3.945312-8.828125-8.828124v-211.859376c0-4.882812 3.957031-8.828124 8.828125-8.828124s8.828125 3.945312 8.828125 8.828124v211.859376c0 4.882812-3.957031 8.828124-8.828125 8.828124zm0 0"/></g><path d="m511.417969 420.449219c-6.179688-18.484375-36.660157-19.339844-51.871094-12.527344-20.726563 9.289063-44.164063 11.160156-66.726563 12.449219-9.632812.546875-19.253906 1.269531-28.875 2.0625-7.382812.609375-14.707031 1.820312-22.105468 2.226562-1.296875.070313-4.195313.679688-5.367188.148438-2.058594-.917969-.988281-.28125-1.484375-2.550782-1.191406-5.464843-1.914062-11.273437-3.988281-16.515624-2.542969-6.410157-7.59375-11.230469-14.558594-13.152344-10.160156-2.808594-21.328125-2.5625-31.691406-1.015625-11.492188 1.710937-21.707031 6.796875-32.976562 9.25-18.847657 4.097656-38.800782-.667969-55.871094-8.464844-8.632813-3.9375-16.816406-8.792969-24.328125-14.425781-7.902344-5.921875-14.992188-12.726563-23.976563-17.238282-6.234375-3.125-12.898437-5.550781-19.84375-6.78125-10.691406-1.886718-21.664062-.34375-31.4375 4.140626-12.058594 5.519531-20.265625 16.472656-32.554687 21.726562-11.121094 4.75-23.207031 7.21875-34.65625 11.15625-6.78125 2.3125-22.308594 12.855469-29.105469 15.132812v105.929688c31.230469-13.066406 83.164062-24.558594 117.210938-28.285156 17.816406-1.941406 35.804687-1.039063 53.53125 1.238281 17.496093 2.242187 35.152343 7.785156 52.605468 8.871094 14.28125.890625 30.488282 2.347656 44.667969.386719 15.402344-2.125 29.484375-9.152344 44.046875-13.972657 14.214844-4.695312 29.183594-7.300781 44.226562-7.742187 15.792969-.457032 30.136719 1.414062 45.859376-1.703125 7.917968-1.570313 15.40625-5.191407 23.023437-7.832031 14.988281-5.1875 29.976563-10.371094 44.96875-15.5625 10.75-3.722657 21.503906-7.441407 32.28125-11.105469 6.621094-2.25 11.265625-9.046875 8.996094-15.84375zm0 0" fill="#fbce9d"/><path d="m252.1875 456.765625c-16.4375 0-32.910156-.980469-49.144531-2.929687-20.628907-2.480469-47.199219-7.011719-69.78125-20.074219-4.21875-2.4375-5.660157-7.839844-3.222657-12.058594 2.445313-4.230469 7.847657-5.675781 12.058594-3.214844 19.792969 11.449219 44.09375 15.546875 63.046875 17.824219 20.1875 2.425781 40.773438 3.273438 61.148438 2.558594l1.542969-.0625c17.207031-.605469 34.996093-1.261719 48.960937-9.328125 4.941406-2.859375 9.355469-6.425781 13.132813-10.585938 3.277343-3.609375 8.855468-3.890625 12.464843-.617187 3.613281 3.265625 3.894531 8.855468.617188 12.464844-5.003907 5.535156-10.847657 10.25-17.378907 14.027343-17.769531 10.273438-38.699218 11.023438-57.160156 11.6875l-1.542968.054688c-4.902344.164062-9.816407.253906-14.742188.253906zm0 0" fill="#d8aa7d"/><path d="m.582031 91.550781c6.179688 18.484375 36.660157 19.339844 51.871094 12.527344 20.726563-9.289063 44.164063-11.160156 66.726563-12.449219 9.632812-.546875 19.253906-1.269531 28.875-2.0625 7.382812-.609375 14.707031-1.820312 22.105468-2.226562 1.296875-.070313 4.195313-.679688 5.367188-.148438 2.058594.917969.988281.28125 1.484375 2.550782 1.191406 5.464843 1.914062 11.273437 3.988281 16.515624 2.542969 6.410157 7.59375 11.230469 14.558594 13.152344 10.160156 2.808594 21.328125 2.5625 31.691406 1.015625 11.492188-1.710937 21.707031-6.796875 32.976562-9.25 18.847657-4.097656 38.800782.667969 55.871094 8.464844 8.632813 3.9375 16.816406 8.792969 24.328125 14.425781 7.902344 5.921875 14.992188 12.726563 23.976563 17.238282 6.234375 3.125 12.898437 5.550781 19.84375 6.78125 10.691406 1.886718 21.664062.34375 31.4375-4.140626 12.058594-5.519531 20.265625-16.472656 32.554687-21.726562 11.121094-4.75 23.207031-7.21875 34.65625-11.15625 6.78125-2.3125 22.316407-12.855469 29.105469-15.132812v-105.929688c-31.230469 13.066406-83.164062 24.558594-117.210938 28.285156-17.816406 1.941406-35.804687 1.039063-53.53125-1.238281-17.496093-2.242187-35.152343-7.785156-52.605468-8.871094-14.28125-.890625-30.488282-2.347656-44.667969-.386719-15.402344 2.125-29.484375 9.152344-44.046875 13.972657-14.214844 4.695312-29.183594 7.300781-44.226562 7.742187-15.792969.457032-30.136719-1.414062-45.859376 1.703125-7.910156 1.570313-15.394531 5.199219-23.015624 7.832031-14.988282 5.1875-29.976563 10.371094-44.964844 15.5625-10.753906 3.722657-21.503906 7.441407-32.285156 11.105469-6.628907 2.25-11.273438 9.046875-9.003907 15.84375zm0 0" fill="#fbce9d"/><path d="m259.8125 55.234375c16.4375 0 32.910156.980469 49.144531 2.929687 20.628907 2.480469 47.199219 7.011719 69.78125 20.074219 4.21875 2.4375 5.660157 7.839844 3.222657 12.058594-2.445313 4.230469-7.847657 5.675781-12.058594 3.214844-19.792969-11.449219-44.09375-15.546875-63.046875-17.824219-20.1875-2.425781-40.773438-3.273438-61.148438-2.558594l-1.542969.0625c-17.207031.605469-34.996093 1.261719-48.960937 9.328125-4.941406 2.859375-9.355469 6.425781-13.132813 10.585938-3.277343 3.609375-8.855468 3.890625-12.464843.617187-3.613281-3.265625-3.894531-8.855468-.617188-12.464844 5.003907-5.535156 10.847657-10.25 17.378907-14.027343 17.769531-10.273438 38.699218-11.023438 57.160156-11.6875l1.542968-.054688c4.902344-.164062 9.816407-.253906 14.742188-.253906zm0 0" fill="#d8aa7d"/></svg>