<svg height="512pt" viewBox="-47 0 511 512" width="512pt" xmlns="http://www.w3.org/2000/svg"><path d="m312.90625 225.628906s104.136719 95.75 104.136719 181.933594c0 52.890625-46.628907 95.757812-104.136719 95.757812s-104.136719-42.867187-104.136719-95.75c0-86.191406 104.136719-181.941406 104.136719-181.941406zm0 0" fill="#1081e0"/><path d="m312.90625 477.289062c-43.066406 0-78.101562-31.144531-78.101562-69.425781 0-4.796875 3.886718-8.675781 8.679687-8.675781 4.789063 0 8.675781 3.878906 8.675781 8.675781 0 28.714844 27.25 52.070313 60.746094 52.070313 4.789062 0 8.679688 3.878906 8.679688 8.675781 0 4.800781-3.890626 8.679687-8.679688 8.679687zm0 0" fill="#146ba5"/><path d="m104.636719 0s104.132812 95.753906 104.132812 181.933594c0 52.890625-46.625 95.761718-104.132812 95.761718-57.511719 0-104.136719-42.871093-104.136719-95.753906 0-86.1875 104.136719-181.941406 104.136719-181.941406zm0 0" fill="#366db6"/><path d="m104.636719 251.660156c-43.070313 0-78.101563-31.144531-78.101563-69.421875 0-4.800781 3.886719-8.679687 8.675782-8.679687 4.792968 0 8.679687 3.878906 8.679687 8.679687 0 28.714844 27.246094 52.066407 60.746094 52.066407 4.789062 0 8.675781 3.878906 8.675781 8.679687 0 4.796875-3.886719 8.675781-8.675781 8.675781zm0 0" fill="#1f436d"/><path d="m78.601562 512c-4.789062 0-8.679687-3.878906-8.679687-8.679688v-130.167968c0-4.796875 3.890625-8.679688 8.679687-8.679688 4.789063 0 8.679688 3.882813 8.679688 8.679688v130.167968c0 4.800782-3.890625 8.679688-8.679688 8.679688zm0 0" fill="#a4c5d8"/><path d="m78.601562 347.117188c-4.789062 0-8.679687-3.878907-8.679687-8.675782v-8.679687c0-4.796875 3.890625-8.675781 8.679687-8.675781 4.789063 0 8.679688 3.878906 8.679688 8.675781v8.679687c0 4.796875-3.890625 8.675782-8.679688 8.675782zm0 0" fill="#afccdd"/><path d="m148.027344 512c-4.792969 0-8.679688-3.878906-8.679688-8.679688v-130.167968c0-4.796875 3.886719-8.679688 8.679688-8.679688 4.789062 0 8.675781 3.882813 8.675781 8.679688v130.167968c0 4.800782-3.886719 8.679688-8.675781 8.679688zm0 0" fill="#a4c5d8"/><path d="m148.027344 347.117188c-4.792969 0-8.679688-3.878907-8.679688-8.675782v-8.679687c0-4.796875 3.886719-8.675781 8.679688-8.675781 4.789062 0 8.675781 3.878906 8.675781 8.675781v8.679687c0 4.796875-3.886719 8.675782-8.675781 8.675782zm0 0" fill="#c6e2f7"/><path d="m113.3125 407.863281c-4.789062 0-8.675781-3.878906-8.675781-8.675781v-52.070312c0-4.796876 3.886719-8.675782 8.675781-8.675782 4.792969 0 8.679688 3.878906 8.679688 8.675782v52.070312c0 4.796875-3.886719 8.675781-8.679688 8.675781zm0 0" fill="#afccdd"/><path d="m113.3125 494.644531c-4.789062 0-8.675781-3.878906-8.675781-8.679687v-52.066406c0-4.800782 3.886719-8.679688 8.675781-8.679688 4.792969 0 8.679688 3.878906 8.679688 8.679688v52.066406c0 4.800781-3.886719 8.679687-8.679688 8.679687zm0 0" fill="#c6e2f7"/><path d="m43.890625 407.863281c-4.792969 0-8.679687-3.878906-8.679687-8.675781v-52.070312c0-4.796876 3.886718-8.675782 8.679687-8.675782 4.789063 0 8.675781 3.878906 8.675781 8.675782v52.070312c0 4.796875-3.886718 8.675781-8.675781 8.675781zm0 0" fill="#c6e2f7"/><path d="m43.890625 494.644531c-4.792969 0-8.679687-3.878906-8.679687-8.679687v-52.066406c0-4.800782 3.886718-8.679688 8.679687-8.679688 4.789063 0 8.675781 3.878906 8.675781 8.679688v52.066406c0 4.800781-3.886718 8.679687-8.675781 8.679687zm0 0" fill="#afccdd"/><path d="m295.550781 190.914062c-4.789062 0-8.679687-3.878906-8.679687-8.675781v-130.171875c0-4.796875 3.890625-8.675781 8.679687-8.675781 4.789063 0 8.679688 3.878906 8.679688 8.675781v130.171875c0 4.796875-3.890625 8.675781-8.679688 8.675781zm0 0" fill="#a4c5d8"/><path d="m295.550781 26.035156c-4.789062 0-8.679687-3.878906-8.679687-8.679687v-8.675781c0-4.800782 3.890625-8.679688 8.679687-8.679688 4.789063 0 8.679688 3.878906 8.679688 8.679688v8.675781c0 4.800781-3.890625 8.679687-8.679688 8.679687zm0 0" fill="#afccdd"/><path d="m364.972656 190.914062c-4.789062 0-8.675781-3.878906-8.675781-8.675781v-130.171875c0-4.796875 3.886719-8.675781 8.675781-8.675781 4.792969 0 8.679688 3.878906 8.679688 8.675781v130.171875c0 4.796875-3.886719 8.675781-8.679688 8.675781zm0 0" fill="#a4c5d8"/><path d="m364.972656 26.035156c-4.789062 0-8.675781-3.878906-8.675781-8.679687v-8.675781c0-4.800782 3.886719-8.679688 8.675781-8.679688 4.792969 0 8.679688 3.878906 8.679688 8.679688v8.675781c0 4.800781-3.886719 8.679687-8.679688 8.679687zm0 0" fill="#c6e2f7"/><path d="m330.261719 86.78125c-4.789063 0-8.675781-3.878906-8.675781-8.679688v-52.066406c0-4.800781 3.886718-8.679687 8.675781-8.679687 4.792969 0 8.679687 3.878906 8.679687 8.679687v52.066406c0 4.800782-3.886718 8.679688-8.679687 8.679688zm0 0" fill="#afccdd"/><path d="m330.261719 173.558594c-4.789063 0-8.675781-3.878906-8.675781-8.675782v-52.070312c0-4.796875 3.886718-8.675781 8.675781-8.675781 4.792969 0 8.679687 3.878906 8.679687 8.675781v52.070312c0 4.796876-3.886718 8.675782-8.679687 8.675782zm0 0" fill="#c6e2f7"/><path d="m260.839844 86.78125c-4.792969 0-8.679688-3.878906-8.679688-8.679688v-52.066406c0-4.800781 3.886719-8.679687 8.679688-8.679687 4.789062 0 8.675781 3.878906 8.675781 8.679687v52.066406c0 4.800782-3.886719 8.679688-8.675781 8.679688zm0 0" fill="#c6e2f7"/><path d="m260.839844 173.558594c-4.792969 0-8.679688-3.878906-8.679688-8.675782v-52.070312c0-4.796875 3.886719-8.675781 8.679688-8.675781 4.789062 0 8.675781 3.878906 8.675781 8.675781v52.070312c0 4.796876-3.886719 8.675782-8.675781 8.675782zm0 0" fill="#afccdd"/></svg>