<svg height="511pt" viewBox="0 -26 511.99985 511" width="511pt" xmlns="http://www.w3.org/2000/svg"><path d="m238.34375 265.328125c-4.871094 0-8.828125-3.945313-8.828125-8.824219v-220.691406c0-4.882812 3.957031-8.828125 8.828125-8.828125 4.875 0 8.828125 3.945313 8.828125 8.828125v220.691406c0 4.878906-3.953125 8.824219-8.828125 8.824219zm0 0" fill="#be7c6d"/><path d="m194.207031 159.398438s-79.449219 35.3125-132.414062-26.484376c0 0-26.484375-35.308593-26.484375-97.101562 0 0 35.3125 26.484375 79.449218 26.484375 0 0 79.449219 0 79.449219 97.101563zm0 0" fill="#61b872"/><path d="m194.199219 168.226562c-1.625 0-3.257813-.449218-4.734375-1.378906l-97.101563-61.792968c-4.113281-2.621094-5.324219-8.074219-2.710937-12.191407 2.621094-4.101562 8.070312-5.3125 12.191406-2.707031l97.105469 61.792969c4.113281 2.621093 5.320312 8.078125 2.707031 12.191406-1.683594 2.636719-4.535156 4.085937-7.457031 4.085937zm0 0" fill="#be7c6d"/><path d="m282.484375 159.398438s0 18.75 47.171875 25.328124c43.777344 6.097657 88.640625-12.070312 111.863281-49.675781 8.6875-14.070312 15.308594-31.726562 17.515625-53.792969v-45.445312s-44.136718 27.789062-97.105468 27.789062c0 0-79.445313-1.304687-79.445313 95.796876zm0 0" fill="#23a24d"/><g fill="#be7c6d"><path d="m238.34375 185.882812c-1.09375 0-2.195312-.195312-3.273438-.628906l-44.136718-17.65625c-4.53125-1.808594-6.726563-6.945312-4.917969-11.472656 1.808594-4.539062 6.945313-6.726562 11.476563-4.925781l44.136718 17.652343c4.527344 1.8125 6.726563 6.949219 4.917969 11.476563-1.386719 3.460937-4.707031 5.554687-8.203125 5.554687zm0 0"/><path d="m282.492188 168.226562c-3.335938 0-6.53125-1.898437-8.023438-5.128906-2.039062-4.421875-.105469-9.675781 4.316406-11.714844l114.757813-52.964843c4.421875-2.046875 9.664062-.125 11.714843 4.316406 2.039063 4.421875.105469 9.675781-4.316406 11.714844l-114.761718 52.964843c-1.199219.554688-2.453126.8125-3.6875.8125zm0 0"/><path d="m238.34375 212.363281c-2.257812 0-4.519531-.863281-6.238281-2.585937-3.453125-3.453125-3.453125-9.03125 0-12.480469l44.136719-44.140625c3.441406-3.449219 9.039062-3.449219 12.480468 0 3.453125 3.453125 3.453125 9.03125 0 12.484375l-44.136718 44.136719c-1.722657 1.722656-3.980469 2.585937-6.242188 2.585937zm0 0"/><path d="m238.34375 44.640625c-2.257812 0-4.519531-.867187-6.238281-2.585937l-26.484375-26.484376c-3.453125-3.449218-3.453125-9.03125 0-12.480468 3.441406-3.453125 9.039062-3.453125 12.480468 0l26.484376 26.480468c3.453124 3.453126 3.453124 9.03125 0 12.484376-1.722657 1.71875-3.980469 2.585937-6.242188 2.585937zm0 0"/><path d="m238.34375 44.640625c-2.257812 0-4.519531-.867187-6.238281-2.585937-3.453125-3.453126-3.453125-9.03125 0-12.484376l26.480469-26.480468c3.441406-3.453125 9.039062-3.453125 12.484374 0 3.449219 3.449218 3.449219 9.03125 0 12.480468l-26.484374 26.484376c-1.722657 1.71875-3.980469 2.585937-6.242188 2.585937zm0 0"/></g><path d="m147.589844 330.761719c8.992187 4.507812 16.074218 11.324219 23.972656 17.238281 7.523438 5.632812 15.707031 10.488281 24.332031 14.425781 17.070313 7.800781 37.019531 15.199219 55.867188 11.105469 11.273437-2.457031 21.488281-7.539062 32.980469-9.253906 10.363281-1.542969 21.53125-1.78125 31.691406 1.015625 6.972656 1.925781 12.023437 6.746093 14.558594 13.152343 2.074218 5.246094 2.804687 11.0625 3.988281 16.515626.496093 2.269531-.566407 1.636718 1.484375 2.554687 1.171875.527344 4.058594-.082031 5.367187-.152344 7.394531-.40625 14.722657-5.789062 22.101563-6.398437 9.613281-.796875 19.238281-1.511719 28.875-2.066406 4.386718-.246094 8.820312-21.558594 13.25-21.902344v-4.5625c0-34.15625-27.636719-61.792969-61.792969-61.792969-26.480469-61.792969-105.929687-61.792969-105.929687-61.792969-52.964844 0-105.929688 61.792969-105.929688 61.792969l-1.140625 1.710937c5.667969 1.34375 11.167969 25.820313 16.324219 28.410157zm0 0" fill="#6c4127"/><path d="m511.417969 367.984375c-6.179688-18.484375-36.660157-19.339844-51.871094-12.523437-20.726563 9.285156-44.164063 11.15625-66.726563 12.445312-9.632812.546875-19.253906 1.269531-28.875 2.066406-7.382812.609375-14.707031 1.816406-22.105468 2.222656-1.296875.070313-4.195313.679688-5.367188.152344-2.058594-.917968-.988281-.285156-1.484375-2.550781-1.191406-5.464844-1.914062-11.273437-3.988281-16.519531-2.542969-6.40625-7.59375-11.226563-14.558594-13.152344-10.160156-2.804688-21.328125-2.558594-31.691406-1.015625-11.492188 1.714844-21.707031 6.796875-32.976562 9.253906-18.847657 4.09375-38.800782-.671875-55.871094-8.46875-8.632813-3.933593-16.816406-8.789062-24.328125-14.421875-7.902344-5.925781-14.992188-12.730468-23.976563-17.242187-6.234375-3.125-12.898437-5.550781-19.84375-6.777344-10.691406-1.890625-21.664062-.34375-31.4375 4.140625-12.058594 5.515625-20.265625 16.472656-32.554687 21.722656-11.121094 4.75-23.207031 7.222656-34.65625 11.160156-6.78125 2.3125-22.308594 12.851563-29.105469 15.128907v105.929687c31.230469-13.0625 83.164062-24.558594 117.210938-28.28125 17.816406-1.941406 35.804687-1.042968 53.53125 1.234375 17.496093 2.242188 35.152343 7.785157 52.605468 8.871094 14.28125.894531 30.488282 2.347656 44.667969.390625 15.402344-2.128906 29.484375-9.15625 44.046875-13.976562 14.214844-4.695313 29.183594-7.300782 44.226562-7.742188 15.792969-.457031 30.136719 1.414062 45.859376-1.703125 7.917968-1.570313 15.40625-5.1875 23.023437-7.828125 14.988281-5.191406 29.976563-10.371094 44.96875-15.5625 10.75-3.726562 21.503906-7.441406 32.28125-11.105469 6.621094-2.25 11.265625-9.050781 8.996094-15.847656zm0 0" fill="#fbce9d"/><path d="m252.1875 404.300781c-16.4375 0-32.910156-.976562-49.144531-2.929687-20.628907-2.480469-47.199219-7.007813-69.78125-20.074219-4.21875-2.4375-5.660157-7.839844-3.222657-12.058594 2.445313-4.226562 7.847657-5.675781 12.058594-3.210937 19.792969 11.449218 44.09375 15.542968 63.046875 17.820312 20.1875 2.429688 40.773438 3.277344 61.148438 2.5625l1.542969-.0625c17.207031-.609375 34.996093-1.261718 48.960937-9.332031 4.941406-2.859375 9.355469-6.425781 13.132813-10.582031 3.277343-3.613282 8.855468-3.894532 12.464843-.621094 3.613281 3.269531 3.894531 8.855469.617188 12.464844-5.003907 5.535156-10.847657 10.25-17.378907 14.027344-17.769531 10.277343-38.699218 11.027343-57.160156 11.6875l-1.542968.054687c-4.902344.167969-9.816407.253906-14.742188.253906zm0 0" fill="#d8aa7d"/></svg>