<?xml version="1.0" standalone="no"?>
<!DOCTYPE svg PUBLIC "-//W3C//DTD SVG 1.1//EN" "http://www.w3.org/Graphics/SVG/1.1/DTD/svg11.dtd" >
<svg xmlns="http://www.w3.org/2000/svg" xmlns:xlink="http://www.w3.org/1999/xlink" version="1.1">
<metadata></metadata>
<defs>
<font id="fall_is_comingregular" horiz-adv-x="579" >
<font-face units-per-em="2048" ascent="1638" descent="-410" />
<missing-glyph horiz-adv-x="380" />
<glyph horiz-adv-x="0" />
<glyph horiz-adv-x="0" />
<glyph unicode="&#xd;" horiz-adv-x="512" />
<glyph unicode=" "  horiz-adv-x="380" />
<glyph unicode="&#x09;" horiz-adv-x="380" />
<glyph unicode="&#xa0;" horiz-adv-x="380" />
<glyph unicode="!" horiz-adv-x="149" d="M29 610v164q0 96 1 188.5t3 164t3 117.5t3 52q12 37 37 37q23 0 33 -16.5t10 -36.5l-1 -56q-1 -55 -3 -144t-3 -200.5t-1 -226.5q0 -117 1 -221t7 -180q2 -16 -9.5 -28.5t-27.5 -14.5t-29.5 10t-15.5 29q-2 31 -4 85t-3 124.5t-1 152.5zM45 49q0 18 13.5 31.5t31.5 13.5 q20 0 33.5 -13t13.5 -32q0 -20 -13 -33.5t-34 -13.5q-18 0 -31.5 13.5t-13.5 33.5z" />
<glyph unicode="&#x22;" horiz-adv-x="358" d="M33 1025q0 54 2 119.5t6 129.5q2 16 15.5 28.5t29.5 10.5t27.5 -14.5t9.5 -28.5q-10 -113 -11 -184.5t1 -112.5t6 -57l4 -15q2 -25 -12.5 -39t-30.5 -14q-12 0 -22.5 8.5t-14.5 28.5q-4 10 -7 48t-3 92zM238 1025q0 54 2 119.5t6 129.5q2 16 15 28.5t30 10.5 q16 -2 27.5 -14.5t9.5 -28.5q-10 -113 -11.5 -184.5t0.5 -112.5t5 -49l6 -23q2 -25 -12.5 -39t-30.5 -14q-12 0 -22.5 8t-14.5 29q-4 10 -7 48t-3 92z" />
<glyph unicode="#" horiz-adv-x="815" d="M18 37q0 4 5 16q25 59 55.5 158.5t62.5 228.5q-14 0 -30.5 1t-40.5 3q-16 2 -28.5 15.5t-10.5 29.5t14 27.5t29 9.5l88 -6l57 244q-37 2 -75 3t-74 5q-16 2 -28.5 15.5t-10.5 29.5t14 27.5t29 9.5q59 -4 95 -6t69 -2q20 90 37.5 171t29.5 140.5t19 94.5l8 36 q4 18 17 27.5t28 9.5q23 0 29 -15.5t6 -33.5q0 -4 -10.5 -53t-25 -117t-29.5 -140.5t-25 -121.5h150t93 2q20 90 36.5 171t29 140.5t20.5 94.5l8 36q4 18 17.5 27.5t28.5 9.5q23 0 28.5 -15.5t5.5 -33.5q0 -2 -9 -50t-23.5 -113.5t-28.5 -138.5t-27 -124q45 2 69.5 3t27.5 1 q20 0 36.5 -10t16.5 -33q0 -12 -8.5 -22.5t-28.5 -14.5q-2 -2 -37 -3t-94 -5l-58 -248q78 4 124 6t49 2q20 0 36.5 -10t16.5 -33q0 -12 -8.5 -22t-28.5 -15q-2 0 -21.5 -2t-50 -3t-66.5 -3t-71 -2q-35 -135 -67.5 -242.5t-61.5 -173.5q-14 -24 -39 -24q-16 0 -28.5 12 t-12.5 29q0 4 4 16q47 109 117 381h-116.5t-123.5 2q-35 -135 -67.5 -242.5t-61.5 -173.5q-14 -25 -39 -24q-16 0 -28.5 12t-12.5 29zM248 518h239q23 92 36.5 145.5t23.5 100.5q-53 -2 -114.5 -2h-127.5q-14 -59 -27.5 -120.5t-29.5 -123.5z" />
<glyph unicode="$" horiz-adv-x="870" d="M10 459q0 16 12.5 28.5t28.5 12.5q31 0 41 -31q14 -68 46 -131.5t79 -115.5t106.5 -88t129.5 -48q2 78 3 175t1 204q0 76 -1 148.5t-1 144.5q-51 23 -101.5 48t-90.5 60t-65.5 81t-25.5 110q0 66 21.5 115t59.5 81.5t88 51t108 22.5q0 14 -1.5 24.5t-1.5 18.5v14v5 q0 23 14.5 36t31.5 13q29 0 34 -37q0 -8 2 -21v-55q37 -4 83 -13t88 -23.5t70 -34t28 -44.5q0 -16 -12.5 -28.5t-28.5 -12.5q-12 0 -25 9q-37 29 -92 45t-109 22q2 -82 3.5 -193.5t3.5 -240.5q68 -33 126 -71t99 -88t64.5 -114.5t23.5 -154.5q0 -74 -20.5 -141.5 t-60.5 -119.5t-99.5 -85t-137.5 -37q0 -23 -1 -44.5t-3 -37.5t-15 -28.5t-30 -10.5q-16 2 -27.5 14.5t-9.5 28.5t3.5 37t1.5 45q-111 16 -203 82t-152 160q-10 16 -25.5 44.5t-28.5 59.5t-22.5 60.5t-9.5 48.5zM254 1055q0 -39 13.5 -68t40 -52.5t63.5 -44t84 -42.5 q-2 121 -3 223t-3 174q-82 -8 -139.5 -51t-55.5 -139zM537 84q59 4 102 29.5t71.5 65.5t43 93.5t14.5 110.5q0 72 -18.5 124t-49 91t-72.5 67.5t-89 53.5v-258v-202.5t-2 -174.5z" />
<glyph unicode="%" horiz-adv-x="440" d="M16 37q0 4 4 16q31 70 65 188.5t68.5 255t66.5 277.5t55.5 255t30.5 150l24 109q4 18 17 27.5t28 9.5q23 0 29 -15.5t6 -33.5l-14 -74q-15 -74 -38.5 -188.5t-55.5 -257t-66.5 -281.5t-70.5 -260t-69 -195q-14 -25 -39 -24q-16 0 -28.5 12t-12.5 29zM23 1274 q0 20 13 33.5t32 13.5q20 0 33.5 -13.5t13.5 -33.5q0 -18 -13.5 -31.5t-33.5 -13.5q-18 0 -31.5 13.5t-13.5 31.5zM334 45q0 20 13 33.5t32 13.5q20 0 33.5 -13t13.5 -34q0 -18 -13.5 -31.5t-33.5 -13.5q-18 0 -31.5 13.5t-13.5 31.5z" />
<glyph unicode="&#x26;" horiz-adv-x="837" d="M29 158q0 29 5 60.5t15 68.5q18 66 47 139.5t62 151.5q16 39 31.5 76.5t31.5 76.5q-33 70 -66.5 153t-33.5 169q0 35 8 71.5t24.5 67.5t44 50.5t66.5 19.5q68 0 98.5 -58.5t30.5 -136.5q0 -76 -24.5 -156t-59.5 -176q41 -86 87 -168t98 -161q47 86 87 173t74 179 q10 27 37 26q16 0 28.5 -12t12.5 -29q0 -10 -11 -39.5t-28.5 -69.5t-39 -85t-42 -88t-39 -78t-28.5 -53q10 -14 40.5 -56.5t67.5 -85.5t74 -75.5t61 -32.5q16 0 28.5 -12.5t12.5 -28.5q0 -23 -14 -32t-35 -9q-37 0 -79 29.5t-80.5 70.5t-71.5 84t-51 70q-25 -37 -57.5 -81 t-74.5 -82t-90.5 -63.5t-101.5 -25.5q-63 0 -104 40t-41 118zM111 156q0 -41 16 -57.5t45 -16.5q43 0 85 27.5t79 65.5t65.5 80t44.5 71q-47 74 -92 150.5t-86 154.5q-8 -20 -16 -41t-19 -43q-31 -78 -59.5 -149.5t-44.5 -131.5q-18 -67 -18 -110zM203 1049q0 -43 14 -89.5 t43 -115.5q23 70 37 123t14 106q0 59 -14 83t-35 24q-18 0 -29.5 -14.5t-17.5 -35t-9 -43t-3 -38.5z" />
<glyph unicode="'" horiz-adv-x="159" d="M35 1038q0 53 2 114.5t6 121.5q2 16 15.5 28.5t29.5 10.5t27.5 -14.5t9.5 -28.5q-12 -150 -12 -230q0 -82 6 -109.5t6 -29.5q0 -20 -10.5 -36.5t-32.5 -16.5q-12 0 -22.5 8t-14.5 29q-4 10 -7 52t-3 101z" />
<glyph unicode="(" horiz-adv-x="495" d="M14 575q0 141 58.5 278.5t144.5 248.5q10 12 40 50t65.5 80t69.5 73.5t52 31.5q16 0 31 -14q12 -12 11 -29.5t-13 -27.5q-4 0 -27.5 -23.5t-53.5 -57.5t-60.5 -70t-48.5 -62q-90 -123 -138.5 -246t-48.5 -232q0 -131 34 -225t74 -154.5t58 -75.5l51 -42 q16 -10 19.5 -25.5t-6.5 -29.5q-10 -18 -33 -19q-12 0 -23 6q-10 6 -26.5 20.5t-36 34t-37.5 41t-31 39.5q-66 96 -95.5 205t-29.5 225z" />
<glyph unicode=")" horiz-adv-x="497" d="M10.5 1293.5q-0.5 17.5 12.5 29.5q10 14 28 14t52 -31.5t70 -73.5t66.5 -80t41.5 -50q86 -111 144 -248t58 -279q0 -117 -29.5 -225.5t-95.5 -204.5q-12 -18 -30.5 -39.5t-38 -41t-35.5 -34t-27 -20.5q-8 -6 -22 -6q-25 0 -33 19q-10 14 -7 29.5t19 25.5l35 28 q35 29 75 89.5t73.5 154.5t33.5 225q0 109 -48 232t-138 246q-18 27 -49 62.5t-61.5 69.5t-53 57.5t-26.5 23.5q-14 10 -14.5 27.5z" />
<glyph unicode="*" horiz-adv-x="452" d="M13.5 1214.5q-1.5 18.5 9.5 30.5q12 12 28 12q15 0 29 -10q23 -23 47.5 -44t54.5 -48l8 139q2 16 15.5 28.5t30.5 10.5q16 -2 27 -14t9 -29l-8 -141l111 98q14 10 26 10q18 0 31 -12q10 -12 9 -30.5t-13 -28.5q-49 -45 -80 -73t-55 -48q35 -27 69.5 -50.5t38.5 -23.5 q14 -8 18.5 -22.5t2.5 -26.5t-11.5 -21.5t-21.5 -9.5q-14 0 -24 9q-6 0 -37 19t-64 44q2 -27 3 -46t1 -32q2 -14 4 -24q2 -25 -13 -39.5t-32 -14.5q-29 0 -34 37q-4 4 -7.5 38t-5.5 75q-27 -20 -56.5 -38.5t-33.5 -18.5q-14 -8 -24 -9q-29 0 -35 31t22 49q12 6 27 17 q14 10 33.5 23t46.5 34q-29 25 -61.5 55.5t-71.5 65.5q-12 10 -13.5 28.5z" />
<glyph unicode="+" horiz-adv-x="518" d="M4 653q2 16 14.5 27.5t28.5 9.5q47 -4 93 -6t87 -2q2 39 4 83t7 99q2 16 15 28.5t30 10.5q16 -2 27.5 -14t8.5 -29q-4 -49 -6 -93t-2 -87q78 2 111 6t35 4h4q23 0 36 -13t13 -30q0 -12 -8 -22.5t-29 -14.5q-10 -4 -61.5 -8t-102.5 -4q2 -76 6 -113q2 -20 4 -34 q0 -20 -10 -37t-33 -17q-12 0 -22 8.5t-14 28.5q-2 2 -4.5 18.5t-4.5 40t-3 51t-1 54.5q-41 2 -85 4t-99 6q-16 2 -28.5 15.5t-10.5 29.5z" />
<glyph unicode="," horiz-adv-x="204" d="M20 102q0 16 12.5 28.5t28.5 12.5q45 0 77 -26.5t42 -73.5q8 -41 -2 -88t-39 -90q-14 -20 -35 -21q-10 0 -20 6q-16 10 -20.5 25.5t6.5 32.5q43 68 28 119q-6 35 -37 34q-16 0 -28.5 12.5t-12.5 28.5z" />
<glyph unicode="-" horiz-adv-x="575" d="M35 489q2 16 14 27.5t29 9.5q152 -12 239 -12q92 0 130 6t40 6h5q23 0 36 -13t13 -30q0 -12 -8.5 -22t-28.5 -15q-10 -4 -59.5 -7t-116.5 -3q-59 0 -126 2t-128 6q-16 2 -28.5 15.5t-10.5 29.5z" />
<glyph unicode="." horiz-adv-x="147" d="M29 45q0 20 13 33.5t32 13.5q20 0 33.5 -13t13.5 -34q0 -18 -13.5 -31.5t-33.5 -13.5q-18 0 -31.5 13.5t-13.5 31.5z" />
<glyph unicode="/" horiz-adv-x="403" d="M4 37q0 4 4 16q31 70 64.5 188.5t68.5 255t67 277.5t55.5 255t38.5 187l15 72q4 18 17.5 27.5t27.5 9.5q23 0 29 -15.5t6 -33.5l-14 -74t-37.5 -188.5t-55.5 -257t-67 -281.5t-70.5 -260t-68.5 -195q-14 -24 -39 -24q-16 0 -28.5 12t-12.5 29z" />
<glyph unicode="0" horiz-adv-x="917" d="M27 588q0 121 28.5 237.5t91 210.5t161 151.5t235.5 57.5q100 0 167.5 -57.5t107.5 -141t56.5 -180t16.5 -176.5q0 -109 -26.5 -230.5t-85 -224t-150.5 -169t-223 -66.5q-106 0 -178 59.5t-117 148.5t-64.5 191.5t-19.5 188.5zM109 588q0 -66 14 -153t49 -166t91 -133 t143 -54q113 0 189.5 61.5t124.5 152.5t68.5 197.5t20.5 196.5q0 59 -12.5 140t-42 155t-80.5 126t-131 52q-119 0 -201 -52t-134 -134t-75.5 -184.5t-23.5 -204.5z" />
<glyph unicode="1" horiz-adv-x="159" d="M23 43l34 1184q0 16 12.5 28.5t28.5 10.5q16 0 28.5 -12.5t12.5 -28.5l-35 -1186q0 -16 -12.5 -27.5t-30.5 -11.5q-16 0 -27 13.5t-11 29.5z" />
<glyph unicode="2" horiz-adv-x="890" d="M27 117q0 84 43 153.5t110.5 118.5t148.5 77t156 28q16 0 33 -1t33 -4q31 47 59.5 99.5t51 110t37 114.5t14.5 113q0 53 -15.5 100t-45 83t-74 57.5t-101.5 21.5q-47 0 -94 -14.5t-90 -40t-78 -60.5t-57 -76q-12 -23 -37 -22q-16 0 -28.5 12t-12.5 29q0 6 4 18 q27 53 70 96.5t95 74t111.5 48t116.5 17.5q74 0 132.5 -26.5t99.5 -74t63.5 -110t22.5 -133.5q0 -121 -49.5 -240t-110.5 -219q66 -27 108.5 -72t69.5 -102t38 -122t11 -130q0 -16 -12 -28.5t-29 -12.5q-16 0 -28.5 12.5t-12.5 28.5q0 55 -9 109.5t-30.5 102.5t-58.5 86 t-94 56q-31 -45 -86.5 -111.5t-121 -130t-133 -108.5t-124.5 -45q-51 0 -73.5 35t-22.5 82zM109 117q0 -33 8 -33q0 -2 6 -2q39 0 93 40t109.5 93t102.5 108.5t70 88.5q-59 0 -128 -20.5t-127.5 -58.5t-96 -92.5t-37.5 -123.5z" />
<glyph unicode="3" horiz-adv-x="839" d="M27 291q0 16 12 28.5t29 12.5q16 0 28.5 -12.5t12.5 -28.5q0 -55 28.5 -95t72.5 -65t96 -37t97 -12q70 0 130.5 20.5t104.5 58.5t69.5 95t25.5 131q0 92 -35.5 145.5t-93 80t-130.5 33.5t-144 7q-18 2 -33.5 12.5t-15.5 32.5q0 23 14 34t24 16q16 10 48 24q35 18 80 43 t85.5 56.5t69.5 72.5t29 90q0 45 -18.5 76t-48 50.5t-67.5 28.5t-77 9q-49 0 -98.5 -12t-92.5 -37t-75.5 -60.5t-47.5 -82.5q-10 -29 -38 -29q-16 0 -28.5 12t-12.5 29q0 8 2 12q18 61 59 108.5t95.5 78t115.5 47t121 16.5q57 0 110.5 -15.5t93.5 -46t64.5 -76.5t24.5 -108 q0 -55 -22.5 -101t-58.5 -83t-81 -66.5t-88 -52.5q158 -14 255 -97t97 -247q0 -90 -31.5 -161.5t-87 -122t-131.5 -77t-162 -26.5q-63 0 -130.5 17.5t-122 54.5t-89 91t-34.5 128z" />
<glyph unicode="4" horiz-adv-x="788" d="M4 592q0 68 26.5 136.5t61.5 125.5q41 70 102.5 141.5t136.5 129t158.5 93t172.5 35.5q14 0 27 -1t28 -3q16 -4 26.5 -14t8.5 -27l-19 -592q18 -10 19 -32q0 -20 -21 -35l-14 -510q-2 -16 -13.5 -27.5t-29.5 -11.5q-16 0 -28.5 13.5t-10.5 29.5l14 473 q-49 -18 -106.5 -36.5t-117.5 -34t-118.5 -24.5t-109.5 -9q-92 0 -142.5 43t-50.5 137zM86 592q0 -59 26.5 -78.5t82.5 -19.5q49 0 109.5 11t121.5 27.5t119.5 36t105.5 37.5l19 565q-78 0 -154 -32.5t-141.5 -85t-120.5 -116t-92 -126.5q-29 -47 -52.5 -105.5t-23.5 -113.5 z" />
<glyph unicode="5" horiz-adv-x="884" d="M16 82q0 16 12.5 28.5t28.5 12.5q8 0 13 -2q66 -20 130 -29.5t128 -9.5q82 0 163.5 18.5t148.5 58.5t107.5 105.5t40.5 159.5q0 74 -34.5 130t-91 98t-129 70t-148.5 46t-148.5 26.5t-130.5 10.5q-27 0 -32.5 15.5t-5.5 35.5l84 320q6 27 36 30q4 0 40 1t88.5 4t116 5.5 t121.5 5.5t106.5 5t70.5 2q16 2 28.5 -10.5t12.5 -28.5q0 -39 -39 -43q-29 0 -98.5 -3t-147 -6t-151.5 -7.5t-113 -6.5l-63 -241q102 -8 226 -33t231.5 -77t180 -136t72.5 -213q0 -113 -48 -193.5t-124.5 -132t-174 -75t-195.5 -23.5q-141 0 -283 43q-29 10 -29 39z" />
<glyph unicode="6" horiz-adv-x="833" d="M25 498q0 154 42 292t119 246q78 104 174.5 161.5t198.5 57.5q16 0 28.5 -12t12.5 -29q0 -16 -12.5 -28t-28.5 -12q-82 0 -162 -48.5t-145 -136.5q-72 -98 -109 -224t-37 -267q0 -31 3.5 -58.5t7.5 -54.5q23 61 55.5 115.5t77.5 96.5t102.5 66.5t124.5 24.5 q66 0 128.5 -25.5t109.5 -68.5t75.5 -102t28.5 -127q0 -74 -31.5 -140.5t-84 -117t-120 -79t-141.5 -28.5q-100 0 -179 43t-131 112.5t-79.5 158.5t-27.5 184zM166 252q43 -76 116.5 -123t163.5 -47q55 0 107.5 22.5t93.5 61.5t65.5 90t24.5 109q0 51 -22.5 95t-59.5 76.5 t-84 51t-96 18.5q-70 0 -123 -32.5t-90 -84t-60.5 -115t-35.5 -122.5z" />
<glyph unicode="7" horiz-adv-x="837" d="M6 1147q0 33 29 39q59 16 155.5 22t200.5 6q102 0 195.5 -3t148.5 -5q16 -2 28.5 -2h18.5q18 0 32.5 -9t14.5 -32q0 -14 -10 -28q-35 -59 -85 -146.5t-103 -188t-105.5 -209t-93.5 -209.5t-66.5 -190.5t-25.5 -150.5q0 -16 -12.5 -28.5t-28.5 -12.5t-28.5 12.5 t-12.5 28.5q0 66 23.5 154t62.5 187t88 203.5t100.5 203t99.5 185.5t85 150q-53 4 -142.5 6.5t-187.5 2.5t-187 -4.5t-141 -20.5q-4 -2 -12 -2q-16 0 -28.5 12t-12.5 29z" />
<glyph unicode="8" horiz-adv-x="870" d="M20 309q0 90 29 155.5t79 116t115.5 88.5t139.5 70q-96 43 -149.5 108.5t-53.5 178.5q0 59 24.5 107.5t64.5 82t92.5 52t107.5 18.5q115 0 184.5 -69.5t69.5 -184.5q0 -170 -150 -282q51 -23 100.5 -55.5t88.5 -80t62.5 -112t23.5 -152.5q0 -86 -38 -151.5t-99.5 -109.5 t-138 -66.5t-156.5 -22.5q-70 0 -140.5 18.5t-128 56.5t-92.5 96t-35 138zM102 309q0 -61 29 -104t75 -71t101.5 -40t106.5 -12q61 0 123.5 15.5t113.5 48t83 84t32 120.5q0 76 -19.5 130.5t-56.5 94t-89 68.5t-116 53q-10 -6 -21 -11t-22 -9q-74 -33 -136 -65.5t-107 -74.5 t-71 -96.5t-26 -130.5zM262 1026q0 -55 17.5 -93t47 -64.5t69.5 -45t85 -37.5q160 96 160 246q0 80 -46 126t-126 46q-39 0 -76 -12t-65.5 -34.5t-47 -55.5t-18.5 -76z" />
<glyph unicode="9" horiz-adv-x="786" d="M6 786q0 86 27.5 166t79 142.5t124 100.5t164.5 38q76 0 143.5 -28.5t121.5 -80.5q2 23 2 39.5v28.5q2 14 2 25q0 18 13 29t30 11q39 -4 39 -43q0 -2 -3.5 -69.5t-7.5 -174t-8 -237.5t-8 -261t-7 -244.5t-3 -186.5q0 -16 -12.5 -28.5t-28.5 -12.5t-28.5 12.5t-12.5 28.5 q0 78 3 198.5t7 260.5q-53 -39 -121.5 -55.5t-134.5 -16.5q-82 0 -151.5 23.5t-121 68.5t-80 112.5t-28.5 153.5zM88 786q0 -141 85 -208.5t214 -67.5q29 0 65.5 5t73.5 17.5t68 31.5t45 46q4 8 8 11q4 104 7 203.5t8 181.5q-53 72 -121 108.5t-140 36.5q-74 0 -132 -30.5 t-98 -82t-61.5 -117t-21.5 -135.5z" />
<glyph unicode=":" horiz-adv-x="116" d="M12 45q0 20 13.5 33.5t31.5 13.5q20 0 33.5 -13t13.5 -34q0 -18 -13.5 -31.5t-33.5 -13.5q-18 0 -31.5 13.5t-13.5 31.5zM12 700q0 20 13.5 34t31.5 14q20 0 33.5 -13.5t13.5 -34.5q0 -18 -13 -31.5t-34 -13.5q-18 0 -31.5 13.5t-13.5 31.5z" />
<glyph unicode=";" horiz-adv-x="190" d="M6 700q0 20 13.5 34t31.5 14q20 0 33.5 -13.5t13.5 -34.5q0 -18 -13 -31.5t-34 -13.5q-18 0 -31.5 13.5t-13.5 31.5zM23 102q0 16 12 28.5t28 12.5q45 0 77 -26.5t42 -73.5q8 -41 -2 -88t-39 -90q-14 -20 -35 -21q-10 0 -20 6q-16 10 -20 26t6 32q43 68 28 119 q-6 35 -37 34q-16 0 -28 12.5t-12 28.5z" />
<glyph unicode="&#x3c;" horiz-adv-x="514" d="M2 537q0 23 16 32q2 0 45 32t104.5 75t129.5 91t117 83q12 6 24 6q16 0 28.5 -12.5t12.5 -28.5q0 -20 -18 -33q-37 -25 -83 -58.5t-94 -67t-92.5 -64.5t-74.5 -53q23 -14 82 -57.5t121.5 -91.5t110.5 -92t48 -65q0 -16 -12 -28t-29 -12q-16 0 -28 12q-70 63 -138.5 117.5 t-124 94.5t-91.5 63l-36 22q-18 14 -18 35z" />
<glyph unicode="=" d="M37 489q2 16 14 27.5t29 9.5q152 -12 239 -12q92 0 130 6t40 6h5q23 0 36 -13t13 -30q0 -12 -8.5 -22t-28.5 -15q-10 -4 -59.5 -7t-116.5 -3q-59 0 -126 2t-128 6q-16 2 -28.5 15.5t-10.5 29.5zM37 817q2 16 14 27.5t29 9.5q152 -12 239 -12q92 0 130 6t40 6h5 q23 0 36 -13.5t13 -29.5q0 -12 -8.5 -22.5t-28.5 -14.5q-10 -4 -59.5 -7t-116.5 -3q-59 0 -126 2t-128 6q-16 2 -28.5 15.5t-10.5 29.5z" />
<glyph unicode="&#x3e;" horiz-adv-x="514" d="M35 233q0 20 48 64.5t110.5 92.5t122 91t81.5 58q-31 23 -74.5 53.5t-92 64t-94.5 67.5t-83 58q-18 12 -18 33q0 16 12 28.5t29 12.5q12 0 24 -6q49 -35 116 -83t128.5 -91t83.5 -59l66 -48q10 -4 14 -13t4 -19q0 -20 -18 -35l-36 -22q-36 -23 -91.5 -63t-124 -94.5 t-138.5 -117.5q-12 -12 -28 -12t-28.5 12t-12.5 28z" />
<glyph unicode="?" horiz-adv-x="448" d="M4 870q0 90 19.5 172t56.5 148q14 25 33.5 50.5t44 47t52.5 34.5t58 13q53 0 86 -31.5t50.5 -77.5t23.5 -98.5t6 -91.5q0 -92 -19.5 -200.5t-56.5 -239.5q-18 -66 -38.5 -123t-36 -99t-26.5 -67.5t-11 -27.5q-10 -25 -37 -25q-8 0 -16 4q-25 10 -25 37q0 12 2 16 q0 2 14.5 35t34 88t43 128t44 153t33.5 161.5t13 157.5q0 20 -3 57t-11 73t-24.5 62.5t-43.5 26.5q-49 0 -83.5 -46t-57.5 -108.5t-33 -127t-10 -101.5q0 -16 -12.5 -28.5t-28.5 -12.5t-28.5 12.5t-12.5 28.5zM156 49q0 18 13 31.5t32 13.5q20 0 33.5 -13t13.5 -32 q0 -20 -13.5 -33.5t-33.5 -13.5q-18 0 -31.5 13.5t-13.5 33.5z" />
<glyph unicode="@" horiz-adv-x="958" d="M29 545q0 102 24.5 209.5t77.5 194.5t136 143.5t202 56.5t207 -48t145.5 -128t85 -183.5t27.5 -211.5q0 -37 -6 -91.5t-24.5 -105.5t-50.5 -87t-85 -36q-43 0 -73.5 29.5t-53.5 62.5q-27 -47 -74 -87t-106 -40q-55 0 -87 34t-49.5 82t-22.5 102.5t-5 93.5q0 43 8 104 t30.5 117.5t60.5 96.5t100 40q47 0 77.5 -25.5t50 -62.5t27.5 -81t8 -81q0 -16 -12 -28.5t-29 -12.5q-16 0 -28 12.5t-12 28.5q0 84 -27 126t-55 42q-37 0 -59.5 -35t-35 -82t-17.5 -92t-5 -67q0 -18 2 -56.5t10 -76t25.5 -67.5t46.5 -30q35 0 72.5 38t54.5 91q4 16 16 26.5 t29 10.5q27 0 45 -27q4 -6 9 -12t9 -16q10 -20 31 -47t37 -29q10 -2 20.5 6t16.5 16q20 23 34.5 81.5t14.5 136.5q0 88 -21.5 175t-67.5 156.5t-119 112.5t-175 43q-100 0 -169 -50t-111 -128t-60 -169t-18 -175q0 -82 18 -177.5t61 -177t113 -136t170 -54.5q115 0 250 80 q10 6 20 6q16 0 28.5 -12.5t12.5 -28.5q0 -25 -20 -35q-158 -94 -295 -94q-119 0 -202 60.5t-136 153.5t-77.5 203.5t-24.5 211.5z" />
<glyph unicode="A" horiz-adv-x="903" d="M23 41q0 10 2 14q18 47 32.5 116t24.5 151q-29 10 -29 40q4 35 39 39q8 78 17.5 162t20.5 169t26.5 167t33.5 156q12 41 30 89t44.5 89t65.5 68.5t90 27.5q96 0 165.5 -77.5t120 -199.5t83 -271.5t51 -292t26.5 -262.5t13 -183q2 -16 -10.5 -28.5t-28.5 -14.5t-28.5 10.5 t-14.5 28.5q-2 41 -6.5 108.5t-14.5 151.5l-612 18q-12 -88 -26.5 -162.5t-35.5 -127.5q-10 -27 -39 -27q-16 0 -28 12.5t-12 28.5zM174 399l594 -18q-6 49 -17.5 132t-30 179t-46 195.5t-64.5 179.5t-84 130t-106 50q-90 0 -150 -215q-29 -106 -47 -239.5t-35 -270.5 q-4 -31 -7 -61.5t-7 -61.5z" />
<glyph unicode="B" horiz-adv-x="1058" d="M31 1042q0 76 32.5 129.5t85 88t119 51t131.5 16.5q68 0 138.5 -16.5t128 -52t94.5 -92t37 -136.5q0 -49 -15.5 -95t-42 -87t-59.5 -77t-70 -66q12 2 24.5 2h24.5q78 0 146.5 -18.5t122 -57.5t84 -99.5t30.5 -146.5q0 -94 -47 -166t-119.5 -121t-160.5 -73.5t-172 -24.5 q-47 0 -99.5 7t-100.5 25.5t-86 51.5t-54 84q0 -57 -3 -93t-7.5 -56.5t-9.5 -31t-11 -16.5q-14 -14 -33 -14q-16 0 -28.5 12.5t-12.5 28.5q0 18 13 31q4 10 7 48t3 134q0 199 -10.5 396.5t-22.5 396.5q-4 -2 -16 -3q-16 0 -28.5 12.5t-12.5 28.5zM117 1081q4 0 8 2 q39 0 43 -39q12 -197 21.5 -391t13.5 -391q10 14 30 14q16 0 28.5 -12t12.5 -28q0 -49 28 -79t70 -47.5t88 -22.5t83 -5q66 0 138.5 18.5t135 56.5t103.5 95t41 133q0 68 -25 114t-67 73.5t-96 40t-114 12.5q-147 0 -284 -66q-13 -4 -19 -4q-16 0 -28.5 12.5t-12.5 28.5 q0 27 23 37q55 29 120.5 67.5t123 88t95.5 109.5t38 132q0 59 -31 100t-77 67t-101 37t-107 11q-41 0 -87 -8t-86 -27.5t-69.5 -50.5t-39.5 -78z" />
<glyph unicode="C" horiz-adv-x="942" d="M27 559q0 109 27.5 243t88 250.5t155.5 195.5t230 79q74 0 124 -26.5t83 -71.5t47.5 -104.5t14.5 -127.5q0 -16 -12.5 -28.5t-28.5 -12.5t-28.5 12.5t-12.5 28.5q0 49 -8.5 94.5t-30 79t-57 54t-91.5 20.5q-76 0 -137 -33.5t-108 -90t-80 -128t-53.5 -148.5t-30.5 -152 t-10 -134q0 -70 13 -152.5t46 -154.5t90 -121t145 -49q72 0 139.5 25.5t126 68.5t104.5 100.5t75 120.5q10 23 37 23q16 0 28.5 -12.5t12.5 -28.5q0 -14 -16.5 -44t-38 -60.5t-42 -56t-30.5 -36.5q-78 -86 -178.5 -134t-217.5 -48q-109 0 -181 54.5t-115.5 137t-61.5 181 t-18 186.5z" />
<glyph unicode="D" horiz-adv-x="1009" d="M31 1042q0 72 34.5 125.5t90 88t121 53t126.5 18.5q147 0 256 -60.5t181.5 -159.5t108.5 -225t36 -257q0 -100 -24.5 -211t-79 -203t-138 -151.5t-204.5 -59.5q-51 0 -105.5 10t-103.5 33t-87 59.5t-55 90.5q-2 -63 -6 -103.5t-9 -64t-11 -34.5t-12 -18q-16 -16 -37 -16 q-16 0 -28.5 12.5t-12.5 28.5q0 20 18 35q4 10 9 48t7 132q2 23 2.5 46.5t0.5 49.5q0 174 -7.5 346t-17.5 346q-20 0 -36.5 8.5t-16.5 32.5zM119 1083q16 0 29.5 -11.5t13.5 -27.5q12 -184 20 -366t8 -369v-14q14 10 29 10q16 0 28.5 -11t12.5 -30q0 -51 25.5 -86 t65.5 -56.5t89 -30.5t99 -9q90 0 157.5 47t113.5 123t69.5 174t23.5 199q0 115 -29.5 226.5t-91 198.5t-156 141t-223.5 54q-39 0 -84 -9t-85.5 -29.5t-72.5 -51.5t-42 -72z" />
<glyph unicode="E" horiz-adv-x="768" d="M37 1166v91q0 35 35 41q16 2 65 5.5t113.5 6.5t137.5 7t137.5 6t111.5 4t61 2q16 2 29.5 -10t13.5 -29q0 -39 -39 -43q-51 -2 -132 -5t-167 -7t-163.5 -7t-120.5 -7v-93.5t1 -136.5t2 -163t3 -177l473 45q16 0 29.5 -9t15.5 -28q2 -16 -9 -29.5t-28 -15.5l-479 -45 q2 -76 5 -149.5t6 -136t7.5 -113.5t8.5 -82q10 -4 34.5 -5t69.5 -1q117 0 231.5 7t231.5 17q16 2 29.5 -9t15.5 -27t-9.5 -28.5t-27.5 -14.5q-117 -10 -234.5 -18.5t-236.5 -8.5q-29 0 -59.5 1t-59.5 5q-10 4 -32.5 11.5t-28.5 33.5q-10 47 -17.5 150.5t-11.5 234.5 t-7 271.5t-4 259t-1 199.5z" />
<glyph unicode="F" horiz-adv-x="739" d="M27 604q-2 16 9 29.5t27 15.5l27 2q-2 111 -5 217.5t-5 190.5t-3 137t-1 61q0 16 9 27.5t26 15.5q18 2 66 5.5t111.5 6.5t133.5 7t129 6t100 4t45 2q16 0 29.5 -11t13.5 -28q0 -16 -11 -29.5t-28 -13.5q-47 -2 -121.5 -5t-154.5 -7t-151.5 -7t-114.5 -7q0 -33 2 -92.5 t4 -134t4 -160.5t4 -177l444 39q16 2 29.5 -9t16.5 -27q2 -16 -9.5 -30t-27.5 -16l-451 -38q2 -86 5 -167t6 -152t7 -126t5 -88q2 -16 -9.5 -29.5t-27.5 -15.5q-18 0 -29.5 10t-13.5 27q-4 35 -7.5 90t-6.5 126t-6 151.5t-5 164.5l-20 -2q-18 0 -30.5 10.5t-14.5 26.5z" />
<glyph unicode="G" horiz-adv-x="944" d="M27 559q0 109 27.5 243t88 250.5t155.5 195.5t230 79q74 0 124 -26.5t83 -71.5t47.5 -104.5t14.5 -127.5q0 -16 -12.5 -28.5t-28.5 -12.5t-28.5 12.5t-12.5 28.5q0 49 -8.5 94.5t-30 79t-57 54t-91.5 20.5q-76 0 -137 -33.5t-108 -90t-80 -128t-53.5 -148.5t-30.5 -152 t-10 -134q0 -70 13 -152.5t46 -154.5t90 -121t145 -49q80 0 145.5 28.5t118 77t92.5 111.5t66 133q-109 -14 -216 -26.5t-216 -16.5q-16 0 -28.5 -1t-24.5 -1t-29.5 1t-33 6t-26.5 16.5t-11 29.5q0 16 12 28.5t29 12.5q14 0 24 -10q78 0 152.5 5t152.5 13q53 6 100.5 12.5 t86.5 10.5q43 4 82 10q18 0 32.5 -9t14.5 -32q0 -18 -13.5 -53t-31 -72t-36 -69.5t-28.5 -48.5q-160 -238 -414 -238q-109 0 -181 54.5t-115.5 137t-61.5 181t-18 186.5z" />
<glyph unicode="H" horiz-adv-x="905" d="M37 416q0 121 3 251t8 249.5t11.5 220t12.5 161.5q2 16 13 26.5t28 10.5q20 0 30.5 -13t10.5 -32q-6 -53 -11.5 -136t-10.5 -183.5t-8 -212t-5 -219.5l620 -9q-2 47 -2 92.5v92.5q0 100 2 184t6 152q4 72 10.5 120t13.5 77.5t14.5 46t13.5 24.5q12 16 32 16 q16 0 28.5 -12t12.5 -29q0 -14 -8 -24q-10 -14 -17 -54t-12.5 -94.5t-7.5 -116t-4 -119t-2 -103.5v-68q0 -168 4 -336t13 -336q2 -16 -10.5 -28.5t-28.5 -14.5q-39 0 -43 39l-1 33q-1 32 -3 87.5t-5.5 130.5t-5.5 159l-620 8v-39q0 -115 3 -211t11 -160q0 -18 -9 -32.5 t-32 -14.5q-16 0 -27.5 10t-13.5 27q-8 66 -11 164t-3 215z" />
<glyph unicode="I" horiz-adv-x="669" d="M12 57q2 18 15.5 27.5t29.5 9.5q49 -6 117 -8t137 -4q-6 43 -10 107.5t-7 141.5t-4 160.5t-1 163.5q0 78 2 167t5 171t7 148.5t10 103.5q-72 0 -143.5 3t-120.5 9q-16 2 -26.5 13.5t-10.5 27.5t12.5 29.5t28.5 11.5q47 -4 115 -8t137 -4q57 0 112.5 1t98.5 3t70 3l26 1 q39 0 43 -39q0 -16 -11 -29.5t-28 -13.5q-6 0 -69.5 -2t-149.5 -4q-6 -20 -10 -75.5t-8 -135.5t-6 -178t-2 -205q0 -100 2 -190t5 -165t7 -130t10 -86h27q80 0 134 1t58 1q16 0 27.5 -12.5t13.5 -28.5q0 -16 -12 -28.5t-29 -12.5q-4 0 -60 -1t-134 -1h-95.5t-99.5 2t-94 4 t-82 6q-16 2 -27.5 15.5t-9.5 29.5z" />
<glyph unicode="J" horiz-adv-x="733" d="M8 1292q0 23 14.5 32t32.5 9q66 -10 134.5 -14t134.5 -4q70 0 133 3t110 7t76 7l29 3q18 0 32.5 -10t14.5 -31q0 -16 -10.5 -26.5t-26.5 -12.5q-4 -2 -44 -6t-103 -8q27 -55 46 -121.5t31.5 -136.5t18.5 -140.5t6 -133.5q0 -131 -26.5 -258t-88 -227.5t-162 -162 t-249.5 -61.5q-16 0 -28.5 12.5t-12.5 28.5t12 28.5t29 12.5q131 0 217 57.5t136 147.5t70.5 201.5t20.5 220.5q0 61 -6 131.5t-19.5 141.5t-35 136.5t-50.5 116.5q-29 0 -58.5 -1t-59.5 -1q-70 0 -142.5 5t-140.5 15q-16 2 -25.5 13.5t-9.5 25.5z" />
<glyph unicode="K" horiz-adv-x="937" d="M39 795q0 147 2 280t10 221q2 16 14.5 27.5t28.5 9.5q16 0 27.5 -13t11.5 -30q-8 -86 -10 -216t-2 -275v-104.5t2 -102.5q115 41 231.5 105.5t212 152.5t154.5 199.5t59 246.5q0 16 12.5 28.5t28.5 12.5t28.5 -12t12.5 -29q0 -133 -50 -244.5t-132 -202.5t-187.5 -162 t-218.5 -122q102 -14 214 -53t204 -103.5t151.5 -155.5t59.5 -212q0 -16 -12 -28.5t-29 -12.5q-16 0 -28.5 12.5t-12.5 28.5q0 82 -33.5 146.5t-90 114.5t-129 86t-149.5 59.5t-155 35t-141 13.5q0 -92 2 -174t3 -143.5t2 -97.5t1 -38q0 -16 -12.5 -28.5t-28.5 -12.5 t-28.5 11.5t-12.5 27.5q0 10 -2 78.5t-3 175t-3 238t-2 262.5z" />
<glyph unicode="L" horiz-adv-x="774" d="M37 924q0 125 2 224t6 146q4 39 43 39q16 -2 27.5 -15t11.5 -30q-4 -47 -6 -143t-2 -217q0 -117 2 -243t7 -241.5t12 -210t20 -145.5q10 -2 34.5 -4t71.5 -2q117 0 231.5 7t231.5 17q16 2 29.5 -9t15.5 -27t-9 -29.5t-28 -15.5q-127 -10 -252 -17.5t-254 -7.5 q-20 0 -43.5 1t-45 6t-37 15.5t-19.5 26.5q-18 80 -28.5 192.5t-14.5 233.5t-5 238.5t-1 210.5z" />
<glyph unicode="M" horiz-adv-x="1204" d="M35 971q0 59 2 112.5t8 94.5q2 16 12.5 26t26.5 10q23 0 32 -14t9 -33q-4 -39 -6 -88t-2 -106q0 -66 2 -139.5t6 -149.5q12 104 26.5 193.5t32.5 160.5q8 35 23.5 85.5t39 97.5t57.5 79.5t81 32.5q53 0 97 -25.5t80 -65.5t61.5 -88t44.5 -91q25 43 55.5 92t68 89 t80.5 66.5t89 26.5q57 0 100 -45q37 -39 57.5 -105.5t30.5 -143t12 -153.5t2 -132q0 -92 -3 -184.5t-7 -180.5q-4 -66 -6 -120t-2 -99v-10q0 -41 2 -61.5t4 -28.5q16 -10 16 -33q0 -16 -12 -28.5t-29 -12.5q-20 0 -36 16q-14 16 -20.5 47t-6.5 99q0 41 2 98t6 137 q4 86 7 177.5t3 183.5q0 47 -2 116.5t-9 140t-23.5 131t-45.5 91.5q-18 18 -40 18q-39 0 -78 -35.5t-74 -85t-62.5 -100.5t-39.5 -80q23 -74 34 -151.5t11 -149.5q0 -35 -5.5 -79t-19.5 -83.5t-42 -67.5t-75 -28q-31 0 -50 14.5t-30.5 36t-15.5 47t-4 50.5q0 80 29.5 191.5 t78.5 226.5q-12 39 -33.5 89t-51 95t-66.5 75.5t-82 30.5q-4 0 -11 -2t-22 -16q-35 -37 -62.5 -118t-47 -185.5t-32.5 -223t-20.5 -230t-10.5 -208t-3 -155.5q0 -23 1 -39.5t1 -30.5q0 -39 -39 -43q-16 0 -28.5 10t-14.5 27q0 6 -5 52t-12 120t-14.5 168t-14.5 195.5 t-11 204t-4 194.5zM592 529.5q0 -11.5 2 -22.5t6 -20.5t10 -9.5q20 0 31.5 22.5t18 52.5t8.5 59.5t2 41.5q-1 78 -17 172q-29 -80 -45 -154.5t-16 -127.5v-13.5z" />
<glyph unicode="N" horiz-adv-x="960" d="M39 813v178t1 148.5t1 105.5v47q0 16 12.5 28.5t28.5 12.5q33 1 39 -30q2 -4 4 -10.5t4 -16.5q14 -49 46 -157.5t76 -241t98 -272.5t114.5 -256t123 -190.5t124.5 -74.5q6 0 15 2t19 12q31 33 48.5 108t25.5 162t10 172t2 136q0 74 -1 145.5t-3 136.5q-2 61 -3 109.5 t-1 85.5q0 84 6.5 119t20.5 49t35 14q16 0 28.5 -11t12.5 -30q0 -18 -15 -28q-2 -8 -3 -30t-3 -65v-20q0 -41 1 -88t3 -102q2 -66 3 -138.5t1 -146.5q0 -61 -2 -152.5t-12 -184.5t-32.5 -174t-63.5 -124q-37 -39 -92 -39q-121 0 -242 178q-55 84 -105.5 187.5t-94.5 214 t-80.5 221t-67.5 207.5v-193q0 -104 1 -216t2 -216t4 -192.5t7 -147.5q2 -18 -9 -30.5t-28 -14.5q-41 0 -45 39q-4 61 -7 150.5t-4 192.5t-2 215t-1 216z" />
<glyph unicode="O" horiz-adv-x="1021" d="M27 614q0 119 30.5 245t95 229.5t165 170t237.5 66.5q121 0 205 -63.5t136 -158.5t75.5 -208t23.5 -211q0 -117 -29.5 -238.5t-92 -221t-161 -162t-235.5 -62.5q-123 0 -208 57.5t-139 146.5t-78.5 197.5t-24.5 212.5zM109 614q0 -84 19 -178t62 -173t114 -130t173 -51 q119 0 202 57.5t135 145.5t75.5 194.5t23.5 204.5q0 80 -18 178.5t-60 182t-111 141t-169 57.5q-119 0 -204 -60.5t-138 -153.5t-78.5 -203.5t-25.5 -211.5z" />
<glyph unicode="P" horiz-adv-x="884" d="M29 1049q0 80 40 134t101 87t134 47t138 14q100 0 180 -35.5t136.5 -98t86 -145.5t29.5 -178q0 -100 -32.5 -188t-92 -153.5t-142.5 -103.5t-185 -38q-66 0 -129.5 25.5t-97.5 85.5q6 -141 6 -281q0 -61 -3 -98t-7.5 -59.5t-9.5 -32t-11 -15.5q-12 -16 -33 -16 q-16 0 -28.5 12.5t-12.5 28.5q0 18 13 31q4 10 7 47t3 127q0 193 -10.5 382t-22.5 382q-4 -2 -16 -2q-16 0 -28.5 12t-12.5 29zM115 1087q6 0 8 3q39 0 43 -39l2 -35t6 -91.5t8 -131t6 -154.5q12 4 23 4q16 0 28.5 -12.5t12.5 -28.5q0 -35 15.5 -59.5t39 -40t54 -22.5 t61.5 -7q96 0 165.5 36t115 92t68 128t22.5 145q0 78 -24 147t-69 120t-110.5 79.5t-147.5 28.5q-41 0 -93 -7t-100 -25.5t-85 -49t-49 -80.5z" />
<glyph unicode="Q" horiz-adv-x="1028" d="M31 211q0 16 12 28.5t29 12.5q16 0 28.5 -12.5t12.5 -28.5q0 -74 24.5 -120t66.5 -71.5t99 -35t121 -9.5q53 0 105.5 5.5t103.5 9.5q43 4 80 7t69 3q23 0 47.5 -3t45 -12.5t34 -26.5t13.5 -46q0 -16 -12.5 -28.5t-28.5 -12.5t-28.5 11.5t-12.5 27.5q-4 2 -16.5 5t-41.5 3 t-65.5 -3t-75.5 -7q-53 -4 -107.5 -9t-109.5 -5q-82 0 -153.5 15t-125 51t-84 97.5t-30.5 153.5zM31 614q0 119 30.5 245t95 229.5t165 170t237.5 66.5q121 0 205 -62.5t136 -157.5t75.5 -208t23.5 -211q0 -119 -29.5 -240.5t-92 -221t-161 -162t-235.5 -62.5 q-123 0 -208 57.5t-139 146.5t-78.5 198.5t-24.5 211.5zM113 614q0 -84 19.5 -178t62.5 -173t113.5 -130t172.5 -51q119 0 202 57.5t135 145.5t76 194.5t24 206.5q0 80 -18.5 177.5t-60.5 181t-111 141t-169 57.5q-119 0 -204 -60.5t-139 -153.5t-78.5 -204t-24.5 -211z" />
<glyph unicode="R" horiz-adv-x="903" d="M29 1049q0 80 40 134t101 87t134 47t138 14q100 0 180 -35.5t136.5 -98t86 -145.5t29.5 -178q0 -68 -16 -133t-48 -123.5t-80 -105.5t-112 -78q29 -27 63 -66.5t62.5 -91t49 -111t20.5 -124.5q0 -16 -12.5 -28.5t-28.5 -12.5t-28.5 12.5t-12.5 28.5q0 66 -24.5 124 t-56.5 105t-65.5 82t-52.5 51q-51 -12 -110 -12q-66 0 -129.5 25.5t-97.5 85.5q6 -141 6 -281q0 -61 -3 -98t-7.5 -59.5t-9.5 -31.5t-11 -16q-12 -16 -33 -16q-16 0 -28.5 12.5t-12.5 28.5q0 18 13 31q4 10 7 47t3 127q0 193 -10.5 382t-22.5 382q-4 -2 -16 -2 q-16 0 -28.5 12.5t-12.5 28.5zM115 1087q6 0 8 3q39 0 43 -39l2 -35t6 -91.5t8 -131t6 -154.5q12 4 23 4q16 0 28.5 -12.5t12.5 -28.5q0 -35 15.5 -59.5t39 -40t54 -22.5t61.5 -7q86 0 154.5 32t116.5 87t74 127.5t26 154.5q0 78 -24 147t-69 120t-110.5 79.5t-147.5 28.5 q-41 0 -93 -7t-100 -25.5t-85 -49t-49 -80.5z" />
<glyph unicode="S" horiz-adv-x="878" d="M16 459q0 16 12.5 28.5t28.5 12.5q31 0 41 -31q16 -74 53 -143.5t91.5 -124t123 -87t148.5 -32.5q68 0 116 23.5t80.5 65.5t48 96.5t15.5 115.5q0 88 -26.5 147.5t-71.5 101.5t-101.5 71.5t-117.5 56.5q-51 23 -100.5 48.5t-89.5 59t-64.5 79.5t-24.5 110q0 72 25.5 123 t68.5 84.5t100.5 49t121.5 15.5q29 0 81 -8t102 -23.5t88 -36.5t38 -51q0 -16 -12.5 -28.5t-28.5 -12.5q-12 0 -25 9q-47 35 -116.5 52t-126.5 17q-47 0 -89.5 -10t-75 -32.5t-51 -59.5t-18.5 -90q2 -82 62.5 -127t166.5 -92q80 -37 146.5 -75t116 -90.5t77 -121 t27.5 -166.5q0 -78 -21.5 -147.5t-64.5 -122t-107.5 -83t-148.5 -30.5q-63 0 -123.5 18.5t-113 52t-97.5 79t-78 96.5q-10 16 -25.5 44.5t-28.5 59.5t-22.5 60.5t-9.5 48.5z" />
<glyph unicode="T" horiz-adv-x="655" d="M6 1292q0 23 14.5 32t32.5 9q47 -6 111.5 -8t134.5 -2q57 0 112.5 1t98.5 2t70 2l26 1q39 0 43 -39q0 -16 -11 -29.5t-28 -13.5q-6 0 -69.5 -2t-149.5 -4q-6 -20 -10 -73.5t-8 -130t-6 -173t-2 -205.5v-18q0 -106 2 -202.5t5 -174.5t8 -133t11 -80q0 -20 -9 -35.5 t-32 -15.5q-33 0 -39 33q-8 35 -13 100.5t-8 148.5t-5 177t-2 182v18q0 80 2 167t5 167t7 144.5t10 101.5q-72 0 -143.5 3t-120.5 9q-16 2 -26.5 13.5t-10.5 27.5z" />
<glyph unicode="U" horiz-adv-x="923" d="M33 700q0 78 4 159t12 159t20.5 149.5t26.5 128.5q10 31 41 31q27 0 33 -16.5t6 -34.5q-14 -55 -25.5 -124t-19.5 -143.5t-12 -153.5t-4 -155q0 -31 2 -89t8 -126.5t19.5 -139.5t36 -129t55 -95t77.5 -37q72 0 133.5 72.5t111.5 187.5t89 255t67.5 274.5t46 246 t23.5 170.5q4 16 15.5 26.5t27.5 10.5q27 0 36 -21t11 -44q4 -27 7 -70q4 -61 4 -123.5v-124.5q0 -131 -2 -282.5t-4 -292.5q-2 -115 -3.5 -209t-1.5 -160q0 -16 -12 -28.5t-28 -12.5t-28.5 12.5t-12.5 28.5q0 66 1 160t3 209q2 127 3 260t3 254q-12 -63 -33.5 -154.5 t-51.5 -189t-69 -193.5t-89 -173t-111.5 -124t-135.5 -47q-66 0 -112.5 40t-77.5 102.5t-49.5 140t-27.5 155.5t-11 147.5t-2 112.5z" />
<glyph unicode="V" horiz-adv-x="823" d="M27 1100q0 104 12 190q2 16 13 25.5t28 9.5q16 0 28.5 -12.5t12.5 -28.5q0 -2 -2 -4q-4 -41 -7 -86t-3 -94q0 -61 6 -146.5t19 -179.5t32.5 -192.5t45.5 -188.5t56.5 -164.5t67.5 -119.5q8 -10 12 -14.5t8 -8.5t9 -4q23 10 53 61q25 45 61.5 138.5t83.5 265.5 q27 98 51.5 201.5t45 202t37 186.5t28.5 155q6 33 41 33q16 0 28.5 -12.5t12.5 -28.5q0 -4 -2 -6q-12 -70 -28.5 -160t-38 -189.5t-46 -205t-53.5 -203.5q-31 -113 -60.5 -201t-58.5 -151q-10 -23 -24.5 -51.5t-35 -55t-44 -44t-51.5 -17.5q-43 0 -86 47q-43 49 -78 129 t-62.5 177.5t-49 203t-35 206.5t-20.5 189t-7 148z" />
<glyph unicode="W" horiz-adv-x="1286" d="M35 1206v84q0 16 12 27.5t29 11.5q18 0 29.5 -12t11.5 -29q0 -57 1 -157.5t6 -221.5t15.5 -250t26.5 -242.5t40.5 -199.5t59.5 -123q12 -12 21 -12q43 0 87 44t82 102.5t66.5 118t42.5 91.5q-35 98 -55.5 193.5t-20.5 171.5q0 35 6.5 70.5t21.5 66.5t42 50.5t70 19.5 q35 0 57.5 -16.5t34.5 -43t16 -56.5t4 -58q0 -78 -23.5 -183.5t-64.5 -214.5q14 -37 43 -97t65 -117.5t76 -99.5t78 -42q2 0 9.5 3t18.5 13.5t25.5 34t32.5 62.5q43 100 76 244.5t54.5 298t32 300t10.5 250.5q0 18 12 29.5t28 11.5q41 0 41 -41q0 -111 -11 -261t-33.5 -308 t-56.5 -305.5t-79 -251.5q-70 -162 -160 -162q-53 0 -100 36t-87 88t-70.5 109.5t-49.5 100.5q-20 -43 -53 -101.5t-74 -109.5t-90 -87t-104 -36q-63 0 -106.5 77t-71 195.5t-43 262t-22.5 277.5t-8 241.5t-1 152.5zM571 803q0 -49 10.5 -110.5t28.5 -127.5q23 76 36 146.5 t13 124.5v21t-3 30.5t-9 28t-18 12.5q-20 0 -31.5 -14.5t-18 -34t-7.5 -41t-1 -35.5z" />
<glyph unicode="X" horiz-adv-x="1064" d="M31 1286q0 16 12 28.5t29 12.5q23 0 37 -20q35 -66 78.5 -144t95 -163t107.5 -174t116 -177q117 166 230.5 330t226.5 330q10 18 32 18q16 0 28.5 -12t12.5 -29q0 -10 -6 -22q-78 -115 -185.5 -271.5t-230.5 -330.5q-16 -23 -29.5 -43.5t-29.5 -40.5q106 -154 208.5 -288 t188.5 -220q12 -12 13 -29q0 -16 -12.5 -28.5t-28.5 -12.5t-50 33t-77 84t-90.5 111.5t-88 116.5t-71.5 100t-41 61q-96 -137 -183 -263t-153 -225q-12 -18 -33 -18q-16 0 -28.5 12.5t-12.5 28.5q0 14 6 22q68 104 160 237.5t193 277.5q-16 25 -54.5 83t-85.5 131.5 t-97 155.5t-92 151.5t-68.5 121t-26.5 65.5z" />
<glyph unicode="Y" horiz-adv-x="876" d="M20 870q0 109 18.5 215.5t45.5 210.5q10 31 41 31q25 0 32 -15.5t7 -33.5q-61 -246 -62 -408q0 -51 7.5 -103t29 -93t60.5 -66.5t102 -25.5q70 0 129 37.5t108.5 99t87.5 139.5t67.5 156t49 151.5t29.5 124.5q6 37 41 37q16 0 28.5 -12t12.5 -29v-18t-2 -19 q-2 -86 -11.5 -212t-31 -264t-59 -276.5t-97 -249t-146.5 -179t-206 -68.5q-16 0 -28.5 12.5t-12.5 28.5t12.5 28.5t28.5 12.5q84 0 146.5 46t110.5 121t81 168t54.5 187t34.5 180t20 146q-29 -70 -70 -146.5t-96.5 -139t-125 -103.5t-155.5 -41q-82 0 -136 31.5t-86 83 t-45.5 119t-13.5 136.5z" />
<glyph unicode="Z" horiz-adv-x="985" d="M25 127q0 10 4 27.5t16 47t36.5 75t65.5 110.5q135 221 283 431t301 421q-94 -8 -187 -12t-188 -4q-82 0 -136 4t-89 12t-53.5 17.5t-28.5 17.5q-16 12 -20 26.5t-4 24.5q0 16 12 28.5t29 12.5q33 0 40 -33q16 -10 49 -15t71 -8t75 -4t57 -1q227 0 455 24q16 0 30.5 -10 t14.5 -31q0 -8 -8 -24q-20 -29 -63.5 -88.5t-99.5 -138.5t-120.5 -170t-128 -185t-123 -184t-105.5 -165t-73.5 -129t-30.5 -77l10 -7q11 -7 42.5 -15.5t92 -15.5t161.5 -7q131 0 261 8t259 25q2 2 6 2q16 0 28.5 -12.5t12.5 -28.5t-10.5 -27.5t-26.5 -13.5 q-133 -16 -266 -25.5t-266 -9.5q-94 0 -157 6t-102.5 15.5t-61 20.5t-34.5 21q-18 16 -24 34t-6 30z" />
<glyph unicode="[" d="M33 25q0 291 20.5 580.5t46.5 578.5q2 16 12.5 26.5t26.5 10.5l381 26q16 2 28.5 -9t14.5 -30q2 -16 -9 -28.5t-28 -14.5l-346 -22q-27 -281 -46 -559.5t-19 -558.5q0 -18 1 -59.5t3 -86.5t7 -84t13 -51q4 -6 29.5 -18.5t97.5 -12.5q66 0 136.5 12.5t134.5 24.5 q41 0 41 -41q0 -33 -31 -39q-68 -18 -138.5 -28.5t-142.5 -10.5q-147 0 -192 66q-16 20 -24.5 65t-12.5 94.5t-4 95.5v73z" />
<glyph unicode="\" horiz-adv-x="884" d="M10 782q0 27 29 27q18 0 58 -11.5t85 -25.5t86 -29.5t60 -21.5q16 92 35.5 184t48.5 180q4 8 11 19.5t21 11.5t20.5 -11t10.5 -20l8 -20t9 -27q6 -27 14 -61.5t18 -77.5q12 -53 21.5 -101t15.5 -77q18 8 58 22.5t85.5 28.5t85 25.5t58.5 11.5q29 0 29 -27 q0 -8 -6.5 -22.5t-32.5 -48.5q-31 -41 -67 -78t-73 -74q10 2 19.5 3t19.5 5q23 4 43.5 6t42.5 2q16 0 33.5 -5t17.5 -25q0 -23 -22.5 -54.5t-53 -64.5t-60 -58.5t-44.5 -35.5q-123 -92 -250 -92q-18 0 -26 2l-17 -215q0 -10 -10 -11q-10 0 -10 11l16 217q-100 12 -204 88 q-14 10 -44 35.5t-61 58.5t-53.5 64.5t-22.5 54.5q0 20 17.5 25t33.5 5q23 0 43.5 -2t43.5 -6q10 -4 19 -5t19 -3q-37 37 -71.5 74t-67.5 78q-27 35 -33 49t-6 22zM57 535q23 -43 62 -85t86 -77t98 -58.5t96 -29.5l4 30l-194 123q-6 4 -6 8q0 10 10 11q4 0 6 -2l184 -117 l15 184l-131 103q-4 4 -4 8q0 10 10 10q2 0 3 -1t3 -1l121 -94l14 203q4 10 12 10t9 -10l-15 -201l138 78q4 0 10 -1.5t6 -9.5q0 -4 -6 -8l-150 -84l-14 -192l194 90q14 0 15 -10q0 -8 -6 -9l-205 -96l-2 -26h24q53 0 110.5 22.5t110 58t96.5 80.5t68 93q-25 0 -48 -3.5 t-48 -7.5q-16 -4 -33.5 -6t-29.5 -6q-14 -4 -29 -6q-25 0 -25 20q0 8 7 15q53 53 106 108.5t98 114.5q-18 -4 -48.5 -13.5t-67.5 -21.5t-78 -26.5t-82 -28.5q-10 0 -17.5 3t-9.5 13q0 16 -10 66.5t-23.5 109t-26.5 111.5t-20 74q-8 -18 -18 -59.5t-27 -117.5 q-8 -35 -14 -67.5t-12 -58.5q-6 -31 -11 -58q-2 -10 -9 -13t-17 -3q-39 14 -81 28.5t-79 26.5t-67.5 21.5t-49.5 13.5q8 -10 40 -47t68 -76t65.5 -69.5t33.5 -30.5q6 -6 6 -15q0 -20 -26 -20q-45 10 -93.5 19.5t-95.5 9.5z" />
<glyph unicode="]" d="M2 -291q0 41 41 41q63 -12 133.5 -24.5t136.5 -12.5q72 0 97.5 12.5t29.5 18.5q10 12 14.5 51t7.5 84t3 86v60q0 281 -19.5 559t-44.5 559l-346 22q-16 2 -28.5 14.5t-10.5 28.5q2 18 14.5 29.5t28.5 9.5l381 -26q16 0 26.5 -10.5t12.5 -26.5q29 -289 48.5 -579 t19.5 -580v-73t-4 -95.5t-12.5 -94.5t-24.5 -65q-45 -66 -193 -66q-72 0 -142.5 10.5t-137.5 28.5q-31 6 -31 39z" />
<glyph unicode="^" horiz-adv-x="561" d="M20.5 854.5q-6.5 15.5 2.5 32.5l30 71q29 76 58.5 150t66.5 145q16 31 30 43.5t32 12.5q23 0 52.5 -31t62 -78t65.5 -103.5t59.5 -109.5t45 -95t20.5 -61q0 -16 -13.5 -28t-29.5 -12q-35 0 -39 32q-4 25 -32 79t-61.5 114.5t-68.5 114t-53 77.5q-8 -14 -17.5 -35.5 t-25.5 -56.5q-20 -47 -40 -97t-36 -89l-31 -78q-14 -25 -41 -25q-6 0 -14 4q-16 8 -22.5 23.5z" />
<glyph unicode="_" horiz-adv-x="1030" d="M37 -227q2 16 14 27.5t29 9.5q76 -8 168 -10.5t188 -2.5t186.5 2t161 4t113.5 5l43 2h4q23 0 36 -13.5t13 -29.5q0 -12 -8 -22.5t-29 -14.5q-6 -2 -42.5 -4t-96 -3.5t-134.5 -2.5t-155 -1h-136t-128.5 1t-108.5 3.5t-79 4.5q-16 2 -28.5 15t-10.5 30z" />
<glyph unicode="`" horiz-adv-x="200" d="M12 793q0 16 11.5 28.5t27.5 12.5q27 0 37 -23q12 -23 27.5 -44.5t29 -38.5t23.5 -28l10 -12q10 -14 10 -24q0 -16 -11 -29.5t-30 -13.5q-18 0 -30 14q-8 10 -26.5 30.5t-35 45t-30 47.5t-13.5 35z" />
<glyph unicode="a" horiz-adv-x="577" d="M23 168q0 59 28.5 140t76.5 152.5t110.5 122t130.5 50.5q63 0 99 -38t52.5 -93.5t20.5 -116.5t4 -106q0 -59 -3 -125t-7 -136q-4 -38 -43 -38q-16 2 -28.5 14t-10.5 29l6 116q-25 -23 -57.5 -47t-68.5 -44.5t-73 -34t-70 -13.5q-82 0 -124.5 44t-42.5 124zM104 168 q0 -47 19.5 -66.5t66.5 -19.5q33 0 73 19.5t78 48t70.5 61.5t49.5 59v6q0 27 -1 64t-5 74t-14.5 68.5t-26.5 49.5q-18 18 -45 19q-49 0 -96.5 -44t-84 -105.5t-60.5 -126t-24 -107.5z" />
<glyph unicode="b" horiz-adv-x="532" d="M37 1155v121q0 23 6 41t35 18q23 0 32 -15t9 -36v-79.5t1 -143.5t2 -186.5t3 -210.5q27 6 50.5 8t39.5 2q74 0 132.5 -40t98 -100.5t61 -132t21.5 -137.5q0 -41 -9 -81t-29.5 -70.5t-54.5 -50t-81 -19.5q-59 0 -114.5 30.5t-96.5 71.5q2 -29 4.5 -53t4.5 -47 q0 -18 -10.5 -31.5t-30.5 -13.5q-16 0 -26.5 10t-14.5 27q-8 72 -13.5 181.5t-9.5 235.5t-6 257t-3 244.5t-1 199.5zM127 578q2 -78 3 -153t5 -142q4 -4 4 -7q14 -25 39 -51t53.5 -48.5t60.5 -37t62 -14.5q29 0 46.5 13.5t27.5 34t14 45t4 46.5q0 47 -15 104.5t-44 106.5 t-73 83t-99 34q-16 0 -39.5 -2t-48.5 -12z" />
<glyph unicode="c" horiz-adv-x="536" d="M27 270q0 59 17 122t51 115t85 85t119 33q76 0 119 -49t43 -121q0 -16 -12.5 -28.5t-28.5 -12.5t-28.5 12t-12.5 29q0 39 -19.5 63.5t-60.5 24.5q-49 0 -85 -27t-59.5 -67.5t-34.5 -89t-11 -89.5q0 -31 7 -64.5t22.5 -61t41 -45t64.5 -17.5q45 0 81.5 19.5t62.5 43 t39 43.5l13 21q12 20 37 20q16 0 28.5 -12t12.5 -29q0 -10 -6 -20q-2 -2 -20.5 -28.5t-52 -57.5t-83 -56.5t-112.5 -25.5q-57 0 -98.5 23.5t-68 61.5t-38.5 87t-12 98z" />
<glyph unicode="d" horiz-adv-x="532" d="M4 264q0 66 21.5 137.5t61.5 132t98.5 100.5t131.5 40q16 0 39 -2t52 -8q2 109 3 211t2 186t1 143.5v79.5t8 35.5t33 15.5q29 0 35 -18.5t6 -40.5v-121t-1 -199.5t-3.5 -244.5t-6.5 -257t-9 -235.5t-13 -181.5q-4 -16 -14.5 -26.5t-26.5 -10.5q-20 0 -30.5 13.5 t-10.5 31.5q2 23 4 47.5t4 52.5q-41 -41 -96 -71.5t-115 -30.5q-47 0 -81 19.5t-54 50t-29.5 70.5t-9.5 81zM86 264q0 -23 4 -47t14.5 -44.5t28 -34t45.5 -13.5q31 0 62.5 14.5t60.5 37t52.5 49t37.5 50.5l6 7q4 68 5 142.5t4 152.5q-25 10 -48.5 12t-40.5 2q-55 0 -99 -34 t-72.5 -83t-44 -106.5t-15.5 -104.5z" />
<glyph unicode="e" horiz-adv-x="538" d="M27 270q0 59 17 122t51 115t85 85t119 33q76 0 119 -49.5t43 -120.5q0 -57 -37 -99.5t-90 -70t-113.5 -43t-107.5 -21.5q10 -55 40.5 -97t90.5 -42q45 0 81.5 19.5t62.5 43t32 33.5l20 31q12 20 37 20q16 0 28.5 -12t12.5 -29q0 -10 -6 -20q-2 -2 -20.5 -28.5t-52 -57.5 t-83 -56.5t-112.5 -25.5q-57 0 -98.5 23.5t-68 61.5t-38.5 87t-12 98zM111 303q37 6 84 18.5t88 31t68.5 44t27.5 58.5q0 39 -19.5 63.5t-60.5 24.5q-45 0 -79 -22.5t-57.5 -58.5t-35.5 -78t-16 -81z" />
<glyph unicode="f" horiz-adv-x="407" d="M18 414q0 33 33 41l10 2q-2 37 -3 73.5t-1 75.5q0 49 2 118t12.5 145.5t30 152.5t53 135.5t85 97t122.5 37.5q16 0 28.5 -12t12.5 -29q0 -16 -12.5 -28.5t-28.5 -12.5q-53 0 -91 -35.5t-62.5 -91t-38.5 -125t-21.5 -136t-8.5 -125t-1 -91.5q0 -35 1 -67.5t3 -65.5l160 33 q18 0 33.5 -9.5t15.5 -31.5q0 -14 -9 -25.5t-26 -15.5l-170 -35q4 -72 9.5 -133t11.5 -107.5t10 -74.5l4 -27q0 -18 -9 -32.5t-32 -14.5q-35 0 -41 35l-4 27q-4 26 -9 72t-11 107.5t-10 131.5q-18 0 -33 9t-15 32z" />
<glyph unicode="g" horiz-adv-x="536" d="M20 301q0 49 12.5 100.5t39 94.5t65.5 74.5t92 43.5q-12 4 -20 14.5t-6 24.5q0 27 17.5 33t37.5 6q29 0 77 4t71 19q4 35 40 35q16 0 28.5 -12.5t12.5 -28.5q0 -29 -18 -47.5t-44 -28.5t-54.5 -14.5t-51.5 -6.5q47 -12 81 -40.5t56.5 -67.5t33 -84t10.5 -88 q0 -57 -16.5 -112.5t-48.5 -97.5t-80 -67.5t-111 -25.5h-27q-2 -10 -3 -18.5t-1 -16.5q0 -10 4 -23q10 -20 37 -32.5t61 -22.5q41 -14 76 -30.5t60.5 -40t41 -56.5t15.5 -82q0 -51 -18.5 -92t-50 -68.5t-73.5 -43t-92 -15.5q-37 0 -74.5 10t-68.5 30.5t-50.5 52.5t-19.5 73 q0 12 4.5 32.5t11.5 39t19.5 32t28.5 13.5t28.5 -12.5t12.5 -28.5q0 -8 -4 -21q-18 -31 -19 -55q0 -23 14.5 -39t34 -26.5t43 -14.5t41.5 -4q63 0 106.5 35t43.5 102q0 59 -36 84t-101 47q-31 10 -58.5 22.5t-50 30t-36 42t-13.5 61.5q0 31 8 61q-63 37 -91 105.5t-28 140.5 zM102 301q0 -33 8.5 -66.5t25 -61.5t43 -45t65.5 -17q45 0 77.5 19.5t54 51t32 70.5t10.5 78q0 37 -9.5 73.5t-26.5 65.5t-42.5 47.5t-60.5 20.5q-45 0 -79 -21.5t-55.5 -56.5t-32 -76t-10.5 -82z" />
<glyph unicode="h" horiz-adv-x="555" d="M37 940q0 111 2 196t6 121q4 16 14.5 26.5t26.5 10.5q23 0 32 -14t9 -33q-4 -31 -6 -111.5t-2 -197.5q0 -147 3 -295.5t7 -296.5q12 39 30.5 89t46 94t64.5 75t86 31q63 0 101.5 -42t59 -101.5t26.5 -124t6 -109.5q0 -117 -23 -225q-4 -16 -15 -24.5t-26 -8.5 q-16 0 -28.5 12.5t-12.5 28.5q0 6 2 8q10 47 15.5 101.5t5.5 107.5q0 25 -3 74t-14.5 98t-34 86t-59.5 37q-31 0 -57.5 -30.5t-49 -80t-41 -109t-30.5 -116.5t-21.5 -105.5t-12.5 -72.5q-2 -16 -12.5 -26.5t-27.5 -10.5q-12 0 -26 10q-10 10 -13.5 24.5t-7.5 53.5 q-14 213 -17 425t-3 425z" />
<glyph unicode="i" horiz-adv-x="145" d="M27 346q0 100 4 170t4 76q2 16 15 27.5t30 9.5q16 -2 27.5 -15.5t9.5 -29.5q-2 -31 -4 -70q-2 -33 -3 -76t-1 -94q0 -70 3 -146.5t13 -150.5q0 -18 -9.5 -32.5t-31.5 -14.5q-35 0 -41 37q-10 78 -13 157.5t-3 151.5zM39 748q0 16 12 28t29 12q16 0 28.5 -12t12.5 -28 t-12.5 -28.5t-28.5 -12.5t-28.5 12.5t-12.5 28.5z" />
<glyph unicode="j" horiz-adv-x="149" d="M-104 -471q0 16 12 28.5t29 12.5q6 0 12 8q31 33 49 125t27.5 201.5t12.5 216t3 168.5q0 129 -3 215t-3 88q0 39 39 43q39 0 43 -39l1 -24q1 -25 2 -66t2 -96.5t1 -120.5q0 -129 -5 -260t-24 -260q-4 -31 -13 -78t-26.5 -92t-46 -78t-71.5 -33q-16 0 -28.5 12.5 t-12.5 28.5zM20 748q0 16 12.5 28t28.5 12t28.5 -12t12.5 -28t-12 -28.5t-29 -12.5q-16 0 -28.5 12t-12.5 29z" />
<glyph unicode="k" horiz-adv-x="604" d="M39 666q0 111 1 213t2 183t3 132t2 59q0 16 12.5 27.5t28.5 11.5t28.5 -12t12.5 -29q0 -2 -2 -52t-3 -131t-2 -185.5t-1 -216.5v-127t2 -125q29 4 81 14t102 33.5t88 63.5t38 104q0 18 12.5 29.5t28.5 11.5t28.5 -11.5t12.5 -29.5q0 -98 -61.5 -160.5t-149.5 -95.5 q55 -20 108.5 -50t95.5 -72t67.5 -94.5t25.5 -115.5q0 -16 -12.5 -28.5t-28.5 -12.5t-28.5 12.5t-12.5 28.5q0 66 -41 118t-100.5 89t-128 57.5t-123.5 24.5q2 -86 6 -159t10 -126q0 -18 -10 -31.5t-31 -13.5q-16 0 -27.5 10t-13.5 27q-6 53 -10 123.5t-6 153.5t-3 173.5 t-1 178.5z" />
<glyph unicode="l" horiz-adv-x="157" d="M25 174q0 127 6 252t10 252q6 117 11 232.5t5 232.5q0 39 -1 57.5t-3 26.5q-6 10 -6 24q0 16 12.5 28.5t28.5 12.5t31 -14q10 -10 14 -27.5t6 -56.5q1 -48 1 -95q0 -83 -4 -166q-7 -130 -13 -259q-4 -125 -10.5 -250t-6.5 -250q0 -51 1.5 -74.5t3.5 -31.5q10 -14 10 -27 q0 -16 -12.5 -28.5t-28.5 -12.5q-20 0 -33 14q-6 6 -10 13.5t-7 25t-4 46t-1 75.5z" />
<glyph unicode="m" horiz-adv-x="847" d="M39 440q0 61 2 110.5t6 84.5q6 35 41 35q20 0 30.5 -13.5t10.5 -31.5q-4 -35 -6 -82t-2 -101v-61.5t2 -61.5q12 41 30.5 94.5t47 101.5t67.5 82t90 34q70 0 123 -84q68 84 144 84q66 0 103.5 -44t57 -105.5t24.5 -128t5 -113.5q0 -55 -4 -108.5t-8 -94.5 q-2 -16 -13.5 -26.5t-29.5 -10.5q-16 2 -27.5 15.5t-9.5 29.5q4 53 7 101.5t3 93.5q0 25 -2 77t-13 103t-32.5 90t-60.5 39q-47 0 -103 -84q35 -88 35 -172q0 -25 -5 -50.5t-17.5 -47t-32 -35t-49.5 -13.5q-47 0 -65.5 34t-18.5 75q0 45 17 103.5t46 111.5q-41 78 -74 78 q-31 0 -57.5 -31t-49 -80t-40.5 -108.5t-30.5 -115.5t-21.5 -104.5t-13 -72.5q-2 -16 -12.5 -25.5t-27.5 -9.5q-14 0 -28 10q-14 14 -21.5 73.5t-11.5 130.5t-5 135.5t-1 88.5zM451 256q0 -18 4 -27q14 2 17 29t3 35q0 26 -6 57q-8 -23 -13 -47t-5 -47z" />
<glyph unicode="n" d="M37 440q0 61 2 110.5t6 84.5q6 37 41 37q23 0 32 -14.5t9 -32.5q-4 -35 -6 -82t-2 -101v-59.5t2 -60.5q12 41 30.5 95t47 102t67.5 82t90 34q63 0 101.5 -42t59 -101.5t26.5 -124t6 -109.5q0 -117 -23 -225q-4 -16 -15 -24.5t-26 -8.5q-16 0 -28.5 12.5t-12.5 28.5 q0 6 2 8q10 47 15.5 101.5t5.5 107.5q0 25 -3 74t-14.5 98t-34 86t-59.5 37q-31 0 -57.5 -30.5t-49 -80t-41 -109t-30.5 -116.5t-21.5 -105.5t-12.5 -72.5q-2 -16 -12.5 -26.5t-27.5 -10.5q-16 0 -28 12q-14 12 -21.5 71.5t-11.5 131.5t-5 136.5t-1 86.5z" />
<glyph unicode="o" horiz-adv-x="532" d="M27 283q0 57 16 115.5t48 106.5t81 77.5t115 29.5q55 0 96 -26.5t68.5 -69.5t41 -96t13.5 -107q0 -57 -15.5 -113.5t-48 -101.5t-79.5 -71.5t-113 -26.5q-57 0 -100.5 25.5t-70 65.5t-39.5 90t-13 102zM109 283q0 -37 8 -74t25.5 -64.5t44 -45t63.5 -17.5q47 0 79.5 21.5 t53 54t31 74.5t10.5 81t-9 78t-26.5 70t-43 50t-60.5 19q-47 0 -80 -23.5t-54.5 -60t-31.5 -79.5t-10 -84z" />
<glyph unicode="p" horiz-adv-x="528" d="M39 111q0 98 1 190t2 163t2 117t1 52q2 16 14.5 28.5t28.5 10.5q23 0 31 -14.5t8 -34.5q27 6 48.5 8t37.5 2q74 0 132 -40t98 -100.5t60.5 -132t20.5 -137.5q0 -41 -9 -81t-29.5 -70.5t-53.5 -50t-80 -19.5q-66 0 -126 37t-105 84v-12q0 -80 1 -162t3 -158t5 -142.5 t9 -115.5q2 -2 2 -4q0 -16 -12 -28.5t-29 -12.5q-16 0 -27.5 10t-13.5 27q-6 51 -10 118.5t-6 144.5t-3 159t-1 164zM121 252q10 -6 16 -16q14 -25 38 -51.5t53.5 -49t61.5 -37t62 -14.5q29 0 46.5 13.5t26.5 34t13 45t4 46.5q0 47 -15 104.5t-44 106.5t-72 83t-98 34 q-18 0 -39.5 -2t-48.5 -10q0 -53 -1 -127t-3 -160z" />
<glyph unicode="q" horiz-adv-x="528" d="M4 223q0 66 21.5 137.5t61.5 132t98.5 100.5t131.5 40q16 0 38 -2t46 -8v8q0 16 11.5 28.5t27.5 12.5q16 2 29.5 -10.5t13.5 -28.5q0 -6 1 -52t2 -117t2 -163t1 -190q0 -82 -1 -164t-3 -159t-5 -144.5t-9 -118.5q-6 -37 -41 -37q-20 0 -30.5 13.5t-10.5 31.5 q6 49 9 115.5t5.5 142.5t3.5 158t1 162v12q-43 -47 -103.5 -84t-126.5 -37q-47 0 -81 19.5t-54 50t-29.5 70.5t-9.5 81zM86 223q0 -23 4 -47t14.5 -44.5t28 -34t45.5 -13.5q31 0 62.5 14.5t60.5 37t52.5 49t37.5 51.5q7 10 17 16q-2 86 -2 159.5t-3 127.5q-25 8 -47 10 t-39 2q-55 0 -99 -34t-72.5 -83t-44 -106.5t-15.5 -104.5z" />
<glyph unicode="r" horiz-adv-x="546" d="M37 438q0 61 2 110.5t6 84.5q6 37 41 37q23 0 32 -14.5t9 -32.5q-4 -35 -6 -82t-2 -101v-59.5t2 -61.5q12 41 30.5 95.5t47 102.5t67.5 82t90 34q47 0 82 -26.5t57.5 -66.5t35 -86t12.5 -83q0 -16 -12.5 -28.5t-28.5 -12.5t-27.5 9t-13.5 26q-2 20 -9.5 52t-18.5 61.5 t-29.5 51t-47.5 21.5q-31 0 -57.5 -31t-49 -80t-41 -108.5t-30.5 -116.5t-21.5 -105.5t-12.5 -72.5q-2 -16 -12.5 -26.5t-27.5 -10.5q-16 0 -28 12q-14 12 -21.5 71.5t-11.5 131.5t-5 136.5t-1 86.5z" />
<glyph unicode="s" horiz-adv-x="481" d="M27 442q0 82 48 137.5t134 55.5q94 0 162.5 -63.5t89.5 -153.5q0 -20 -9.5 -34.5t-31.5 -14.5q-33 0 -39 30q-16 74 -67.5 114t-104.5 40q-51 0 -75.5 -32t-24.5 -79q0 -59 37.5 -88.5t105.5 -58.5q25 -12 51.5 -24.5t48 -31t34.5 -42t13 -56.5q0 -37 -13 -64.5 t-37.5 -44t-55.5 -24.5t-64 -8q-14 0 -41.5 3t-54.5 12.5t-46 23.5t-19 35q0 16 12 28.5t29 12.5q14 0 24 -9q14 -10 41 -17t55 -7q31 0 60.5 11t27.5 48q0 23 -23.5 39.5t-74.5 38.5q-31 12 -64.5 29.5t-62.5 43t-47 62.5t-18 88z" />
<glyph unicode="t" horiz-adv-x="276" d="M-31 932q0 31 33 39l104 20q6 111 11.5 181.5t5.5 80.5q4 39 43 39q16 -2 28.5 -15t10.5 -30q0 -2 -4 -68.5t-11 -172.5l80 16q20 0 34.5 -9t14.5 -32q0 -14 -9 -25.5t-23 -13.5l-101 -20q-8 -141 -14 -306t-6 -311q0 -78 3 -144.5t7 -115.5q0 -18 -10 -31.5t-31 -13.5 q-16 0 -27.5 10t-13.5 27q-4 51 -7 120.5t-3 151.5q0 141 5 300t13 298l-84 -16q-20 0 -34.5 9t-14.5 32z" />
<glyph unicode="u" d="M31 377q0 117 22 225q8 33 41 33q16 0 28.5 -12.5t12.5 -28.5q0 -6 -2 -8q-10 -47 -15 -101.5t-5 -107.5q0 -25 3 -74t14 -98t32.5 -86t58.5 -37q31 0 58.5 30.5t50 80t40 108.5t31 116.5t22.5 105.5t11 73q2 16 13.5 26.5t25.5 10.5q18 0 31 -12q14 -12 21 -72 t11.5 -131.5t5.5 -136t1 -86.5q0 -61 -2 -111.5t-6 -85.5q-6 -35 -41 -35q-23 0 -32 14.5t-9 32.5q4 35 6 81t2 99v61.5t-2 61.5q-12 -41 -30.5 -95t-47.5 -102t-68 -82t-92 -34q-63 0 -100 42t-57.5 101.5t-26.5 124t-6 109.5z" />
<glyph unicode="v" horiz-adv-x="522" d="M29 498q0 29 3 54.5t7 49.5q8 33 39 33q23 0 32 -15.5t9 -35.5q-4 -18 -6 -41t-2 -47q0 -41 7 -90.5t19.5 -98.5t29.5 -95t40 -83q18 -29 28.5 -38t12.5 -9q18 2 37.5 36t38 85t34 112.5t28.5 119t21.5 101.5t10.5 62q4 14 14 24.5t27 10.5q16 0 28.5 -12.5t12.5 -28.5 q0 -25 -6.5 -64t-15.5 -80.5t-19 -80.5t-17 -62q-8 -31 -23.5 -83t-40 -101t-56 -85t-74.5 -36q-45 0 -86 51q-27 33 -51.5 84t-43 110.5t-28.5 125t-10 127.5z" />
<glyph unicode="w" horiz-adv-x="823" d="M33 457q0 39 3 75.5t11 69.5t39 33q23 0 32 -15.5t9 -35.5q-12 -55 -12 -125q0 -27 7 -89.5t23.5 -126t43 -112.5t67.5 -49q25 0 52.5 25.5t51.5 70.5q-23 47 -42 106.5t-19 110.5q0 47 21.5 82t72.5 35q59 0 83 -44t24 -95q0 -43 -12.5 -94.5t-34.5 -100.5 q33 -53 56 -74.5t32 -21.5q31 0 54 31.5t41.5 80t32 108.5t22.5 116.5t13.5 103.5t6.5 72q4 39 43 39q39 -4 39 -43q-2 -37 -8.5 -95.5t-17.5 -124t-29.5 -132t-45 -118.5t-64.5 -86t-87 -34q-39 0 -73 30.5t-60 67.5q-70 -98 -152 -98q-68 0 -111 53t-67.5 127t-34.5 152 t-10 125zM381 395q0 -43 22 -110q6 23 10.5 45t4.5 43q0 10 -4 33.5t-21 23.5h-4l-2 -2t-4 -9.5t-2 -23.5z" />
<glyph unicode="x" horiz-adv-x="503" d="M-4 39q0 16 10 27q2 2 54.5 62t123.5 148q-8 12 -34.5 58.5t-56.5 98.5t-53.5 97t-23.5 58q0 16 12.5 28.5t28.5 12.5q27 0 37 -23l12 -22q11 -23 30.5 -59t46 -83t57.5 -98q53 66 101 135.5t81 128.5q14 20 35 21q16 0 28.5 -12.5t12.5 -28.5t-29 -61.5t-65.5 -97.5 t-71.5 -97t-47 -62q47 -74 98 -138t98 -99q16 -10 17 -33q0 -16 -12.5 -28.5t-28.5 -12.5q-20 0 -54 32t-68 73.5t-62.5 81.5t-41.5 57q-66 -78 -112.5 -132.5t-50.5 -58.5q-12 -14 -31 -14q-16 0 -28.5 12.5t-12.5 28.5z" />
<glyph unicode="y" horiz-adv-x="536" d="M18 383q0 117 23 225q8 33 41 33q16 0 28.5 -12.5t12.5 -28.5q0 -6 -2 -10q-10 -47 -15.5 -100.5t-5.5 -106.5q0 -25 3 -74t14.5 -98t33 -86t58.5 -37q31 0 58.5 31t50 80t40 108.5t30.5 116.5t21.5 105.5t12.5 72.5q2 16 13 26.5t28 10.5q18 0 31 -16q4 -4 6 -9.5 t5 -19.5t4 -41t1 -74q0 -59 -3 -155.5t-14.5 -206t-31 -222t-53 -202.5t-83 -147.5t-116.5 -57.5q-16 0 -28.5 12.5t-12.5 28.5t12.5 28.5t28.5 12.5q39 0 68.5 41t52 105.5t38 143.5t27 152.5t16.5 133t7 85.5q-12 -35 -30.5 -73.5t-44.5 -72.5t-58.5 -56.5t-75.5 -22.5 q-63 0 -100 42t-57.5 100.5t-27 124t-6.5 110.5z" />
<glyph unicode="z" horiz-adv-x="577" d="M35 80q0 12 10 37.5t57 91.5q61 90 129 174t138 170q-10 -2 -37 -2h-19q-29 0 -67.5 1t-76.5 5t-70.5 12.5t-47.5 22.5q-16 16 -16 37q0 16 12 28.5t29 12.5q25 0 35 -21q33 -10 82 -13t94 -3h45q51 0 87 2t38 2q27 0 37 -25q6 -6 6 -16q0 -16 -11 -27l-16 -19 q-16 -20 -41.5 -50.5t-57.5 -71.5t-67 -84q-94 -119 -133 -175.5t-49 -76.5q12 -4 42 -7t85 -3q66 0 131.5 4t130.5 10q18 0 32.5 -10t14.5 -31q0 -16 -10 -27.5t-27 -13.5q-70 -6 -137.5 -10t-136.5 -4q-51 0 -85 3t-56.5 8t-35 11.5t-18.5 12.5q-20 20 -20 45z" />
<glyph unicode="{" horiz-adv-x="440" d="M27 385q2 35 22.5 61.5t42.5 51.5q18 18 34.5 38.5t25.5 43.5q6 12 6 32q0 14 -5.5 34t-19.5 46q-39 66 -61.5 137.5t-22.5 147.5q0 61 17.5 115.5t51.5 94.5t83 63.5t112 23.5h24.5t24.5 -4q16 -2 25.5 -13.5t9.5 -25.5q0 -23 -14 -32t-33 -9q-10 2 -18 2h-19 q-94 0 -138 -64.5t-44 -150.5q0 -66 19.5 -127.5t52.5 -116.5q37 -63 37 -121q0 -53 -27 -93t-61 -79q-16 -16 -28.5 -31.5t-14.5 -25.5q2 -2 5 -6t13 -15q10 -8 22.5 -16t24.5 -16q41 -29 60.5 -54.5t19.5 -78.5q0 -27 -10 -68q-10 -39 -27.5 -78t-34.5 -78 q-23 -47 -42 -93t-19 -81q0 -23 10 -35t25.5 -18t34 -7t34.5 -1q47 0 92 9t68 15q20 0 36.5 -5t16.5 -33q0 -25 -26.5 -38.5t-62.5 -19.5t-70.5 -8t-51.5 -2q-35 0 -68.5 7t-60 23.5t-43 44t-16.5 68.5q0 47 20.5 100.5t46.5 110.5q25 49 45.5 98.5t20.5 88.5q0 20 -10 41 q-4 4 -14.5 11t-20.5 13q-35 25 -68.5 53.5t-31.5 69.5z" />
<glyph unicode="|" horiz-adv-x="163" d="M31 -342q4 76 7 221.5t3 321.5q0 117 -1 238.5t-2 236.5t-2 216t-2 177t-2 99l-1 67q0 20 11 36.5t34 16.5q10 0 20 -8t15 -29l1 -46t3 -122.5t3 -180t2 -220.5t2 -241t1 -242v-169t-2 -152t-3 -128t-5 -96q-2 -16 -15.5 -28.5t-29.5 -10.5t-27.5 14.5t-9.5 28.5z" />
<glyph unicode="}" horiz-adv-x="440" d="M2 -276q0 29 17.5 33.5t35.5 4.5q23 -6 68 -15t92 -9q16 0 34.5 1t34 7t25.5 18.5t10 34.5q0 35 -19 81t-42 93t-47.5 108.5t-24.5 115.5q0 53 19.5 78.5t60.5 54.5q37 25 66 53q-2 10 -14.5 25.5t-28.5 31.5q-35 39 -61.5 79t-26.5 93q0 57 37 121q31 55 51 116.5 t20 127.5q0 86 -44 150.5t-138 64.5h-19.5t-19.5 -2q-18 0 -32.5 10t-14.5 31q0 14 10 25.5t27 13.5q12 4 24.5 4h24.5q66 0 115 -23.5t81.5 -64.5t50 -95.5t17.5 -113.5q0 -76 -22.5 -147.5t-61.5 -137.5q-14 -27 -19 -46t-5 -34q0 -16 4 -32q10 -23 26.5 -43.5t34.5 -38.5 q23 -25 43.5 -51.5t22.5 -61.5q2 -41 -32 -69.5t-71 -53.5q-8 -6 -18 -13t-14 -11q-10 -20 -11 -41q0 -39 20.5 -88.5t43.5 -98.5q27 -57 48 -110.5t21 -100.5q0 -41 -16 -68.5t-43 -44t-60.5 -23.5t-68.5 -7q-14 0 -50 2t-71 8t-62.5 19.5t-27.5 38.5z" />
<glyph unicode="&#xa1;" horiz-adv-x="243" d="M17 975q0 20 13 33.5t34 13.5q18 0 31.5 -13.5t13.5 -33.5q0 -18 -13.5 -31.5t-31.5 -13.5q-20 0 -33.5 13t-13.5 32zM35 -256l1 56q1 55 3 144t3 200.5t1 226.5q0 117 -1 221t-7 180q-2 16 9.5 28.5t27.5 14.5t29.5 -10t15.5 -29q2 -31 4 -85t3 -124.5t1 -152.5v-164 q0 -96 -1 -188.5t-3 -164t-3 -117.5t-3 -52q-12 -37 -37 -37q-23 0 -33 16.5t-10 36.5z" />
<glyph unicode="&#xa3;" horiz-adv-x="808" d="M23 580q-2 16 9 29.5t27 15.5l64 6q-4 115 -5 215t-3 160v8q0 61 17.5 119.5t51 102.5t84.5 70.5t121 26.5q43 0 86 -13t78 -39t56.5 -63.5t21.5 -84.5q0 -16 -12.5 -28.5t-28.5 -12.5t-28.5 11t-12.5 27q0 31 -15.5 53.5t-39 38t-51 22.5t-54.5 7q-51 0 -87 -19.5 t-59.5 -52t-34.5 -75.5t-11 -90v-6q2 -59 3 -157.5t5 -213.5l348 31q16 2 28.5 -9.5t14.5 -27.5t-9.5 -29.5t-27.5 -15.5l-354 -31q2 -72 3 -142.5t2 -132t2 -110.5t1 -78q29 -4 74 -6t98 -2q31 0 80 2t100 9t94 20.5t64 36.5q14 14 31 14q16 0 28.5 -12.5t12.5 -28.5 q0 -14 -11 -29q-31 -33 -81 -51t-106 -27.5t-112.5 -12.5t-99.5 -3q-88 0 -149.5 5t-65.5 5q-16 2 -26.5 13.5t-10.5 27.5q0 2 -1 45t-2 112t-3 157t-4 180l-55 -4q-18 0 -30.5 10t-14.5 27z" />
<glyph unicode="&#xa8;" horiz-adv-x="303" d="M35 659q0 20 13 34t32 14q20 0 33.5 -13.5t13.5 -34.5q0 -18 -13.5 -31.5t-33.5 -13.5q-18 0 -31.5 13.5t-13.5 31.5zM178 659q0 20 13.5 34t31.5 14q20 0 33.5 -13.5t13.5 -34.5q0 -18 -13 -31.5t-34 -13.5q-18 0 -31.5 13.5t-13.5 31.5z" />
<glyph unicode="&#xad;" horiz-adv-x="575" d="M35 489q2 16 14 27.5t29 9.5q152 -12 239 -12q92 0 130 6t40 6h5q23 0 36 -13t13 -30q0 -12 -8.5 -22t-28.5 -15q-10 -4 -59.5 -7t-116.5 -3q-59 0 -126 2t-128 6q-16 2 -28.5 15.5t-10.5 29.5z" />
<glyph unicode="&#xb4;" horiz-adv-x="202" d="M12 664q0 10 11 24l10 12q10 11 23.5 28t28.5 38.5t28 44.5q10 23 37 23q16 0 27 -12.5t11 -28.5q0 -12 -13 -35t-29.5 -47.5t-34 -45t-27.5 -30.5q-13 -14 -31 -14t-29.5 13t-11.5 30z" />
<glyph unicode="&#xb8;" horiz-adv-x="313" d="M31 -334q0 29 26 39q4 0 6.5 1t6.5 1q31 0 41 -29q8 -27 36 -26q4 0 6.5 1t4.5 1q23 4 42 24.5t19 65.5q0 63 -63 94q-12 6 -24.5 10.5t-22.5 8.5q-12 2 -23 4q-16 2 -26.5 13t-10.5 28v118q0 16 12.5 28.5t28.5 12.5t28.5 -12t12.5 -29v-86q72 -16 121 -64t49 -126 q0 -61 -32.5 -111.5t-98.5 -60.5q-4 0 -10 -1t-13 -1q-18 0 -38.5 7t-38 20.5t-28.5 31t-11 37.5z" />
<glyph unicode="&#xbf;" horiz-adv-x="489" d="M49 -10q0 92 19.5 200.5t56.5 239.5q18 66 38.5 123t36 99t26.5 67.5t11 27.5q10 25 37 25q8 0 16 -4q25 -10 25 -37q0 -12 -2 -16q0 -2 -14.5 -35t-34 -88t-43 -128t-44 -153t-33.5 -161.5t-13 -157.5q0 -20 3 -57t11 -73t24.5 -62.5t43.5 -26.5q49 0 83.5 46 t57.5 108.5t33 127t10 101.5q0 16 12.5 28.5t28.5 12.5t28.5 -12.5t12.5 -28.5q0 -90 -19.5 -172t-56.5 -148q-14 -25 -33.5 -50.5t-44 -47t-52.5 -34.5t-58 -13q-53 0 -86 31.5t-50.5 77.5t-23.5 98.5t-6 91.5zM235 977q0 20 13.5 33.5t33.5 13.5q18 0 31.5 -13.5 t13.5 -33.5q0 -18 -13 -31.5t-32 -13.5q-20 0 -33.5 13t-13.5 32z" />
<glyph unicode="&#xc0;" horiz-adv-x="974" d="M23 41q0 10 2 14q18 47 32.5 116t24.5 151q-29 10 -29 40q4 35 39 39q8 78 17.5 162t20.5 169t26.5 167t33.5 156q12 41 30 89t44.5 89t65.5 68.5t90 27.5q96 0 165.5 -77.5t120 -199.5t83 -271.5t51 -292t26.5 -262.5t13 -183q2 -16 -10.5 -28.5t-28.5 -14.5t-28.5 10.5 t-14.5 28.5q-2 41 -6.5 108.5t-14.5 151.5l-612 18q-12 -88 -26.5 -162.5t-35.5 -127.5q-10 -27 -39 -27q-16 0 -28 12.5t-12 28.5zM174 399l594 -18q-6 49 -17.5 132t-30 179t-46 195.5t-64.5 179.5t-84 130t-106 50q-90 0 -150 -215q-29 -106 -47 -239.5t-35 -270.5 q-4 -31 -7 -61.5t-7 -61.5zM286 1549q0 16 11.5 28.5t27.5 12.5q27 0 37 -23q12 -23 27.5 -44.5t29 -38.5t23.5 -28l10 -12q10 -14 10 -24q0 -16 -11 -29.5t-30 -13.5q-18 0 -30 14q-8 10 -26.5 30.5t-35 45t-30 47.5t-13.5 35z" />
<glyph unicode="&#xc1;" horiz-adv-x="974" d="M23 41q0 10 2 14q18 47 32.5 116t24.5 151q-29 10 -29 40q4 35 39 39q8 78 17.5 162t20.5 169t26.5 167t33.5 156q12 41 30 89t44.5 89t65.5 68.5t90 27.5q96 0 165.5 -77.5t120 -199.5t83 -271.5t51 -292t26.5 -262.5t13 -183q2 -16 -10.5 -28.5t-28.5 -14.5t-28.5 10.5 t-14.5 28.5q-2 41 -6.5 108.5t-14.5 151.5l-612 18q-12 -88 -26.5 -162.5t-35.5 -127.5q-10 -27 -39 -27q-16 0 -28 12.5t-12 28.5zM174 399l594 -18q-6 49 -17.5 132t-30 179t-46 195.5t-64.5 179.5t-84 130t-106 50q-90 0 -150 -215q-29 -106 -47 -239.5t-35 -270.5 q-4 -31 -7 -61.5t-7 -61.5zM377 1420q0 10 11 24l10 12q10 11 23.5 28t28.5 38.5t28 44.5q10 23 37 23q16 0 27 -12.5t11 -28.5q0 -12 -13 -35t-29.5 -47.5t-34 -45t-27.5 -30.5q-13 -14 -31 -14t-29.5 13t-11.5 30z" />
<glyph unicode="&#xc2;" horiz-adv-x="974" d="M23 41q0 10 2 14q18 47 32.5 116t24.5 151q-29 10 -29 40q4 35 39 39q8 78 17.5 162t20.5 169t26.5 167t33.5 156q12 41 30 89t44.5 89t65.5 68.5t90 27.5q96 0 165.5 -77.5t120 -199.5t83 -271.5t51 -292t26.5 -262.5t13 -183q2 -16 -10.5 -28.5t-28.5 -14.5t-28.5 10.5 t-14.5 28.5q-2 41 -6.5 108.5t-14.5 151.5l-612 18q-12 -88 -26.5 -162.5t-35.5 -127.5q-10 -27 -39 -27q-16 0 -28 12.5t-12 28.5zM174 399l594 -18q-6 49 -17.5 132t-30 179t-46 195.5t-64.5 179.5t-84 130t-106 50q-90 0 -150 -215q-29 -106 -47 -239.5t-35 -270.5 q-4 -31 -7 -61.5t-7 -61.5zM263.5 1405.5q-5.5 15.5 3.5 32.5q45 96 74.5 139t64.5 43q43 0 92 -74q14 -23 28.5 -49.5t30.5 -58.5q8 -16 2 -32t-22 -24q-12 -4 -19 -4q-25 0 -34 23q-29 59 -47.5 89t-28.5 40q-4 -6 -9 -14.5t-12 -20.5q-12 -20 -24 -45t-23 -49 q-12 -23 -37 -23q-6 0 -18 4q-16 8 -21.5 23.5z" />
<glyph unicode="&#xc3;" horiz-adv-x="974" d="M23 41q0 10 2 14q18 47 32.5 116t24.5 151q-29 10 -29 40q4 35 39 39q8 78 17.5 162t20.5 169t26.5 167t33.5 156q12 41 30 89t44.5 89t65.5 68.5t90 27.5q96 0 165.5 -77.5t120 -199.5t83 -271.5t51 -292t26.5 -262.5t13 -183q2 -16 -10.5 -28.5t-28.5 -14.5t-28.5 10.5 t-14.5 28.5q-2 41 -6.5 108.5t-14.5 151.5l-612 18q-12 -88 -26.5 -162.5t-35.5 -127.5q-10 -27 -39 -27q-16 0 -28 12.5t-12 28.5zM174 399l594 -18q-6 49 -17.5 132t-30 179t-46 195.5t-64.5 179.5t-84 130t-106 50q-90 0 -150 -215q-29 -106 -47 -239.5t-35 -270.5 q-4 -31 -7 -61.5t-7 -61.5zM267 1411q0 27 9 41.5t19 22.5q20 14 45 14q18 0 39 -6t41 -12q12 -4 30.5 -9.5t29.5 -5.5v5q0 16 12 28t29 12q16 0 28.5 -12t12.5 -28q0 -37 -21.5 -62t-58.5 -25q-20 0 -41 6.5t-43 12.5l-49 12q-2 -16 -13.5 -25.5t-27.5 -9.5t-28.5 12.5 t-12.5 28.5z" />
<glyph unicode="&#xc4;" horiz-adv-x="974" d="M23 41q0 10 2 14q18 47 32.5 116t24.5 151q-29 10 -29 40q4 35 39 39q8 78 17.5 162t20.5 169t26.5 167t33.5 156q12 41 30 89t44.5 89t65.5 68.5t90 27.5q96 0 165.5 -77.5t120 -199.5t83 -271.5t51 -292t26.5 -262.5t13 -183q2 -16 -10.5 -28.5t-28.5 -14.5t-28.5 10.5 t-14.5 28.5q-2 41 -6.5 108.5t-14.5 151.5l-612 18q-12 -88 -26.5 -162.5t-35.5 -127.5q-10 -27 -39 -27q-16 0 -28 12.5t-12 28.5zM174 399l594 -18q-6 49 -17.5 132t-30 179t-46 195.5t-64.5 179.5t-84 130t-106 50q-90 0 -150 -215q-29 -106 -47 -239.5t-35 -270.5 q-4 -31 -7 -61.5t-7 -61.5zM301 1415q0 20 13 34t32 14q20 0 33.5 -13.5t13.5 -34.5q0 -18 -13.5 -31.5t-33.5 -13.5q-18 0 -31.5 13.5t-13.5 31.5zM444 1415q0 20 13.5 34t31.5 14q20 0 33.5 -13.5t13.5 -34.5q0 -18 -13 -31.5t-34 -13.5q-18 0 -31.5 13.5t-13.5 31.5z" />
<glyph unicode="&#xc5;" horiz-adv-x="974" d="M23 41q0 10 2 14q18 47 32.5 116t24.5 151q-29 10 -29 40q4 35 39 39q8 78 17.5 162t20.5 169t26.5 167t33.5 156q12 41 30 89t44.5 89t65.5 68.5t90 27.5q96 0 165.5 -77.5t120 -199.5t83 -271.5t51 -292t26.5 -262.5t13 -183q2 -16 -10.5 -28.5t-28.5 -14.5t-28.5 10.5 t-14.5 28.5q-2 41 -6.5 108.5t-14.5 151.5l-612 18q-12 -88 -26.5 -162.5t-35.5 -127.5q-10 -27 -39 -27q-16 0 -28 12.5t-12 28.5zM174 399l594 -18q-6 49 -17.5 132t-30 179t-46 195.5t-64.5 179.5t-84 130t-106 50q-90 0 -150 -215q-29 -106 -47 -239.5t-35 -270.5 q-4 -31 -7 -61.5t-7 -61.5zM314 1507q0 45 22 84q27 39 68 45q14 10 26 11q51 0 83 -35t32 -88t-31.5 -97.5t-89.5 -44.5q-55 0 -86 43q-25 31 -24 82zM396 1507q0 -18 8 -34q4 -4 7 -6.5t13 -2.5q18 0 28.5 20.5t10.5 39.5q0 23 -7 30t-15 9q-8 -6 -23 -6q-8 0 -15 -14.5 t-7 -35.5z" />
<glyph unicode="&#xc6;" horiz-adv-x="1511" d="M29 41q0 10 2 14q18 47 32.5 116t24.5 151q-29 10 -29 40q4 35 39 39q8 78 17.5 162t20.5 169t26.5 167t34.5 156q12 41 29.5 89t44 89t65.5 68.5t90 27.5q63 0 115.5 -31.5t94.5 -86t74.5 -127t57.5 -156.5q-2 133 -2 226v103q0 16 10 26.5t25 14.5q18 2 67.5 5.5 t114 6.5t137 7t137 6t111.5 4t62 2q16 2 28 -10t12 -29q2 -16 -10 -28.5t-28 -14.5q-51 -2 -132 -5t-167 -7t-164 -7t-121 -7q0 -33 1 -93.5t2 -136.5t2 -163t3 -177l473 45q39 0 43 -37q2 -16 -9 -29.5t-28 -15.5l-477 -45q2 -76 4 -149.5t5 -136t7.5 -113.5t10.5 -82 q10 -4 33.5 -5t68.5 -1q117 0 232.5 7t232.5 17q16 2 28.5 -9t14.5 -27t-9 -28.5t-28 -14.5q-117 -10 -234.5 -18.5t-236.5 -8.5q-29 0 -58.5 1t-58.5 5l-34.5 11.5t-28.5 33.5q-6 31 -11 86.5t-10 126.5q0 10 -1 17.5t-3 17.5l-612 18q-12 -88 -26.5 -162.5t-34.5 -127.5 q-10 -27 -39 -27q-16 0 -28.5 12.5t-12.5 28.5zM180 399l594 -18q-6 49 -17.5 132t-29.5 179t-46 195.5t-64.5 179.5t-84 130t-106.5 50q-91 0 -150 -215q-29 -106 -47 -239.5t-34 -270.5q-4 -31 -7.5 -61.5t-7.5 -61.5z" />
<glyph unicode="&#xc7;" horiz-adv-x="929" d="M18 559q0 109 28 243t88.5 250.5t155.5 195.5t230 79q74 0 124 -26.5t83 -71.5t47 -104.5t14 -127.5q0 -16 -12 -28.5t-28 -12.5t-28.5 12.5t-12.5 28.5q0 49 -8.5 94.5t-30 79t-57.5 54t-91 20.5q-76 0 -137 -33.5t-108.5 -90t-80 -128t-53 -148.5t-31 -152t-10.5 -134 q0 -70 13.5 -152.5t46.5 -154.5t90 -121t145 -49q72 0 139.5 25.5t126 68.5t104.5 100.5t75 120.5q10 23 37 23q16 0 28.5 -12.5t12.5 -28.5q0 -14 -16.5 -44t-38 -60.5t-42 -56t-30.5 -36.5q-76 -80 -170.5 -129t-204.5 -53v-47q72 -16 121 -64.5t49 -126.5q0 -68 -41 -121 t-113 -53q-39 0 -78 28t-39 69q0 16 11.5 28.5t27.5 12.5q31 0 41 -29q8 -27 37 -27q37 0 54.5 29t17.5 63q0 63 -64 95q-12 6 -24.5 10t-22.5 8q-12 2 -22 4q-16 2 -26.5 13.5t-10.5 27.5v86q-90 16 -150.5 73.5t-97.5 137.5t-52.5 170t-15.5 172z" />
<glyph unicode="&#xc8;" horiz-adv-x="819" d="M37 1166v91q0 35 35 41q16 2 65 5.5t113.5 6.5t137.5 7t137.5 6t111.5 4t61 2q16 2 29.5 -10t13.5 -29q0 -39 -39 -43q-51 -2 -132 -5t-167 -7t-163.5 -7t-120.5 -7v-93.5t1 -136.5t2 -163t3 -177l473 45q16 0 29.5 -9t15.5 -28q2 -16 -9 -29.5t-28 -15.5l-479 -45 q2 -76 5 -149.5t6 -136t7.5 -113.5t8.5 -82q10 -4 34.5 -5t69.5 -1q117 0 231.5 7t231.5 17q16 2 29.5 -9t15.5 -27t-9.5 -28.5t-27.5 -14.5q-117 -10 -234.5 -18.5t-236.5 -8.5q-29 0 -59.5 1t-59.5 5q-10 4 -32.5 11.5t-28.5 33.5q-10 47 -17.5 150.5t-11.5 234.5 t-7 271.5t-4 259t-1 199.5zM233 1549q0 16 11.5 28.5t27.5 12.5q27 0 37 -23q12 -23 27.5 -44.5t29 -38.5t23.5 -28l10 -12q10 -14 10 -24q0 -16 -11 -29.5t-30 -13.5q-18 0 -30 14q-8 10 -26.5 30.5t-35 45t-30 47.5t-13.5 35z" />
<glyph unicode="&#xc9;" horiz-adv-x="819" d="M37 1166v91q0 35 35 41q16 2 65 5.5t113.5 6.5t137.5 7t137.5 6t111.5 4t61 2q16 2 29.5 -10t13.5 -29q0 -39 -39 -43q-51 -2 -132 -5t-167 -7t-163.5 -7t-120.5 -7v-93.5t1 -136.5t2 -163t3 -177l473 45q16 0 29.5 -9t15.5 -28q2 -16 -9 -29.5t-28 -15.5l-479 -45 q2 -76 5 -149.5t6 -136t7.5 -113.5t8.5 -82q10 -4 34.5 -5t69.5 -1q117 0 231.5 7t231.5 17q16 2 29.5 -9t15.5 -27t-9.5 -28.5t-27.5 -14.5q-117 -10 -234.5 -18.5t-236.5 -8.5q-29 0 -59.5 1t-59.5 5q-10 4 -32.5 11.5t-28.5 33.5q-10 47 -17.5 150.5t-11.5 234.5 t-7 271.5t-4 259t-1 199.5zM325 1420q0 10 11 24l10 12q10 11 23.5 28t28.5 38.5t28 44.5q10 23 37 23q16 0 27 -12.5t11 -28.5q0 -12 -13 -35t-29.5 -47.5t-34 -45t-27.5 -30.5q-13 -14 -31 -14t-29.5 13t-11.5 30z" />
<glyph unicode="&#xca;" horiz-adv-x="819" d="M37 1166v91q0 35 35 41q16 2 65 5.5t113.5 6.5t137.5 7t137.5 6t111.5 4t61 2q16 2 29.5 -10t13.5 -29q0 -39 -39 -43q-51 -2 -132 -5t-167 -7t-163.5 -7t-120.5 -7v-93.5t1 -136.5t2 -163t3 -177l473 45q16 0 29.5 -9t15.5 -28q2 -16 -9 -29.5t-28 -15.5l-479 -45 q2 -76 5 -149.5t6 -136t7.5 -113.5t8.5 -82q10 -4 34.5 -5t69.5 -1q117 0 231.5 7t231.5 17q16 2 29.5 -9t15.5 -27t-9.5 -28.5t-27.5 -14.5q-117 -10 -234.5 -18.5t-236.5 -8.5q-29 0 -59.5 1t-59.5 5q-10 4 -32.5 11.5t-28.5 33.5q-10 47 -17.5 150.5t-11.5 234.5 t-7 271.5t-4 259t-1 199.5zM209.5 1405.5q-5.5 15.5 3.5 32.5q45 96 74.5 139t64.5 43q43 0 92 -74q14 -23 28.5 -49.5t30.5 -58.5q8 -16 2 -32t-22 -24q-12 -4 -19 -4q-25 0 -34 23q-29 59 -47.5 89t-28.5 40q-4 -6 -9 -14.5t-12 -20.5q-12 -20 -24 -45t-23 -49 q-12 -23 -37 -23q-6 0 -18 4q-16 8 -21.5 23.5z" />
<glyph unicode="&#xcb;" horiz-adv-x="819" d="M37 1166v91q0 35 35 41q16 2 65 5.5t113.5 6.5t137.5 7t137.5 6t111.5 4t61 2q16 2 29.5 -10t13.5 -29q0 -39 -39 -43q-51 -2 -132 -5t-167 -7t-163.5 -7t-120.5 -7v-93.5t1 -136.5t2 -163t3 -177l473 45q16 0 29.5 -9t15.5 -28q2 -16 -9 -29.5t-28 -15.5l-479 -45 q2 -76 5 -149.5t6 -136t7.5 -113.5t8.5 -82q10 -4 34.5 -5t69.5 -1q117 0 231.5 7t231.5 17q16 2 29.5 -9t15.5 -27t-9.5 -28.5t-27.5 -14.5q-117 -10 -234.5 -18.5t-236.5 -8.5q-29 0 -59.5 1t-59.5 5q-10 4 -32.5 11.5t-28.5 33.5q-10 47 -17.5 150.5t-11.5 234.5 t-7 271.5t-4 259t-1 199.5zM248 1415q0 20 13 34t32 14q20 0 33.5 -13.5t13.5 -34.5q0 -18 -13.5 -31.5t-33.5 -13.5q-18 0 -31.5 13.5t-13.5 31.5zM391 1415q0 20 13.5 34t31.5 14q20 0 33.5 -13.5t13.5 -34.5q0 -18 -13 -31.5t-34 -13.5q-18 0 -31.5 13.5t-13.5 31.5z" />
<glyph unicode="&#xcc;" horiz-adv-x="673" d="M12 57q2 18 15.5 27.5t29.5 9.5q49 -6 117 -8t137 -4q-6 43 -10 107.5t-7 141.5t-4 160.5t-1 163.5q0 78 2 167t5 171t7 148.5t10 103.5q-72 0 -143.5 3t-120.5 9q-16 2 -26.5 13.5t-10.5 27.5t12.5 29.5t28.5 11.5q47 -4 115 -8t137 -4q57 0 112.5 1t98.5 3t70 3l26 1 q39 0 43 -39q0 -16 -11 -29.5t-28 -13.5q-6 0 -69.5 -2t-149.5 -4q-6 -20 -10 -75.5t-8 -135.5t-6 -178t-2 -205q0 -100 2 -190t5 -165t7 -130t10 -86h27q80 0 134 1t58 1q16 0 27.5 -12.5t13.5 -28.5q0 -16 -12 -28.5t-29 -12.5q-4 0 -60 -1t-134 -1h-95.5t-99.5 2t-94 4 t-82 6q-16 2 -27.5 15.5t-9.5 29.5zM223 1549q0 16 11.5 28.5t27.5 12.5q27 0 37 -23q12 -23 27.5 -44.5t29 -38.5t23.5 -28l10 -12q10 -14 10 -24q0 -16 -11 -29.5t-30 -13.5q-18 0 -30 14q-8 10 -26.5 30.5t-35 45t-30 47.5t-13.5 35z" />
<glyph unicode="&#xcd;" horiz-adv-x="673" d="M12 57q2 18 15.5 27.5t29.5 9.5q49 -6 117 -8t137 -4q-6 43 -10 107.5t-7 141.5t-4 160.5t-1 163.5q0 78 2 167t5 171t7 148.5t10 103.5q-72 0 -143.5 3t-120.5 9q-16 2 -26.5 13.5t-10.5 27.5t12.5 29.5t28.5 11.5q47 -4 115 -8t137 -4q57 0 112.5 1t98.5 3t70 3l26 1 q39 0 43 -39q0 -16 -11 -29.5t-28 -13.5q-6 0 -69.5 -2t-149.5 -4q-6 -20 -10 -75.5t-8 -135.5t-6 -178t-2 -205q0 -100 2 -190t5 -165t7 -130t10 -86h27q80 0 134 1t58 1q16 0 27.5 -12.5t13.5 -28.5q0 -16 -12 -28.5t-29 -12.5q-4 0 -60 -1t-134 -1h-95.5t-99.5 2t-94 4 t-82 6q-16 2 -27.5 15.5t-9.5 29.5zM313 1420q0 10 11 24l10 12q10 11 23.5 28t28.5 38.5t28 44.5q10 23 37 23q16 0 27 -12.5t11 -28.5q0 -12 -13 -35t-29.5 -47.5t-34 -45t-27.5 -30.5q-13 -14 -31 -14t-29.5 13t-11.5 30z" />
<glyph unicode="&#xce;" horiz-adv-x="673" d="M12 57q2 18 15.5 27.5t29.5 9.5q49 -6 117 -8t137 -4q-6 43 -10 107.5t-7 141.5t-4 160.5t-1 163.5q0 78 2 167t5 171t7 148.5t10 103.5q-72 0 -143.5 3t-120.5 9q-16 2 -26.5 13.5t-10.5 27.5t12.5 29.5t28.5 11.5q47 -4 115 -8t137 -4q57 0 112.5 1t98.5 3t70 3l26 1 q39 0 43 -39q0 -16 -11 -29.5t-28 -13.5q-6 0 -69.5 -2t-149.5 -4q-6 -20 -10 -75.5t-8 -135.5t-6 -178t-2 -205q0 -100 2 -190t5 -165t7 -130t10 -86h27q80 0 134 1t58 1q16 0 27.5 -12.5t13.5 -28.5q0 -16 -12 -28.5t-29 -12.5q-4 0 -60 -1t-134 -1h-95.5t-99.5 2t-94 4 t-82 6q-16 2 -27.5 15.5t-9.5 29.5zM199.5 1405.5q-5.5 15.5 3.5 32.5q45 96 74.5 139t64.5 43q43 0 92 -74q14 -23 28.5 -49.5t30.5 -58.5q8 -16 2 -32t-22 -24q-12 -4 -19 -4q-25 0 -34 23q-29 59 -47.5 89t-28.5 40q-4 -6 -9 -14.5t-12 -20.5q-12 -20 -24 -45t-23 -49 q-12 -23 -37 -23q-6 0 -18 4q-16 8 -21.5 23.5z" />
<glyph unicode="&#xcf;" horiz-adv-x="673" d="M12 57q2 18 15.5 27.5t29.5 9.5q49 -6 117 -8t137 -4q-6 43 -10 107.5t-7 141.5t-4 160.5t-1 163.5q0 78 2 167t5 171t7 148.5t10 103.5q-72 0 -143.5 3t-120.5 9q-16 2 -26.5 13.5t-10.5 27.5t12.5 29.5t28.5 11.5q47 -4 115 -8t137 -4q57 0 112.5 1t98.5 3t70 3l26 1 q39 0 43 -39q0 -16 -11 -29.5t-28 -13.5q-6 0 -69.5 -2t-149.5 -4q-6 -20 -10 -75.5t-8 -135.5t-6 -178t-2 -205q0 -100 2 -190t5 -165t7 -130t10 -86h27q80 0 134 1t58 1q16 0 27.5 -12.5t13.5 -28.5q0 -16 -12 -28.5t-29 -12.5q-4 0 -60 -1t-134 -1h-95.5t-99.5 2t-94 4 t-82 6q-16 2 -27.5 15.5t-9.5 29.5zM238 1415q0 20 13 34t32 14q20 0 33.5 -13.5t13.5 -34.5q0 -18 -13.5 -31.5t-33.5 -13.5q-18 0 -31.5 13.5t-13.5 31.5zM381 1415q0 20 13.5 34t31.5 14q20 0 33.5 -13.5t13.5 -34.5q0 -18 -13 -31.5t-34 -13.5q-18 0 -31.5 13.5 t-13.5 31.5z" />
<glyph unicode="&#xd0;" horiz-adv-x="1095" d="M20 592q2 16 14.5 27.5t28.5 9.5q37 -4 70 -6t62 -5q-4 98 -9.5 192.5t-9.5 190.5q-20 0 -36.5 8.5t-16.5 32.5q0 72 35 125.5t90 88t120.5 53t127.5 18.5q147 0 255.5 -60.5t181.5 -159.5t108.5 -225t35.5 -257q0 -100 -24.5 -211t-78.5 -203t-138 -151.5t-205 -59.5 q-51 0 -105.5 10t-103.5 33t-87 60t-54 90q-2 -63 -6.5 -103.5t-9.5 -64t-11 -34.5t-12 -18q-16 -16 -37 -16q-16 0 -28.5 12.5t-12.5 28.5q0 20 18 35q4 10 9.5 48t7.5 132q2 23 2 46.5v49.5q0 59 -1 115.5t-3 116.5q-35 0 -70 2t-68 4q-16 2 -28.5 15t-10.5 30zM211 1083 q16 0 29.5 -11t13.5 -28q8 -109 13 -214t9 -214h27q92 0 130 6.5t40 6.5h4q23 0 36 -13.5t13 -29.5q0 -12 -8 -22.5t-29 -14.5q-10 -4 -59 -7t-117 -3h-34q2 -57 3 -114.5t1 -115.5v-14q14 10 28 10q16 0 28.5 -11t12.5 -30q0 -51 25.5 -86t65.5 -56.5t89.5 -30.5t98.5 -9 q90 0 157.5 47t113.5 123t69.5 174t23.5 199q0 115 -29.5 226.5t-91 198.5t-155.5 141t-223 54q-39 0 -84 -9t-86 -29.5t-73 -51.5t-42 -72z" />
<glyph unicode="&#xd1;" horiz-adv-x="1069" d="M39 813v178t1 148.5t1 105.5v47q0 16 12.5 28.5t28.5 12.5q33 1 39 -30q2 -4 4 -10.5t4 -16.5q14 -49 46 -157.5t76 -241t98 -272.5t114.5 -256t123 -190.5t124.5 -74.5q6 0 15 2t19 12q31 33 48.5 108t25.5 162t10 172t2 136q0 74 -1 145.5t-3 136.5q-2 61 -3 109.5 t-1 85.5q0 84 6.5 119t20.5 49t35 14q16 0 28.5 -11t12.5 -30q0 -18 -15 -28q-2 -8 -3 -30t-3 -65v-20q0 -41 1 -88t3 -102q2 -66 3 -138.5t1 -146.5q0 -61 -2 -152.5t-12 -184.5t-32.5 -174t-63.5 -124q-37 -39 -92 -39q-121 0 -242 178q-55 84 -105.5 187.5t-94.5 214 t-80.5 221t-67.5 207.5v-193q0 -104 1 -216t2 -216t4 -192.5t7 -147.5q2 -18 -9 -30.5t-28 -14.5q-41 0 -45 39q-4 61 -7 150.5t-4 192.5t-2 215t-1 216zM328 1411q0 27 9 41.5t19 22.5q20 14 45 14q18 0 39 -6t41 -12q12 -4 30.5 -9.5t29.5 -5.5v5q0 16 12 28t29 12 q16 0 28.5 -12t12.5 -28q0 -37 -21.5 -62t-58.5 -25q-20 0 -41 6.5t-43 12.5l-49 12q-2 -16 -13.5 -25.5t-27.5 -9.5t-28.5 12.5t-12.5 28.5z" />
<glyph unicode="&#xd2;" horiz-adv-x="1116" d="M27 614q0 119 30.5 245t95 229.5t165 170t237.5 66.5q121 0 205 -63.5t136 -158.5t75.5 -208t23.5 -211q0 -117 -29.5 -238.5t-92 -221t-161 -162t-235.5 -62.5q-123 0 -208 57.5t-139 146.5t-78.5 197.5t-24.5 212.5zM109 614q0 -84 19 -178t62 -173t114 -130t173 -51 q119 0 202 57.5t135 145.5t75.5 194.5t23.5 204.5q0 80 -18 178.5t-60 182t-111 141t-169 57.5q-119 0 -204 -60.5t-138 -153.5t-78.5 -203.5t-25.5 -211.5zM420 1549q0 16 11.5 28.5t27.5 12.5q27 0 37 -23q12 -23 27.5 -44.5t29 -38.5t23.5 -28l10 -12q10 -14 10 -24 q0 -16 -11 -29.5t-30 -13.5q-18 0 -30 14q-8 10 -26.5 30.5t-35 45t-30 47.5t-13.5 35z" />
<glyph unicode="&#xd3;" horiz-adv-x="1116" d="M27 614q0 119 30.5 245t95 229.5t165 170t237.5 66.5q121 0 205 -63.5t136 -158.5t75.5 -208t23.5 -211q0 -117 -29.5 -238.5t-92 -221t-161 -162t-235.5 -62.5q-123 0 -208 57.5t-139 146.5t-78.5 197.5t-24.5 212.5zM109 614q0 -84 19 -178t62 -173t114 -130t173 -51 q119 0 202 57.5t135 145.5t75.5 194.5t23.5 204.5q0 80 -18 178.5t-60 182t-111 141t-169 57.5q-119 0 -204 -60.5t-138 -153.5t-78.5 -203.5t-25.5 -211.5zM512 1420q0 10 11 24l10 12q10 11 23.5 28t28.5 38.5t28 44.5q10 23 37 23q16 0 27 -12.5t11 -28.5q0 -12 -13 -35 t-29.5 -47.5t-34 -45t-27.5 -30.5q-13 -14 -31 -14t-29.5 13t-11.5 30z" />
<glyph unicode="&#xd4;" horiz-adv-x="1116" d="M27 614q0 119 30.5 245t95 229.5t165 170t237.5 66.5q121 0 205 -63.5t136 -158.5t75.5 -208t23.5 -211q0 -117 -29.5 -238.5t-92 -221t-161 -162t-235.5 -62.5q-123 0 -208 57.5t-139 146.5t-78.5 197.5t-24.5 212.5zM109 614q0 -84 19 -178t62 -173t114 -130t173 -51 q119 0 202 57.5t135 145.5t75.5 194.5t23.5 204.5q0 80 -18 178.5t-60 182t-111 141t-169 57.5q-119 0 -204 -60.5t-138 -153.5t-78.5 -203.5t-25.5 -211.5zM398.5 1405.5q-5.5 15.5 3.5 32.5q45 96 74.5 139t64.5 43q43 0 92 -74q14 -23 28.5 -49.5t30.5 -58.5q8 -16 2 -32 t-22 -24q-12 -4 -19 -4q-25 0 -34 23q-29 59 -47.5 89t-28.5 40q-4 -6 -9 -14.5t-12 -20.5q-12 -20 -24 -45t-23 -49q-12 -23 -37 -23q-6 0 -18 4q-16 8 -21.5 23.5z" />
<glyph unicode="&#xd5;" horiz-adv-x="1116" d="M27 614q0 119 30.5 245t95 229.5t165 170t237.5 66.5q121 0 205 -63.5t136 -158.5t75.5 -208t23.5 -211q0 -117 -29.5 -238.5t-92 -221t-161 -162t-235.5 -62.5q-123 0 -208 57.5t-139 146.5t-78.5 197.5t-24.5 212.5zM109 614q0 -84 19 -178t62 -173t114 -130t173 -51 q119 0 202 57.5t135 145.5t75.5 194.5t23.5 204.5q0 80 -18 178.5t-60 182t-111 141t-169 57.5q-119 0 -204 -60.5t-138 -153.5t-78.5 -203.5t-25.5 -211.5zM400 1411q0 27 9 41.5t19 22.5q20 14 45 14q18 0 39 -6t41 -12q12 -4 30.5 -9.5t29.5 -5.5v5q0 16 12 28t29 12 q16 0 28.5 -12t12.5 -28q0 -37 -21.5 -62t-58.5 -25q-20 0 -41 6.5t-43 12.5l-49 12q-2 -16 -13.5 -25.5t-27.5 -9.5t-28.5 12.5t-12.5 28.5z" />
<glyph unicode="&#xd6;" horiz-adv-x="1116" d="M27 614q0 119 30.5 245t95 229.5t165 170t237.5 66.5q121 0 205 -63.5t136 -158.5t75.5 -208t23.5 -211q0 -117 -29.5 -238.5t-92 -221t-161 -162t-235.5 -62.5q-123 0 -208 57.5t-139 146.5t-78.5 197.5t-24.5 212.5zM109 614q0 -84 19 -178t62 -173t114 -130t173 -51 q119 0 202 57.5t135 145.5t75.5 194.5t23.5 204.5q0 80 -18 178.5t-60 182t-111 141t-169 57.5q-119 0 -204 -60.5t-138 -153.5t-78.5 -203.5t-25.5 -211.5zM434 1415q0 20 13 34t32 14q20 0 33.5 -13.5t13.5 -34.5q0 -18 -13.5 -31.5t-33.5 -13.5q-18 0 -31.5 13.5 t-13.5 31.5zM577 1415q0 20 13.5 34t31.5 14q20 0 33.5 -13.5t13.5 -34.5q0 -18 -13 -31.5t-34 -13.5q-18 0 -31.5 13.5t-13.5 31.5z" />
<glyph unicode="&#xd8;" horiz-adv-x="1021" d="M27 614q0 119 30.5 245t95 229.5t165 170t237.5 66.5q34 0 61 -6q14 14 33 14q31 0 37 -33q84 -31 142.5 -99t95.5 -155.5t54 -182.5t17 -179q0 -117 -29.5 -238.5t-92 -221t-161 -162t-235.5 -62.5q-59 0 -115 16q-12 -12 -28 -12t-28.5 12.5t-14.5 28.5 q-70 37 -120 100.5t-83 141.5t-47 163t-14 164zM109 614q0 -66 11 -138.5t36.5 -139t65.5 -122.5t97 -91q27 72 53.5 168t54.5 204.5t53.5 220t47 212t38 182.5t26.5 131q-8 0 -17.5 1t-19.5 1q-119 0 -204 -60.5t-138 -153.5t-78.5 -203.5t-25.5 -211.5zM397 92 q41 -10 80 -10q119 0 202 57.5t135 145.5t75.5 194.5t23.5 204.5q0 68 -12 147.5t-41 155.5t-75 138.5t-113 93.5q-10 -51 -27.5 -135.5t-39 -185.5t-47.5 -212t-52.5 -219.5t-54 -205.5t-54.5 -169z" />
<glyph unicode="&#xd9;" horiz-adv-x="1019" d="M33 700q0 78 4 159t12 159t20.5 149.5t26.5 128.5q10 31 41 31q27 0 33 -16.5t6 -34.5q-14 -55 -25.5 -124t-19.5 -143.5t-12 -153.5t-4 -155q0 -31 2 -89t8 -126.5t19.5 -139.5t36 -129t55 -95t77.5 -37q72 0 133.5 72.5t111.5 187.5t89 255t67.5 274.5t46 246 t23.5 170.5q4 16 15.5 26.5t27.5 10.5q27 0 36 -21t11 -44q4 -27 7 -70q4 -61 4 -123.5v-124.5q0 -131 -2 -282.5t-4 -292.5q-2 -115 -3.5 -209t-1.5 -160q0 -16 -12 -28.5t-28 -12.5t-28.5 12.5t-12.5 28.5q0 66 1 160t3 209q2 127 3 260t3 254q-12 -63 -33.5 -154.5 t-51.5 -189t-69 -193.5t-89 -173t-111.5 -124t-135.5 -47q-66 0 -112.5 40t-77.5 102.5t-49.5 140t-27.5 155.5t-11 147.5t-2 112.5zM334 1549q0 16 11.5 28.5t27.5 12.5q27 0 37 -23q12 -23 27.5 -44.5t29 -38.5t23.5 -28l10 -12q10 -14 10 -24q0 -16 -11 -29.5t-30 -13.5 q-18 0 -30 14q-8 10 -26.5 30.5t-35 45t-30 47.5t-13.5 35z" />
<glyph unicode="&#xda;" horiz-adv-x="1019" d="M33 700q0 78 4 159t12 159t20.5 149.5t26.5 128.5q10 31 41 31q27 0 33 -16.5t6 -34.5q-14 -55 -25.5 -124t-19.5 -143.5t-12 -153.5t-4 -155q0 -31 2 -89t8 -126.5t19.5 -139.5t36 -129t55 -95t77.5 -37q72 0 133.5 72.5t111.5 187.5t89 255t67.5 274.5t46 246 t23.5 170.5q4 16 15.5 26.5t27.5 10.5q27 0 36 -21t11 -44q4 -27 7 -70q4 -61 4 -123.5v-124.5q0 -131 -2 -282.5t-4 -292.5q-2 -115 -3.5 -209t-1.5 -160q0 -16 -12 -28.5t-28 -12.5t-28.5 12.5t-12.5 28.5q0 66 1 160t3 209q2 127 3 260t3 254q-12 -63 -33.5 -154.5 t-51.5 -189t-69 -193.5t-89 -173t-111.5 -124t-135.5 -47q-66 0 -112.5 40t-77.5 102.5t-49.5 140t-27.5 155.5t-11 147.5t-2 112.5zM424 1420q0 10 11 24l10 12q10 11 23.5 28t28.5 38.5t28 44.5q10 23 37 23q16 0 27 -12.5t11 -28.5q0 -12 -13 -35t-29.5 -47.5t-34 -45 t-27.5 -30.5q-13 -14 -31 -14t-29.5 13t-11.5 30z" />
<glyph unicode="&#xdb;" horiz-adv-x="1019" d="M33 700q0 78 4 159t12 159t20.5 149.5t26.5 128.5q10 31 41 31q27 0 33 -16.5t6 -34.5q-14 -55 -25.5 -124t-19.5 -143.5t-12 -153.5t-4 -155q0 -31 2 -89t8 -126.5t19.5 -139.5t36 -129t55 -95t77.5 -37q72 0 133.5 72.5t111.5 187.5t89 255t67.5 274.5t46 246 t23.5 170.5q4 16 15.5 26.5t27.5 10.5q27 0 36 -21t11 -44q4 -27 7 -70q4 -61 4 -123.5v-124.5q0 -131 -2 -282.5t-4 -292.5q-2 -115 -3.5 -209t-1.5 -160q0 -16 -12 -28.5t-28 -12.5t-28.5 12.5t-12.5 28.5q0 66 1 160t3 209q2 127 3 260t3 254q-12 -63 -33.5 -154.5 t-51.5 -189t-69 -193.5t-89 -173t-111.5 -124t-135.5 -47q-66 0 -112.5 40t-77.5 102.5t-49.5 140t-27.5 155.5t-11 147.5t-2 112.5zM310.5 1405.5q-5.5 15.5 3.5 32.5q45 96 74.5 139t64.5 43q43 0 92 -74q14 -23 28.5 -49.5t30.5 -58.5q8 -16 2 -32t-22 -24q-12 -4 -19 -4 q-25 0 -34 23q-29 59 -47.5 89t-28.5 40q-4 -6 -9 -14.5t-12 -20.5q-12 -20 -24 -45t-23 -49q-12 -23 -37 -23q-6 0 -18 4q-16 8 -21.5 23.5z" />
<glyph unicode="&#xdc;" horiz-adv-x="1019" d="M33 700q0 78 4 159t12 159t20.5 149.5t26.5 128.5q10 31 41 31q27 0 33 -16.5t6 -34.5q-14 -55 -25.5 -124t-19.5 -143.5t-12 -153.5t-4 -155q0 -31 2 -89t8 -126.5t19.5 -139.5t36 -129t55 -95t77.5 -37q72 0 133.5 72.5t111.5 187.5t89 255t67.5 274.5t46 246 t23.5 170.5q4 16 15.5 26.5t27.5 10.5q27 0 36 -21t11 -44q4 -27 7 -70q4 -61 4 -123.5v-124.5q0 -131 -2 -282.5t-4 -292.5q-2 -115 -3.5 -209t-1.5 -160q0 -16 -12 -28.5t-28 -12.5t-28.5 12.5t-12.5 28.5q0 66 1 160t3 209q2 127 3 260t3 254q-12 -63 -33.5 -154.5 t-51.5 -189t-69 -193.5t-89 -173t-111.5 -124t-135.5 -47q-66 0 -112.5 40t-77.5 102.5t-49.5 140t-27.5 155.5t-11 147.5t-2 112.5zM348 1415q0 20 13 34t32 14q20 0 33.5 -13.5t13.5 -34.5q0 -18 -13.5 -31.5t-33.5 -13.5q-18 0 -31.5 13.5t-13.5 31.5zM491 1415 q0 20 13.5 34t31.5 14q20 0 33.5 -13.5t13.5 -34.5q0 -18 -13 -31.5t-34 -13.5q-18 0 -31.5 13.5t-13.5 31.5z" />
<glyph unicode="&#xdd;" horiz-adv-x="931" d="M20 870q0 109 18.5 215.5t45.5 210.5q10 31 41 31q25 0 32 -15.5t7 -33.5q-61 -246 -62 -408q0 -51 7.5 -103t29 -93t60.5 -66.5t102 -25.5q70 0 129 37.5t108.5 99t87.5 139.5t67.5 156t49 151.5t29.5 124.5q6 37 41 37q16 0 28.5 -12t12.5 -29v-18t-2 -19 q-2 -86 -11.5 -212t-31 -264t-59 -276.5t-97 -249t-146.5 -179t-206 -68.5q-16 0 -28.5 12.5t-12.5 28.5t12.5 28.5t28.5 12.5q84 0 146.5 46t110.5 121t81 168t54.5 187t34.5 180t20 146q-29 -70 -70 -146.5t-96.5 -139t-125 -103.5t-155.5 -41q-82 0 -136 31.5t-86 83 t-45.5 119t-13.5 136.5zM395 1420q0 10 11 24l10 12q10 11 23.5 28t28.5 38.5t28 44.5q10 23 37 23q16 0 27 -12.5t11 -28.5q0 -12 -13 -35t-29.5 -47.5t-34 -45t-27.5 -30.5q-13 -14 -31 -14t-29.5 13t-11.5 30z" />
<glyph unicode="&#xde;" horiz-adv-x="833" d="M37 1288q-2 16 10 28.5t29 14.5q16 2 28.5 -10t14.5 -29q0 -2 4 -72.5t8 -183.5q59 37 128 51.5t136 14.5q100 0 180 -36t136.5 -98.5t86 -145.5t29.5 -179q0 -100 -32.5 -188t-92 -153.5t-142.5 -103.5t-185 -38q-63 0 -125 23.5t-96 78.5v-74q0 -31 -2 -64.5t-9.5 -62 t-19.5 -48t-33 -19.5q-16 0 -28.5 12t-12.5 31q0 14 10 29q8 31 10.5 70.5t2.5 80.5q0 268 -9.5 535.5t-25.5 535.5zM135 936q6 -131 10.5 -261t6.5 -263q4 2 12 2q16 0 28.5 -12.5t12.5 -28.5q0 -37 15.5 -61.5t39 -40t54 -22.5t61.5 -7q96 0 165.5 35.5t114.5 93t67.5 129 t22.5 143.5q0 80 -23.5 148.5t-68.5 119t-110.5 80t-147.5 29.5q-170 0 -260 -84z" />
<glyph unicode="&#xdf;" horiz-adv-x="722" d="M33 541q0 115 7 217t28 178q14 51 38.5 97t59.5 82t81 56.5t103 20.5q53 0 90 -19.5t59.5 -53.5t34 -76t11.5 -89q0 -66 -17.5 -131t-46.5 -123q57 -14 99.5 -48t69 -80t39.5 -100t13 -110q0 -63 -17 -127.5t-52 -116.5t-89.5 -85t-125.5 -33q-140 0 -238 94 q-12 12 -12 29q0 16 12.5 28.5t28.5 12.5q14 0 29 -10q72 -72 180 -72q53 0 92 26.5t63.5 68.5t36 91t11.5 94q0 47 -11.5 94.5t-36 84.5t-63.5 60.5t-94 23.5q-16 0 -28.5 12t-12.5 29q0 14 6 22q37 57 59.5 128t22.5 138q0 29 -5 56.5t-17.5 50t-34 36t-56.5 13.5 q-12 0 -38.5 -5t-57.5 -24.5t-59.5 -58.5t-47.5 -107q-18 -70 -25 -167t-7 -207q0 -123 4 -249t14 -249q0 -16 -11 -28.5t-28 -12.5q-16 -2 -29.5 10.5t-13.5 28.5q-10 123 -14 250t-4 250z" />
<glyph unicode="&#xe0;" horiz-adv-x="677" d="M23 168q0 59 28.5 140t76.5 152.5t110.5 122t130.5 50.5q63 0 99 -38t52.5 -93.5t20.5 -116.5t4 -106q0 -59 -3 -125t-7 -136q-4 -38 -43 -38q-16 2 -28.5 14t-10.5 29l6 116q-25 -23 -57.5 -47t-68.5 -44.5t-73 -34t-70 -13.5q-82 0 -124.5 44t-42.5 124zM104 168 q0 -47 19.5 -66.5t66.5 -19.5q33 0 73 19.5t78 48t70.5 61.5t49.5 59v6q0 27 -1 64t-5 74t-14.5 68.5t-26.5 49.5q-18 18 -45 19q-49 0 -96.5 -44t-84 -105.5t-60.5 -126t-24 -107.5zM237 861q0 16 11.5 28.5t27.5 12.5q27 0 37 -23q12 -23 27.5 -44.5t29 -38.5t23.5 -28 l10 -12q10 -14 10 -24q0 -16 -11 -29.5t-30 -13.5q-18 0 -30 14q-8 10 -26.5 30.5t-35 45t-30 47.5t-13.5 35z" />
<glyph unicode="&#xe1;" horiz-adv-x="677" d="M23 168q0 59 28.5 140t76.5 152.5t110.5 122t130.5 50.5q63 0 99 -38t52.5 -93.5t20.5 -116.5t4 -106q0 -59 -3 -125t-7 -136q-4 -38 -43 -38q-16 2 -28.5 14t-10.5 29l6 116q-25 -23 -57.5 -47t-68.5 -44.5t-73 -34t-70 -13.5q-82 0 -124.5 44t-42.5 124zM104 168 q0 -47 19.5 -66.5t66.5 -19.5q33 0 73 19.5t78 48t70.5 61.5t49.5 59v6q0 27 -1 64t-5 74t-14.5 68.5t-26.5 49.5q-18 18 -45 19q-49 0 -96.5 -44t-84 -105.5t-60.5 -126t-24 -107.5zM327 732q0 10 11 24l10 12q10 11 23.5 28t28.5 38.5t28 44.5q10 23 37 23q16 0 27 -12.5 t11 -28.5q0 -12 -13 -35t-29.5 -47.5t-34 -45t-27.5 -30.5q-13 -14 -31 -14t-29.5 13t-11.5 30z" />
<glyph unicode="&#xe2;" horiz-adv-x="677" d="M23 168q0 59 28.5 140t76.5 152.5t110.5 122t130.5 50.5q63 0 99 -38t52.5 -93.5t20.5 -116.5t4 -106q0 -59 -3 -125t-7 -136q-4 -38 -43 -38q-16 2 -28.5 14t-10.5 29l6 116q-25 -23 -57.5 -47t-68.5 -44.5t-73 -34t-70 -13.5q-82 0 -124.5 44t-42.5 124zM104 168 q0 -47 19.5 -66.5t66.5 -19.5q33 0 73 19.5t78 48t70.5 61.5t49.5 59v6q0 27 -1 64t-5 74t-14.5 68.5t-26.5 49.5q-18 18 -45 19q-49 0 -96.5 -44t-84 -105.5t-60.5 -126t-24 -107.5zM214.5 717.5q-5.5 15.5 3.5 32.5q45 96 74.5 139t64.5 43q43 0 92 -74q14 -23 28.5 -49.5 t30.5 -58.5q8 -16 2 -32t-22 -24q-12 -4 -19 -4q-25 0 -34 23q-29 59 -47.5 89t-28.5 40q-4 -6 -9 -14.5t-12 -20.5q-12 -20 -24 -45t-23 -49q-12 -23 -37 -23q-6 0 -18 4q-16 8 -21.5 23.5z" />
<glyph unicode="&#xe3;" horiz-adv-x="665" d="M23 168q0 59 28.5 140t76.5 152.5t110.5 122t130.5 50.5q63 0 99 -38t52.5 -93.5t20.5 -116.5t4 -106q0 -59 -3 -125t-7 -136q-4 -38 -43 -38q-16 2 -28.5 14t-10.5 29l6 116q-25 -23 -57.5 -47t-68.5 -44.5t-73 -34t-70 -13.5q-82 0 -124.5 44t-42.5 124zM104 168 q0 -47 19.5 -66.5t66.5 -19.5q33 0 73 19.5t78 48t70.5 61.5t49.5 59v6q0 27 -1 64t-5 74t-14.5 68.5t-26.5 49.5q-18 18 -45 19q-49 0 -96.5 -44t-84 -105.5t-60.5 -126t-24 -107.5zM217 723q0 27 9 41.5t19 22.5q20 14 45 14q18 0 39 -6t41 -12q12 -4 30.5 -9.5t29.5 -5.5 v5q0 16 12 28t29 12q16 0 28.5 -12t12.5 -28q0 -37 -21.5 -62t-58.5 -25q-20 0 -41 6.5t-43 12.5l-49 12q-2 -16 -13.5 -25.5t-27.5 -9.5t-28.5 12.5t-12.5 28.5z" />
<glyph unicode="&#xe4;" horiz-adv-x="677" d="M23 168q0 59 28.5 140t76.5 152.5t110.5 122t130.5 50.5q63 0 99 -38t52.5 -93.5t20.5 -116.5t4 -106q0 -59 -3 -125t-7 -136q-4 -38 -43 -38q-16 2 -28.5 14t-10.5 29l6 116q-25 -23 -57.5 -47t-68.5 -44.5t-73 -34t-70 -13.5q-82 0 -124.5 44t-42.5 124zM104 168 q0 -47 19.5 -66.5t66.5 -19.5q33 0 73 19.5t78 48t70.5 61.5t49.5 59v6q0 27 -1 64t-5 74t-14.5 68.5t-26.5 49.5q-18 18 -45 19q-49 0 -96.5 -44t-84 -105.5t-60.5 -126t-24 -107.5zM252 727q0 20 13 34t32 14q20 0 33.5 -13.5t13.5 -34.5q0 -18 -13.5 -31.5t-33.5 -13.5 q-18 0 -31.5 13.5t-13.5 31.5zM395 727q0 20 13.5 34t31.5 14q20 0 33.5 -13.5t13.5 -34.5q0 -18 -13 -31.5t-34 -13.5q-18 0 -31.5 13.5t-13.5 31.5z" />
<glyph unicode="&#xe5;" horiz-adv-x="677" d="M23 168q0 59 28.5 140t76.5 152.5t110.5 122t130.5 50.5q63 0 99 -38t52.5 -93.5t20.5 -116.5t4 -106q0 -59 -3 -125t-7 -136q-4 -38 -43 -38q-16 2 -28.5 14t-10.5 29l6 116q-25 -23 -57.5 -47t-68.5 -44.5t-73 -34t-70 -13.5q-82 0 -124.5 44t-42.5 124zM104 168 q0 -47 19.5 -66.5t66.5 -19.5q33 0 73 19.5t78 48t70.5 61.5t49.5 59v6q0 27 -1 64t-5 74t-14.5 68.5t-26.5 49.5q-18 18 -45 19q-49 0 -96.5 -44t-84 -105.5t-60.5 -126t-24 -107.5zM265 819q0 45 22 84q27 39 68 45q14 10 26 11q51 0 83 -35t32 -88t-31.5 -97.5 t-89.5 -44.5q-55 0 -86 43q-25 31 -24 82zM347 819q0 -18 8 -34q4 -4 7 -6.5t13 -2.5q18 0 28.5 20.5t10.5 39.5q0 23 -7 30t-15 9q-8 -6 -23 -6q-8 0 -15 -14.5t-7 -35.5z" />
<glyph unicode="&#xe6;" horiz-adv-x="991" d="M29 168q0 59 28.5 140t76.5 152.5t110.5 122t130.5 50.5q70 0 104.5 -44t50.5 -106q35 59 89.5 97t128.5 38t116.5 -49t42.5 -120q0 -57 -36.5 -99.5t-90 -70t-114 -43t-107.5 -21.5q10 -55 41 -97t90 -42q47 0 83 20.5t63 42.5q29 29 51 64q12 20 37 20q16 0 28.5 -12 t12.5 -29q0 -10 -7 -20q-2 -2 -20 -29t-52 -57.5t-83 -56t-113 -25.5q-47 0 -84 17.5t-63 45.5q-2 -10 -2 -19v-20q-4 -39 -43 -38q-16 2 -28.5 14t-10.5 29l6 116q-25 -23 -57.5 -47t-68.5 -44.5t-73 -34t-69 -13.5q-82 0 -125 44t-43 124zM111 168q0 -47 19.5 -66.5 t66.5 -19.5q33 0 72.5 19.5t77.5 48t71 61.5t49 59v6q0 27 -1 64t-5 74t-14.5 68.5t-26.5 49.5q-18 18 -45 19q-49 0 -96.5 -44t-84 -105.5t-60 -126t-23.5 -107.5zM557 297q37 6 84 18.5t88 31t68.5 44t27.5 58.5q0 39 -18.5 63.5t-58.5 24.5q-45 0 -80 -22.5t-58.5 -58.5 t-36 -78t-16.5 -81z" />
<glyph unicode="&#xe7;" horiz-adv-x="526" d="M16 270q0 59 17.5 122t51.5 115t85 85t119 33q76 0 119 -49.5t43 -120.5q0 -16 -12.5 -28.5t-28.5 -12.5t-28.5 12t-12.5 29q0 39 -19.5 63.5t-60.5 24.5q-49 0 -85 -27t-59.5 -67.5t-35 -89t-11.5 -89.5q0 -31 7.5 -64.5t22.5 -61t41 -45t64 -17.5q45 0 82 19.5t62.5 43 t32.5 33.5l20 31q12 20 37 20q16 0 28.5 -12t12.5 -29q0 -10 -6 -20q-2 -2 -18.5 -26.5t-47 -54.5t-76 -55.5t-104.5 -31.5v-49q70 -16 120 -64.5t50 -126.5q0 -68 -41 -121t-113 -53q-41 0 -79.5 28t-38.5 69q0 16 11 28.5t28 12.5q29 0 43 -29q4 -14 14 -20.5t20 -6.5 q39 0 56.5 29t17.5 63q0 63 -63 95q-12 6 -24.5 10t-23.5 8q-12 2 -22 4q-16 2 -26.5 13.5t-10.5 27.5v90q-41 12 -70.5 38t-49 61.5t-29 77.5t-9.5 85z" />
<glyph unicode="&#xe8;" horiz-adv-x="614" d="M27 270q0 59 17 122t51 115t85 85t119 33q76 0 119 -49.5t43 -120.5q0 -57 -37 -99.5t-90 -70t-113.5 -43t-107.5 -21.5q10 -55 40.5 -97t90.5 -42q45 0 81.5 19.5t62.5 43t32 33.5l20 31q12 20 37 20q16 0 28.5 -12t12.5 -29q0 -10 -6 -20q-2 -2 -20.5 -28.5t-52 -57.5 t-83 -56.5t-112.5 -25.5q-57 0 -98.5 23.5t-68 61.5t-38.5 87t-12 98zM111 303q37 6 84 18.5t88 31t68.5 44t27.5 58.5q0 39 -19.5 63.5t-60.5 24.5q-45 0 -79 -22.5t-57.5 -58.5t-35.5 -78t-16 -81zM166 861q0 16 11.5 28.5t27.5 12.5q27 0 37 -23q12 -23 27.5 -44.5 t29 -38.5t23.5 -28l10 -12q10 -14 10 -24q0 -16 -11 -29.5t-30 -13.5q-18 0 -30 14q-8 10 -26.5 30.5t-35 45t-30 47.5t-13.5 35z" />
<glyph unicode="&#xe9;" horiz-adv-x="614" d="M27 270q0 59 17 122t51 115t85 85t119 33q76 0 119 -49.5t43 -120.5q0 -57 -37 -99.5t-90 -70t-113.5 -43t-107.5 -21.5q10 -55 40.5 -97t90.5 -42q45 0 81.5 19.5t62.5 43t32 33.5l20 31q12 20 37 20q16 0 28.5 -12t12.5 -29q0 -10 -6 -20q-2 -2 -20.5 -28.5t-52 -57.5 t-83 -56.5t-112.5 -25.5q-57 0 -98.5 23.5t-68 61.5t-38.5 87t-12 98zM111 303q37 6 84 18.5t88 31t68.5 44t27.5 58.5q0 39 -19.5 63.5t-60.5 24.5q-45 0 -79 -22.5t-57.5 -58.5t-35.5 -78t-16 -81zM256 732q0 10 11 24l10 12q10 11 23.5 28t28.5 38.5t28 44.5q10 23 37 23 q16 0 27 -12.5t11 -28.5q0 -12 -13 -35t-29.5 -47.5t-34 -45t-27.5 -30.5q-13 -14 -31 -14t-29.5 13t-11.5 30z" />
<glyph unicode="&#xea;" horiz-adv-x="614" d="M27 270q0 59 17 122t51 115t85 85t119 33q76 0 119 -49.5t43 -120.5q0 -57 -37 -99.5t-90 -70t-113.5 -43t-107.5 -21.5q10 -55 40.5 -97t90.5 -42q45 0 81.5 19.5t62.5 43t32 33.5l20 31q12 20 37 20q16 0 28.5 -12t12.5 -29q0 -10 -6 -20q-2 -2 -20.5 -28.5t-52 -57.5 t-83 -56.5t-112.5 -25.5q-57 0 -98.5 23.5t-68 61.5t-38.5 87t-12 98zM111 303q37 6 84 18.5t88 31t68.5 44t27.5 58.5q0 39 -19.5 63.5t-60.5 24.5q-45 0 -79 -22.5t-57.5 -58.5t-35.5 -78t-16 -81zM142.5 717.5q-5.5 15.5 3.5 32.5q45 96 74.5 139t64.5 43q43 0 92 -74 q14 -23 28.5 -49.5t30.5 -58.5q8 -16 2 -32t-22 -24q-12 -4 -19 -4q-25 0 -34 23q-29 59 -47.5 89t-28.5 40q-4 -6 -9 -14.5t-12 -20.5q-12 -20 -24 -45t-23 -49q-12 -23 -37 -23q-6 0 -18 4q-16 8 -21.5 23.5z" />
<glyph unicode="&#xeb;" horiz-adv-x="614" d="M27 270q0 59 17 122t51 115t85 85t119 33q76 0 119 -49.5t43 -120.5q0 -57 -37 -99.5t-90 -70t-113.5 -43t-107.5 -21.5q10 -55 40.5 -97t90.5 -42q45 0 81.5 19.5t62.5 43t32 33.5l20 31q12 20 37 20q16 0 28.5 -12t12.5 -29q0 -10 -6 -20q-2 -2 -20.5 -28.5t-52 -57.5 t-83 -56.5t-112.5 -25.5q-57 0 -98.5 23.5t-68 61.5t-38.5 87t-12 98zM111 303q37 6 84 18.5t88 31t68.5 44t27.5 58.5q0 39 -19.5 63.5t-60.5 24.5q-45 0 -79 -22.5t-57.5 -58.5t-35.5 -78t-16 -81zM180 727q0 20 13 34t32 14q20 0 33.5 -13.5t13.5 -34.5 q0 -18 -13.5 -31.5t-33.5 -13.5q-18 0 -31.5 13.5t-13.5 31.5zM323 727q0 20 13.5 34t31.5 14q20 0 33.5 -13.5t13.5 -34.5q0 -18 -13 -31.5t-34 -13.5q-18 0 -31.5 13.5t-13.5 31.5z" />
<glyph unicode="&#xec;" horiz-adv-x="198" d="M-13 861q0 16 11.5 28.5t27.5 12.5q27 0 37 -23q12 -23 27.5 -44.5t29 -38.5t23.5 -28l10 -12q10 -14 10 -24q0 -16 -11 -29.5t-30 -13.5q-18 0 -30 14q-8 10 -26.5 30.5t-35 45t-30 47.5t-13.5 35zM72 346q0 100 4 170t4 76q2 16 15.5 27.5t29.5 9.5t27.5 -15.5 t9.5 -29.5q-2 -31 -4 -70q-2 -33 -3 -76t-1 -94q0 -70 4 -149.5t12 -153.5q2 -16 -11 -28.5t-30 -12.5q-35 0 -41 37q-10 78 -13 157.5t-3 151.5z" />
<glyph unicode="&#xed;" horiz-adv-x="155" d="M35 346q0 100 4 170t4 76q2 16 15.5 27.5t29.5 9.5t27.5 -15.5t9.5 -29.5q-2 -31 -4 -70q-2 -33 -3 -76t-1 -94q0 -70 4 -149.5t12 -153.5q2 -16 -11 -28.5t-30 -12.5q-35 0 -41 37q-10 78 -13 157.5t-3 151.5zM43 732q0 10 11 24l10 12q10 11 23.5 28t28.5 38.5t28 44.5 q10 23 37 23q16 0 27 -12.5t11 -28.5q0 -12 -13 -35t-29.5 -47.5t-34 -45t-27.5 -30.5q-13 -14 -31 -14t-29.5 13t-11.5 30z" />
<glyph unicode="&#xee;" horiz-adv-x="180" d="M-82.5 717.5q-5.5 15.5 3.5 32.5q45 96 74.5 139t64.5 43q43 0 92 -74q14 -23 28.5 -49.5t30.5 -58.5q8 -16 2 -32t-22 -24q-12 -4 -19 -4q-25 0 -34 23q-29 59 -47.5 89t-28.5 40q-4 -6 -9 -14.5t-12 -20.5q-12 -20 -24 -45t-23 -49q-12 -23 -37 -23q-6 0 -18 4 q-16 8 -21.5 23.5zM25 346q0 100 4 170t4 76q2 16 15.5 27.5t29.5 9.5t27.5 -15.5t9.5 -29.5q-2 -31 -4 -70q-2 -33 -3 -76t-1 -94q0 -70 4 -149.5t12 -153.5q2 -16 -11 -28.5t-30 -12.5q-35 0 -41 37q-10 78 -13 157.5t-3 151.5z" />
<glyph unicode="&#xef;" horiz-adv-x="192" d="M8 727q0 20 13 34t32 14q20 0 33.5 -13.5t13.5 -34.5q0 -18 -13.5 -31.5t-33.5 -13.5q-18 0 -31.5 13.5t-13.5 31.5zM78 346q0 100 4 170t4 76q2 16 15.5 27.5t29.5 9.5t27.5 -15.5t9.5 -29.5q-2 -31 -4 -70q-2 -33 -3 -76t-1 -94q0 -70 4 -149.5t12 -153.5 q2 -16 -11 -28.5t-30 -12.5q-35 0 -41 37q-10 78 -13 157.5t-3 151.5zM151 727q0 20 13.5 34t31.5 14q20 0 33.5 -13.5t13.5 -34.5q0 -18 -13 -31.5t-34 -13.5q-18 0 -31.5 13.5t-13.5 31.5z" />
<glyph unicode="&#xf0;" horiz-adv-x="604" d="M23 1126q0 16 12 28.5t28 12.5q27 0 61 -12t68.5 -29.5t66.5 -37t50 -35.5l72 63q14 10 29 10q16 0 28.5 -12.5t12.5 -28.5t-15 -30l-65 -60q59 -63 99 -141t64.5 -161t36 -170t11.5 -173q0 -154 -76 -251t-217 -97q-61 0 -106.5 25.5t-75 67.5t-43 94.5t-13.5 107.5 t15.5 114.5t46 108.5t79 81t111.5 32q55 0 99 -18.5t79 -49.5q-16 104 -58 201.5t-114 175.5l-100 -92q-14 -10 -29 -10q-16 0 -28.5 12t-12.5 29q0 18 15 30l94 86q-88 68 -193 88q-33 8 -32 41zM133 297q0 -37 8.5 -75t26.5 -68.5t48 -50t73 -19.5q51 0 90 19.5t65.5 51 t40 74.5t13.5 90q0 41 -11.5 83t-35 75t-60.5 53.5t-88 20.5q-45 0 -77.5 -25.5t-53 -63.5t-30 -83t-9.5 -82z" />
<glyph unicode="&#xf1;" horiz-adv-x="661" d="M37 440q0 61 2 110.5t6 84.5q6 37 41 37q23 0 32 -14.5t9 -32.5q-4 -35 -6 -82t-2 -101v-59.5t2 -60.5q12 41 30.5 95t47 102t67.5 82t90 34q63 0 101.5 -42t59 -101.5t26.5 -124t6 -109.5q0 -117 -23 -225q-4 -16 -15 -24.5t-26 -8.5q-16 0 -28.5 12.5t-12.5 28.5 q0 6 2 8q10 47 15.5 101.5t5.5 107.5q0 25 -3 74t-14.5 98t-34 86t-59.5 37q-31 0 -57.5 -30.5t-49 -80t-41 -109t-30.5 -116.5t-21.5 -105.5t-11.5 -72.5q-2 -16 -13 -26.5t-28 -10.5q-16 0 -28 12q-14 12 -21.5 71.5t-11.5 131.5t-5 136.5t-1 86.5zM203 723q0 27 9 41.5 t19 22.5q20 14 45 14q18 0 39 -6t41 -12q12 -4 30.5 -9.5t29.5 -5.5v5q0 16 12 28t29 12q16 0 28.5 -12t12.5 -28q0 -37 -21.5 -62t-58.5 -25q-20 0 -41 6.5t-43 12.5l-49 12q-2 -16 -13.5 -25.5t-27.5 -9.5t-28.5 12.5t-12.5 28.5z" />
<glyph unicode="&#xf2;" horiz-adv-x="620" d="M27 283q0 57 16 115.5t48 106.5t81 77.5t115 29.5q55 0 96 -26.5t68.5 -69.5t41 -96t13.5 -107q0 -57 -15.5 -113.5t-48 -101.5t-79.5 -71.5t-113 -26.5q-57 0 -100.5 25.5t-70 65.5t-39.5 90t-13 102zM109 283q0 -37 8 -74t25.5 -64.5t44 -45t63.5 -17.5q47 0 79.5 21.5 t53 54t31 74.5t10.5 81t-9 78t-26.5 70t-43 50t-60.5 19q-47 0 -80 -23.5t-54.5 -60t-31.5 -79.5t-10 -84zM147 861q0 16 11.5 28.5t27.5 12.5q27 0 37 -23q12 -23 27.5 -44.5t29 -38.5t23.5 -28l10 -12q10 -14 10 -24q0 -16 -11 -29.5t-30 -13.5q-18 0 -30 14 q-8 10 -26.5 30.5t-35 45t-30 47.5t-13.5 35z" />
<glyph unicode="&#xf3;" horiz-adv-x="620" d="M27 283q0 57 16 115.5t48 106.5t81 77.5t115 29.5q55 0 96 -26.5t68.5 -69.5t41 -96t13.5 -107q0 -57 -15.5 -113.5t-48 -101.5t-79.5 -71.5t-113 -26.5q-57 0 -100.5 25.5t-70 65.5t-39.5 90t-13 102zM109 283q0 -37 8 -74t25.5 -64.5t44 -45t63.5 -17.5q47 0 79.5 21.5 t53 54t31 74.5t10.5 81t-9 78t-26.5 70t-43 50t-60.5 19q-47 0 -80 -23.5t-54.5 -60t-31.5 -79.5t-10 -84zM239 732q0 10 11 24l10 12q10 11 23.5 28t28.5 38.5t28 44.5q10 23 37 23q16 0 27 -12.5t11 -28.5q0 -12 -13 -35t-29.5 -47.5t-34 -45t-27.5 -30.5q-13 -14 -31 -14 t-29.5 13t-11.5 30z" />
<glyph unicode="&#xf4;" horiz-adv-x="620" d="M27 283q0 57 16 115.5t48 106.5t81 77.5t115 29.5q55 0 96 -26.5t68.5 -69.5t41 -96t13.5 -107q0 -57 -15.5 -113.5t-48 -101.5t-79.5 -71.5t-113 -26.5q-57 0 -100.5 25.5t-70 65.5t-39.5 90t-13 102zM109 283q0 -37 8 -74t25.5 -64.5t44 -45t63.5 -17.5q47 0 79.5 21.5 t53 54t31 74.5t10.5 81t-9 78t-26.5 70t-43 50t-60.5 19q-47 0 -80 -23.5t-54.5 -60t-31.5 -79.5t-10 -84zM125.5 717.5q-5.5 15.5 3.5 32.5q45 96 74.5 139t64.5 43q43 0 92 -74q14 -23 28.5 -49.5t30.5 -58.5q8 -16 2 -32t-22 -24q-12 -4 -19 -4q-25 0 -34 23 q-29 59 -47.5 89t-28.5 40q-4 -6 -9 -14.5t-12 -20.5q-12 -20 -24 -45t-23 -49q-12 -23 -37 -23q-6 0 -18 4q-16 8 -21.5 23.5z" />
<glyph unicode="&#xf5;" horiz-adv-x="620" d="M27 283q0 57 16 115.5t48 106.5t81 77.5t115 29.5q55 0 96 -26.5t68.5 -69.5t41 -96t13.5 -107q0 -57 -15.5 -113.5t-48 -101.5t-79.5 -71.5t-113 -26.5q-57 0 -100.5 25.5t-70 65.5t-39.5 90t-13 102zM109 283q0 -37 8 -74t25.5 -64.5t44 -45t63.5 -17.5q47 0 79.5 21.5 t53 54t31 74.5t10.5 81t-9 78t-26.5 70t-43 50t-60.5 19q-47 0 -80 -23.5t-54.5 -60t-31.5 -79.5t-10 -84zM129 723q0 27 9 41.5t19 22.5q20 14 45 14q18 0 39 -6t41 -12q12 -4 30.5 -9.5t29.5 -5.5v5q0 16 12 28t29 12q16 0 28.5 -12t12.5 -28q0 -37 -21.5 -62t-58.5 -25 q-20 0 -41 6.5t-43 12.5l-49 12q-2 -16 -13.5 -25.5t-27.5 -9.5t-28.5 12.5t-12.5 28.5z" />
<glyph unicode="&#xf6;" horiz-adv-x="620" d="M27 283q0 57 16 115.5t48 106.5t81 77.5t115 29.5q55 0 96 -26.5t68.5 -69.5t41 -96t13.5 -107q0 -57 -15.5 -113.5t-48 -101.5t-79.5 -71.5t-113 -26.5q-57 0 -100.5 25.5t-70 65.5t-39.5 90t-13 102zM109 283q0 -37 8 -74t25.5 -64.5t44 -45t63.5 -17.5q47 0 79.5 21.5 t53 54t31 74.5t10.5 81t-9 78t-26.5 70t-43 50t-60.5 19q-47 0 -80 -23.5t-54.5 -60t-31.5 -79.5t-10 -84zM164 727q0 20 13 34t32 14q20 0 33.5 -13.5t13.5 -34.5q0 -18 -13.5 -31.5t-33.5 -13.5q-18 0 -31.5 13.5t-13.5 31.5zM307 727q0 20 13.5 34t31.5 14 q20 0 33.5 -13.5t13.5 -34.5q0 -18 -13 -31.5t-34 -13.5q-18 0 -31.5 13.5t-13.5 31.5z" />
<glyph unicode="&#xf8;" horiz-adv-x="530" d="M25 283q0 57 16 115.5t48 106.5t81 77.5t115 29.5q14 0 27.5 -2t27.5 -6q6 16 18.5 25.5t24.5 9.5q23 0 32 -15.5t3 -33.5q0 -2 -1 -8.5t-7 -18.5q47 -43 70.5 -110.5t23.5 -139.5q0 -57 -15.5 -113.5t-48 -101.5t-80 -71.5t-112.5 -26.5q-29 0 -51 6q-14 -29 -41 -29 q-16 0 -28.5 12.5t-12.5 28.5q0 10 4 17q0 2 1 4t1 4q-49 41 -72.5 106.5t-23.5 133.5zM106 283q0 -45 12.5 -88t37.5 -72q23 53 45 109.5t41.5 109.5t38 100t30.5 84q-16 4 -28 4q-47 0 -80 -23.5t-54.5 -60t-32 -79.5t-10.5 -84zM229 84q6 -2 19 -2q47 0 79.5 21.5t53 54 t31 74.5t10.5 81q0 45 -10.5 87t-32.5 75q-29 -78 -69 -185.5t-81 -205.5z" />
<glyph unicode="&#xf9;" horiz-adv-x="663" d="M31 377q0 117 22 225q8 33 41 33q16 0 28.5 -12.5t12.5 -28.5q0 -6 -2 -8q-10 -47 -15 -101.5t-5 -107.5q0 -25 3 -74t14 -98t32.5 -86t58.5 -37q31 0 58.5 30.5t50 80t40 108.5t31 116.5t22.5 105.5t11 73q2 16 13.5 26.5t25.5 10.5q18 0 31 -12q14 -12 21 -72 t11.5 -131.5t5.5 -136t1 -86.5q0 -61 -2 -111.5t-6 -85.5q-6 -35 -41 -35q-23 0 -32 14.5t-9 32.5q4 35 6 81t2 99v61.5t-2 61.5q-12 -41 -30.5 -95t-47.5 -102t-68 -82t-92 -34q-63 0 -100 42t-57.5 101.5t-26.5 124t-6 109.5zM137 861q0 16 11.5 28.5t27.5 12.5 q27 0 37 -23q12 -23 27.5 -44.5t29 -38.5t23.5 -28l10 -12q10 -14 10 -24q0 -16 -11 -29.5t-30 -13.5q-18 0 -30 14q-8 10 -26.5 30.5t-35 45t-30 47.5t-13.5 35z" />
<glyph unicode="&#xfa;" horiz-adv-x="663" d="M31 377q0 117 22 225q8 33 41 33q16 0 28.5 -12.5t12.5 -28.5q0 -6 -2 -8q-10 -47 -15 -101.5t-5 -107.5q0 -25 3 -74t14 -98t32.5 -86t58.5 -37q31 0 58.5 30.5t50 80t40 108.5t31 116.5t22.5 105.5t11 73q2 16 13.5 26.5t25.5 10.5q18 0 31 -12q14 -12 21 -72 t11.5 -131.5t5.5 -136t1 -86.5q0 -61 -2 -111.5t-6 -85.5q-6 -35 -41 -35q-23 0 -32 14.5t-9 32.5q4 35 6 81t2 99v61.5t-2 61.5q-12 -41 -30.5 -95t-47.5 -102t-68 -82t-92 -34q-63 0 -100 42t-57.5 101.5t-26.5 124t-6 109.5zM229 732q0 10 11 24l10 12q10 11 23.5 28 t28.5 38.5t28 44.5q10 23 37 23q16 0 27 -12.5t11 -28.5q0 -12 -13 -35t-29.5 -47.5t-34 -45t-27.5 -30.5q-13 -14 -31 -14t-29.5 13t-11.5 30z" />
<glyph unicode="&#xfb;" horiz-adv-x="663" d="M31 377q0 117 22 225q8 33 41 33q16 0 28.5 -12.5t12.5 -28.5q0 -6 -2 -8q-10 -47 -15 -101.5t-5 -107.5q0 -25 3 -74t14 -98t32.5 -86t58.5 -37q31 0 58.5 30.5t50 80t40 108.5t31 116.5t22.5 105.5t11 73q2 16 13.5 26.5t25.5 10.5q18 0 31 -12q14 -12 21 -72 t11.5 -131.5t5.5 -136t1 -86.5q0 -61 -2 -111.5t-6 -85.5q-6 -35 -41 -35q-23 0 -32 14.5t-9 32.5q4 35 6 81t2 99v61.5t-2 61.5q-12 -41 -30.5 -95t-47.5 -102t-68 -82t-92 -34q-63 0 -100 42t-57.5 101.5t-26.5 124t-6 109.5zM115.5 717.5q-5.5 15.5 3.5 32.5 q45 96 74.5 139t64.5 43q43 0 92 -74q14 -23 28.5 -49.5t30.5 -58.5q8 -16 2 -32t-22 -24q-12 -4 -19 -4q-25 0 -34 23q-29 59 -47.5 89t-28.5 40q-4 -6 -9 -14.5t-12 -20.5q-12 -20 -24 -45t-23 -49q-12 -23 -37 -23q-6 0 -18 4q-16 8 -21.5 23.5z" />
<glyph unicode="&#xfc;" horiz-adv-x="663" d="M31 377q0 117 22 225q8 33 41 33q16 0 28.5 -12.5t12.5 -28.5q0 -6 -2 -8q-10 -47 -15 -101.5t-5 -107.5q0 -25 3 -74t14 -98t32.5 -86t58.5 -37q31 0 58.5 30.5t50 80t40 108.5t31 116.5t22.5 105.5t11 73q2 16 13.5 26.5t25.5 10.5q18 0 31 -12q14 -12 21 -72 t11.5 -131.5t5.5 -136t1 -86.5q0 -61 -2 -111.5t-6 -85.5q-6 -35 -41 -35q-23 0 -32 14.5t-9 32.5q4 35 6 81t2 99v61.5t-2 61.5q-12 -41 -30.5 -95t-47.5 -102t-68 -82t-92 -34q-63 0 -100 42t-57.5 101.5t-26.5 124t-6 109.5zM154 727q0 20 13 34t32 14q20 0 33.5 -13.5 t13.5 -34.5q0 -18 -13.5 -31.5t-33.5 -13.5q-18 0 -31.5 13.5t-13.5 31.5zM297 727q0 20 13.5 34t31.5 14q20 0 33.5 -13.5t13.5 -34.5q0 -18 -13 -31.5t-34 -13.5q-18 0 -31.5 13.5t-13.5 31.5z" />
<glyph unicode="&#xfd;" d="M18 383q0 117 23 225q8 33 41 33q16 0 28.5 -12.5t12.5 -28.5q0 -6 -2 -10q-10 -47 -15.5 -100.5t-5.5 -106.5q0 -25 3 -74t14.5 -98t33 -86t58.5 -37q31 0 58.5 31t50 80t40 108.5t30.5 116.5t21.5 105.5t12.5 72.5q2 16 13 26.5t28 10.5q18 0 31 -16q4 -4 6 -9.5 t5 -19.5t4 -41t1 -74q0 -59 -3 -155.5t-14.5 -206t-31 -222t-53 -202.5t-83 -147.5t-116.5 -57.5q-16 0 -28.5 12.5t-12.5 28.5t12.5 28.5t28.5 12.5q39 0 68.5 41t52 105.5t38 143.5t27 152.5t16.5 133t7 85.5q-12 -35 -30.5 -73.5t-44.5 -72.5t-58.5 -56.5t-75.5 -22.5 q-63 0 -100 42t-57.5 100.5t-27 124t-6.5 110.5zM221 732q0 10 11 24l10 12q10 11 23.5 28t28.5 38.5t28 44.5q10 23 37 23q16 0 27 -12.5t11 -28.5q0 -12 -13 -35t-29.5 -47.5t-34 -45t-27.5 -30.5q-13 -14 -31 -14t-29.5 13t-11.5 30z" />
<glyph unicode="&#xfe;" horiz-adv-x="526" d="M35 1276q0 23 6 41t35 18q23 0 32 -15t9 -36v-79.5t1 -143.5t2 -186.5t3 -210.5q27 6 50.5 8t39.5 2q74 0 132 -40t98 -100.5t61.5 -132t21.5 -137.5q0 -41 -9 -81t-29.5 -70.5t-54.5 -50t-81 -19.5q-59 0 -114.5 30.5t-96.5 71.5q0 -10 1 -57t2 -113.5t1 -141.5 t1 -140.5t2.5 -111.5t1.5 -52q2 -16 -11.5 -28.5t-29.5 -12.5t-28.5 10t-12.5 27q-2 59 -4.5 161.5t-5.5 228.5t-6 268.5t-5 284.5t-4 276.5t-4 244t-3 185t-1 102.5zM125 578q2 -78 3 -153t5 -142q4 -4 4 -7q14 -25 39 -51t53.5 -48.5t60.5 -37t62 -14.5q29 0 46.5 13.5 t27.5 34t14 45t4 46.5q0 47 -15 104.5t-44 106.5t-73 83t-99 34q-16 0 -39.5 -2t-48.5 -12z" />
<glyph unicode="&#xff;" d="M18 383q0 117 23 225q8 33 41 33q16 0 28.5 -12.5t12.5 -28.5q0 -6 -2 -10q-10 -47 -15.5 -100.5t-5.5 -106.5q0 -25 3 -74t14.5 -98t33 -86t58.5 -37q31 0 58.5 31t50 80t40 108.5t30.5 116.5t21.5 105.5t12.5 72.5q2 16 13 26.5t28 10.5q18 0 31 -16q4 -4 6 -9.5 t5 -19.5t4 -41t1 -74q0 -59 -3 -155.5t-14.5 -206t-31 -222t-53 -202.5t-83 -147.5t-116.5 -57.5q-16 0 -28.5 12.5t-12.5 28.5t12.5 28.5t28.5 12.5q39 0 68.5 41t52 105.5t38 143.5t27 152.5t16.5 133t7 85.5q-12 -35 -30.5 -73.5t-44.5 -72.5t-58.5 -56.5t-75.5 -22.5 q-63 0 -100 42t-57.5 100.5t-27 124t-6.5 110.5zM146 727q0 20 13 34t32 14q20 0 33.5 -13.5t13.5 -34.5q0 -18 -13.5 -31.5t-33.5 -13.5q-18 0 -31.5 13.5t-13.5 31.5zM289 727q0 20 13.5 34t31.5 14q20 0 33.5 -13.5t13.5 -34.5q0 -18 -13 -31.5t-34 -13.5 q-18 0 -31.5 13.5t-13.5 31.5z" />
<glyph unicode="&#x152;" horiz-adv-x="1658" d="M31 614q0 119 30.5 245t95 229.5t165 170t237.5 66.5q129 0 216 -71.5t140 -178.5q-2 78 -2 126v56q0 16 10.5 26.5t24.5 14.5q16 2 65.5 5.5t115 6.5t138 7t137 6t112 4t61.5 2q16 2 28.5 -10t12.5 -29q2 -16 -10.5 -28.5t-28.5 -14.5q-51 -2 -132 -5t-167 -7t-164 -7 t-121 -7q0 -33 1 -93.5t2 -136.5t2 -163t4 -177l471 45h4q37 0 41 -37q2 -16 -9.5 -29.5t-27.5 -15.5l-479 -45q2 -76 5 -149.5t6 -136t7 -113.5t10 -82q10 -4 34 -5t69 -1q117 0 232.5 7t231.5 17q16 2 28.5 -9t14.5 -27t-9 -28.5t-27 -14.5q-117 -10 -234.5 -18.5 t-236.5 -8.5q-29 0 -58.5 1t-58.5 5l-34.5 11.5t-29.5 33.5q-8 37 -13 109.5t-9 167.5q-29 -70 -71 -129.5t-97 -103.5t-126 -69.5t-157 -25.5q-123 0 -208 57.5t-139 146.5t-78.5 197.5t-24.5 212.5zM113 614q0 -84 19.5 -178t62.5 -173t113.5 -130t172.5 -51 q119 0 202 57.5t135 145.5t76 194.5t24 204.5q0 80 -18.5 178.5t-60.5 182t-111 141t-169 57.5q-119 0 -204 -60.5t-138 -153.5t-78.5 -203.5t-25.5 -211.5z" />
<glyph unicode="&#x153;" horiz-adv-x="952" d="M33 283q0 57 16.5 115.5t48 106.5t80.5 77.5t115 29.5q68 0 115 -41t73 -100q35 66 90.5 110t135.5 44q74 0 116.5 -49.5t42.5 -120.5q0 -57 -35.5 -99.5t-89 -70t-114 -43t-109.5 -21.5q10 -55 41 -97t90 -42q47 0 83 19.5t61.5 43t40.5 43.5l14 21q8 20 35 20 q16 0 28.5 -12t12.5 -29q0 -10 -6 -20q-2 -2 -20.5 -28.5t-52.5 -57.5t-83 -56.5t-113 -25.5q-70 0 -115 35t-71 88q-31 -53 -83 -88t-124 -35q-57 0 -100 25.5t-70 65.5t-40 90t-13 102zM115 283q0 -37 8 -74t25.5 -64.5t44 -45t63.5 -17.5q47 0 80 21.5t53.5 54t30.5 74.5 t10 81t-9 78t-26.5 70t-43 50t-60.5 19q-47 0 -80 -23.5t-54.5 -60t-31.5 -79.5t-10 -84zM516 303q37 6 84 18.5t88 31t68.5 44t27.5 58.5q0 39 -18 63.5t-59 24.5q-45 0 -80 -22.5t-58.5 -58.5t-36 -78t-16.5 -81z" />
<glyph unicode="&#x2c6;" horiz-adv-x="339" d="M21.5 633.5q-5.5 15.5 3.5 32.5q45 96 74.5 139t64.5 43q43 0 92 -74q14 -23 28.5 -49.5t30.5 -58.5q8 -16 2 -32t-22 -24q-12 -4 -19 -4q-25 0 -34 23q-29 59 -47.5 89t-28.5 40q-4 -6 -9 -14.5t-12 -20.5q-12 -20 -24 -45t-23 -49q-12 -23 -37 -23q-6 0 -18 4 q-16 8 -21.5 23.5z" />
<glyph unicode="&#x2dc;" horiz-adv-x="356" d="M29 655q0 27 9 41.5t19 22.5q20 14 45 14q18 0 39 -6t41 -12q12 -4 30.5 -9.5t29.5 -5.5v5q0 16 12 28t29 12q16 0 28.5 -12t12.5 -28q0 -37 -21.5 -62t-58.5 -25q-20 0 -41 6.5t-43 12.5l-49 12q-2 -16 -13.5 -25.5t-27.5 -9.5t-28.5 12.5t-12.5 28.5z" />
<glyph unicode="&#x2000;" horiz-adv-x="823" />
<glyph unicode="&#x2001;" horiz-adv-x="1647" />
<glyph unicode="&#x2002;" horiz-adv-x="823" />
<glyph unicode="&#x2003;" horiz-adv-x="1647" />
<glyph unicode="&#x2004;" horiz-adv-x="549" />
<glyph unicode="&#x2005;" horiz-adv-x="411" />
<glyph unicode="&#x2006;" horiz-adv-x="274" />
<glyph unicode="&#x2007;" horiz-adv-x="274" />
<glyph unicode="&#x2008;" horiz-adv-x="205" />
<glyph unicode="&#x2009;" horiz-adv-x="329" />
<glyph unicode="&#x200a;" horiz-adv-x="91" />
<glyph unicode="&#x2010;" horiz-adv-x="575" d="M35 489q2 16 14 27.5t29 9.5q152 -12 239 -12q92 0 130 6t40 6h5q23 0 36 -13t13 -30q0 -12 -8.5 -22t-28.5 -15q-10 -4 -59.5 -7t-116.5 -3q-59 0 -126 2t-128 6q-16 2 -28.5 15.5t-10.5 29.5z" />
<glyph unicode="&#x2011;" horiz-adv-x="575" d="M35 489q2 16 14 27.5t29 9.5q152 -12 239 -12q92 0 130 6t40 6h5q23 0 36 -13t13 -30q0 -12 -8.5 -22t-28.5 -15q-10 -4 -59.5 -7t-116.5 -3q-59 0 -126 2t-128 6q-16 2 -28.5 15.5t-10.5 29.5z" />
<glyph unicode="&#x2012;" horiz-adv-x="575" d="M35 489q2 16 14 27.5t29 9.5q152 -12 239 -12q92 0 130 6t40 6h5q23 0 36 -13t13 -30q0 -12 -8.5 -22t-28.5 -15q-10 -4 -59.5 -7t-116.5 -3q-59 0 -126 2t-128 6q-16 2 -28.5 15.5t-10.5 29.5z" />
<glyph unicode="&#x2013;" horiz-adv-x="1092" d="M35 489q4 16 28 27.5t59 9.5q307 -12 483 -12q186 0 263 6t81 6h10q46 0 72.5 -13t26.5 -30q0 -12 -17 -22t-58 -15q-20 -4 -120 -7t-236 -3q-119 0 -254.5 2t-259.5 6q-32 2 -57 15.5t-21 29.5z" />
<glyph unicode="&#x2014;" horiz-adv-x="2116" d="M35 489q8 16 56.5 27.5t117.5 9.5q615 -12 967 -12q372 0 525.5 6t162.5 6h20q93 0 145.5 -13t52.5 -30q0 -12 -34.5 -22t-115.5 -15q-40 -4 -240.5 -7t-471.5 -3q-238 0 -509 2t-518 6q-65 2 -115.5 15.5t-42.5 29.5z" />
<glyph unicode="&#x2018;" horiz-adv-x="210" d="M25 1004q0 14 5 41.5t15 54t24.5 47t34.5 20.5q16 0 28.5 -12t12.5 -29q0 -10 -6 -22q-33 -53 -33 -96q0 -10 5 -23q4 -27 17 -31t19 -4q16 0 28.5 -12t12.5 -29q0 -16 -12 -28.5t-29 -12.5q-59 0 -90.5 41.5t-31.5 94.5z" />
<glyph unicode="&#x2019;" horiz-adv-x="208" d="M20 1126q0 16 12.5 28.5t28.5 12.5q59 0 91 -41t32 -94q0 -14 -5 -41.5t-15 -54.5t-24.5 -47.5t-35.5 -20.5q-16 0 -28.5 12.5t-12.5 28.5q0 14 7 23q31 49 30 96q0 16 -2 23q-4 27 -17 30.5t-20 3.5q-16 0 -28.5 12.5t-12.5 28.5z" />
<glyph unicode="&#x201a;" horiz-adv-x="208" d="M20 102q0 16 12.5 28.5t28.5 12.5q59 0 91 -41t32 -94q0 -14 -5 -41.5t-15 -54.5t-24.5 -47.5t-35.5 -20.5q-16 0 -28.5 12.5t-12.5 28.5q0 10 7 23q31 49 30 96q0 16 -2 23q-4 27 -17 30.5t-20 3.5q-16 0 -28.5 12.5t-12.5 28.5z" />
<glyph unicode="&#x201c;" horiz-adv-x="411" d="M33 1004q0 14 5 41.5t15 54t24.5 47t35.5 20.5q16 0 28.5 -12t12.5 -29q0 -10 -7 -22q-33 -53 -32 -96q0 -10 4 -23q4 -27 17.5 -31t19.5 -4q16 0 28.5 -12t12.5 -29q0 -16 -12.5 -28.5t-28.5 -12.5q-59 0 -91 41t-32 95zM217 1004q0 14 5 41.5t15.5 54t24.5 47t35 20.5 q16 0 28.5 -12t12.5 -29q0 -10 -6 -22q-33 -53 -33 -96q0 -11 4 -23q4 -27 17.5 -31t19.5 -4q16 0 28.5 -12t12.5 -29q0 -16 -12.5 -28.5t-28.5 -12.5q-59 0 -91 41t-32 95z" />
<glyph unicode="&#x201d;" horiz-adv-x="409" d="M29 1126q0 16 12 28.5t29 12.5q59 0 91 -41t32 -94q0 -14 -5.5 -41.5t-15.5 -54.5t-24.5 -47.5t-34.5 -20.5q-16 0 -28.5 12.5t-12.5 28.5q0 14 6 23q31 49 31 96q0 16 -3 23q-4 27 -17 30.5t-19 3.5q-16 0 -28.5 12.5t-12.5 28.5zM213 1126q0 16 12.5 28.5t28.5 12.5 q59 0 91 -41t32 -94q0 -14 -5 -41.5t-15.5 -54.5t-25 -47.5t-34.5 -20.5q-16 0 -28.5 12.5t-12.5 28.5q0 14 6 23q31 49 31 96q0 16 -2 23q-4 27 -17.5 30.5t-19.5 3.5q-16 0 -28.5 12.5t-12.5 28.5z" />
<glyph unicode="&#x201e;" horiz-adv-x="409" d="M29 102q0 16 12 28.5t29 12.5q59 0 91 -41t32 -94q0 -14 -5.5 -41.5t-15.5 -54.5t-24.5 -47.5t-34.5 -20.5q-16 0 -28.5 12.5t-12.5 28.5q0 10 6 23q31 49 31 96q0 16 -3 23q-4 27 -17 30.5t-19 3.5q-16 0 -28.5 12.5t-12.5 28.5zM213 102q0 16 12.5 28.5t28.5 12.5 q59 0 91 -41t32 -94q0 -14 -5 -41.5t-15.5 -54.5t-25 -47.5t-34.5 -20.5q-16 0 -28.5 12.5t-12.5 28.5q0 10 6 23q31 49 31 96q0 16 -2 23q-4 27 -17.5 30.5t-19.5 3.5q-16 0 -28.5 12.5t-12.5 28.5z" />
<glyph unicode="&#x202f;" horiz-adv-x="329" />
<glyph unicode="&#x205f;" horiz-adv-x="411" />
<glyph unicode="&#x20ac;" horiz-adv-x="1003" d="M20 489q2 16 14.5 27.5t28.5 9.5q6 0 12.5 -1t10.5 -1q0 63 4 124t16 122q-12 0 -23 1t-24 1q-16 2 -28.5 15.5t-10.5 29.5t14.5 27.5t28.5 9.5t32 -3t30 -1q25 90 63.5 176t96 152.5t133.5 107.5t170 41q74 0 124 -26.5t82.5 -71.5t47 -104.5t14.5 -127.5 q0 -16 -12.5 -28.5t-28.5 -12.5t-28.5 12.5t-12.5 28.5q0 49 -8 94.5t-29.5 79t-57.5 54t-91 20.5q-76 0 -137.5 -33.5t-108.5 -90t-80 -128t-53 -149.5q27 -2 50.5 -2h43.5q92 0 130 6t40 6h4q23 0 36 -13.5t13 -29.5q0 -12 -8 -22.5t-29 -14.5q-10 -4 -59 -7t-117 -3 h-59.5t-63.5 2q-12 -57 -17 -109.5t-5 -97.5v-20.5t2 -20.5q39 -2 71.5 -3t61.5 -1q92 0 130 6t40 6h4q23 0 36 -13t13 -30q0 -12 -8 -22t-29 -15q-10 -4 -59 -7t-117 -3h-67.5t-69.5 2q8 -63 27.5 -126.5t53.5 -115t85 -83t121 -31.5q72 0 139.5 25.5t125.5 68.5 t104.5 100.5t74.5 120.5q10 23 37 23q16 0 28.5 -12.5t12.5 -28.5q0 -14 -16.5 -44t-38 -60.5t-42 -56t-30.5 -36.5q-78 -86 -178 -134t-217 -48q-92 0 -157.5 39t-109.5 102.5t-69 142t-35 158.5q-8 0 -16 1t-17 1q-16 2 -28.5 15.5t-10.5 29.5z" />
<glyph unicode="&#x25fc;" horiz-adv-x="624" d="M0 0v625h625v-625h-625z" />
</font>
</defs>
</svg>
