<?xml version="1.0" standalone="yes"?>
<svg xmlns="http://www.w3.org/2000/svg" width="838" height="838">
<path style="fill:#fefefe; stroke:none;" d="M0 0L0 838L838 838L838 0L0 0z"/>
<path style="fill:#0b5b0b; stroke:none;" d="M386 1.42438C364.519 4.27948 343.163 6.71075 322 11.4993C269.51 23.3763 218.574 46.9769 175 78.4244C130.35 110.648 89.8643 152.372 61.8611 200C39.9576 237.253 22.1013 276.743 12.2353 319C-14.0576 431.616 5.60934 553.671 70.7454 650C99.5813 692.645 136.145 729.664 178 759.573C218.712 788.665 264.925 808.99 313 822.255C365.842 836.834 422.956 838.612 477 831.714C535.596 824.235 593.152 802.781 643 771.319C684.655 745.027 722.048 711.042 752.113 672C848.667 546.616 864.723 370.061 793.194 229C762.982 169.417 717.86 118.122 664 78.8488C623.918 49.6225 577.963 27.7698 530 15.1157C494.096 5.64325 458.083 1 421 1C409.514 1 397.393 -0.0899658 386 1.42438z"/>
<path style="fill:#fefefe; stroke:none;" d="M406 24.4244C383.66 27.3576 361.228 27.477 339 32.2107C270.65 46.7667 205.493 78.2968 154 126.089C114.547 162.706 82.1415 206.011 59.6188 255C5.65092 372.386 15.2774 515.219 83.0648 625C122.476 688.826 181.307 741.595 249.001 774.022C322.302 809.136 404.189 818.03 484 806.714C504.777 803.769 525.047 797.766 545 791.508C707.6 740.507 821.385 574.557 813.961 405C811.935 358.744 803.1 311.929 785.255 269C736.443 151.581 632.249 62.1627 508 34.3348C483.415 28.8286 459.125 26.0608 434 24.9606C424.654 24.5514 415.386 23.192 406 24.4244z"/>
<path style="fill:#0b5b0b; stroke:none;" d="M407.228 54.0286C400.632 58.0193 407.312 67.3467 413.656 63.6674C420.83 59.5068 413.941 49.9677 407.228 54.0286M442.059 53.902C434.563 56.7188 439.825 67.3057 446.852 64.392C453.224 61.7501 448.591 51.4473 442.059 53.902M374.148 55.8588C366.747 59.3484 373.511 69.5486 380.772 65.4236C387.669 61.5051 380.58 52.8264 374.148 55.8588M475.059 58.0432C467.75 61.8101 474.46 71.4302 480.772 67.8055C487.082 64.1816 481.384 54.7828 475.059 58.0432M341.109 61.0471C333.731 64.85 339.847 74.9223 346.852 70.8202C352.984 67.2292 347.007 58.007 341.109 61.0471M509.094 64.8364C500.991 67.4628 506.284 78.4179 513.891 75.2538C520.967 72.3108 515.566 62.7388 509.094 64.8364M308.228 69.7469C301.545 72.717 307.239 83.2598 313.941 79.8055C321.195 76.0669 314.742 66.8522 308.228 69.7469M541.109 74.8364C533.651 77.3126 538.627 88.2268 545.891 85.2531C553.103 82.301 547.658 72.6619 541.109 74.8364M276.228 82.0286C269.31 86.2104 276.493 94.7215 282.851 90.9714C289.445 87.0823 282.213 78.4113 276.228 82.0286M571.228 88.0432C564.445 91.9537 571.355 101.791 577.772 97.9684C584.533 93.9401 577.425 84.4708 571.228 88.0432M246.109 96.0679C238.727 99.811 244.973 109.862 251.772 105.817C258.127 102.036 252.425 92.8652 246.109 96.0679M602.059 103.697C594.304 105.833 599.831 117.073 606.891 114.381C614.129 111.622 608.636 101.885 602.059 103.697M218.059 112.762C211.045 115.37 214.579 126.108 221.941 123.381C228.836 120.828 225.063 110.157 218.059 112.762M629.148 123.042C622.386 126.845 629.295 136.452 635.771 132.678C642.438 128.793 635.358 119.551 629.148 123.042M191.104 132.902C183.627 135.762 187.23 146.389 194.891 143.253C201.488 140.553 197.881 130.31 191.104 132.902M656.148 143.758C649.652 146.46 654.132 156.848 660.941 154.378C668.351 151.69 663.169 140.837 656.148 143.758M165.109 155.863C157.903 158.997 163.009 169.63 169.941 165.968C176.865 162.31 172.176 152.788 165.109 155.863M418 532C433.317 521.211 446.239 503.725 457.65 489C481.294 458.491 499.332 423.181 506.385 385C515.416 336.116 504.688 284.948 480.424 242C468.609 221.086 454.816 201.253 437.985 184C433.676 179.582 425.618 168.584 419 168.033C416.181 167.798 413.89 170.308 412 172.029C407.518 176.112 403.013 180.021 399 184.576C382.54 203.256 368.314 222.318 356 244C323.3 301.574 318.592 373.467 346.309 434C363.319 471.151 389.302 503.222 418 532M679.229 168.029C672.745 171.964 679.852 180.977 685.852 177.781C692.868 174.044 685.723 164.087 679.229 168.029M143.044 179.851C135.69 181.976 138.691 193.248 145.956 191.149C153.31 189.024 150.308 177.752 143.044 179.851M700.654 194.028C695.153 198.058 702.459 207.142 707.852 203.377C714.669 198.618 706.578 189.687 700.654 194.028M122.059 206.762C115.081 209.356 118.446 220.242 125.941 217.253C132.771 214.529 129.011 204.176 122.059 206.762M721.148 221.032C714.856 224.627 720.609 234.43 726.852 230.957C733.287 227.377 727.562 217.368 721.148 221.032M105.043 234.801C98.3794 235.932 98.9681 246.954 106 246.454C113.717 245.905 112.665 233.507 105.043 234.801M738.148 249.758C731.813 252.394 736.453 262.743 742.891 260.377C750.193 257.695 745.211 246.819 738.148 249.758M87.3441 266.029C81.1942 269.852 86.4571 279.359 92.8912 275.957C100.287 272.046 94.1323 261.809 87.3441 266.029M752.108 280.758C744.856 283.639 750.346 293.527 756.941 291.214C764.197 288.669 758.91 278.055 752.108 280.758M76.1088 296.761C69.341 299.385 72.9604 309.834 79.9414 307.238C86.9282 304.64 83.3565 293.951 76.1088 296.761M764.04 311.747C756.541 313.582 759.518 325.411 766.91 323.408C774.515 321.347 771.777 309.854 764.04 311.747M66.1481 329.043C59.6945 332.632 64.8901 343.942 71.7215 339.677C77.8498 335.852 72.8275 325.329 66.1481 329.043M772.015 344.786C764.641 346.214 767.199 357.935 773.996 356.508C781.127 355.011 779.423 343.352 772.015 344.786M59.4336 363.029C53.6741 366.94 59.3531 377.017 65.7716 372.254C71.895 367.71 65.4198 358.963 59.4336 363.029M775.229 379.032C769.195 382.607 774.448 392.476 780.852 388.816C787.201 385.188 781.486 375.326 775.229 379.032M56.1489 396.032C49.6262 399.786 56.2702 410.096 62.5664 405.82C68.476 401.806 62.5024 392.377 56.1489 396.032M777.059 412.047C769.263 415.956 775.533 427.022 782.771 422.806C788.791 419.299 783.377 408.879 777.059 412.047M389 675C389 645.085 387.873 615.275 380.961 586C368.81 534.539 339.358 486.941 295 457.355C277.406 445.62 258.032 436.403 238 429.667C212.41 421.063 183.991 416 157 416C150.667 416 144.333 415.957 138 416.001C135.791 416.016 132.583 415.639 131.028 417.603C129.532 419.492 130.005 422.764 130 425L130 441C130 465.207 133.853 488.628 140 512C144.73 529.987 151.933 547.844 161.15 564C170.662 580.67 181.627 596.156 195.235 609.765C246.602 661.131 319.104 675 389 675M455 675C503.119 675 552.194 669.035 596 647.741C659.878 616.689 699.526 551.684 710.562 483C714.176 460.504 713.971 438.618 713 416C693.622 416 674.22 415.468 655 418.299C594.167 427.261 533.824 455.177 498.025 507C486.45 523.757 477.208 541.815 470.38 561C457.319 597.7 455 636.449 455 675M58.0579 428.851C51.5057 430.805 53.9184 442.961 60.956 440.377C67.2853 438.054 65.0836 426.755 58.0579 428.851M775.148 447.032C768.791 450.664 774.191 460.813 780.852 456.968C787.23 453.286 781.567 443.366 775.148 447.032M60.2284 462.786C54.3306 465.095 57.3868 476.058 63.9568 474.149C71.8325 471.861 67.3916 459.982 60.2284 462.786M770.483 480.043C764.262 483.783 769.4 494.34 775.772 490.928C782.081 487.55 776.921 476.173 770.483 480.043M66.2284 495.786C59.8269 498.292 64.2348 509.337 70.892 507.037C78.2347 504.5 72.9442 493.157 66.2284 495.786M762.279 513.032C755.566 517.151 761.894 526.522 768.656 522.91C776.023 518.974 768.969 508.925 762.279 513.032M75.2284 528.747C69.0445 531.496 73.5003 541.643 79.9421 539.238C87.3772 536.463 82.3024 525.602 75.2284 528.747M752.148 545.032C745.616 548.757 750.843 559.003 757.772 554.82C764.035 551.039 758.544 541.385 752.148 545.032M89.0401 559.617C81.4888 561.448 84.7208 572.076 91.9815 570.638C99.7369 569.102 96.4272 557.825 89.0401 559.617M738.228 575.758C731.982 578.441 736.359 588.782 742.867 586.238C749.941 583.473 745.175 572.773 738.228 575.758M104.059 589.801C97.026 592.078 100.712 603.07 107.942 600.381C114.703 597.867 110.493 587.717 104.059 589.801M722.109 604.786C715.176 607.285 718.497 618.108 725.941 615.242C732.794 612.604 728.951 602.32 722.109 604.786M120.434 619.029C114.27 623.215 121.643 633.136 127.682 628.254C133.291 623.719 126.126 615.162 120.434 619.029M701.483 633.029C694.862 637.217 701.645 646.668 707.852 642.253C714.097 637.811 707.542 629.196 701.483 633.029M142.109 644.786C135.323 647.232 139.252 658.322 145.957 656.199C153.797 653.717 149.459 642.137 142.109 644.786M680.109 658.032C672.861 661.969 678.972 672.173 685.721 667.971C691.881 664.138 686.693 654.457 680.109 658.032M164.228 670.032C157.651 673.915 164.627 683.456 170.771 679.816C177.171 676.025 170.185 666.516 164.228 670.032M657.019 681.762C649.877 684.297 652.55 694.322 659.946 692.303C667.392 690.271 664.538 679.093 657.019 681.762M190.059 692.086C183.044 695.308 188.23 706.004 194.941 702.777C201.915 699.424 196.436 689.157 190.059 692.086M629.228 703.042C622.822 706.755 628.359 716.445 634.941 712.968C642.39 709.032 635.824 699.22 629.228 703.042M217.189 711.758C209.969 714.699 214.998 724.961 221.942 722.381C229.42 719.603 224.311 708.856 217.189 711.758M602.058 721.758C595.177 724.416 598.997 734.498 605.941 732.062C612.935 729.61 609.251 718.979 602.058 721.758M246.133 729.782C239.13 732.459 244.434 742.495 250.941 740.214C258.535 737.552 253.149 727.101 246.133 729.782M572.059 737.747C565.466 740.376 569.416 750.477 575.96 748.214C583.806 745.501 579.774 734.67 572.059 737.747M275.434 745.028C269.289 749.252 277.06 757.375 282.851 753.971C289.873 749.845 281.362 740.952 275.434 745.028M540.148 751.032C533.841 754.67 539.395 764.366 545.895 760.677C553.123 756.576 546.81 747.188 540.148 751.032M308.228 755.746C301.454 758.802 307.249 769.483 313.89 765.957C320.956 762.205 315.047 752.671 308.228 755.746M508.228 760.743C501.439 763.859 506.676 774.389 513.891 770.529C521.171 766.634 515.098 757.59 508.228 760.743M341.109 764.046C333.754 767.882 339.642 777.379 346.772 774.106C353.445 771.042 347.458 760.735 341.109 764.046M474.318 768.032C467.976 772.164 475.627 781.005 481.682 776.972C487.885 772.841 480.064 764.288 474.318 768.032M374.11 770.043C367.08 773.776 373.406 783.503 379.89 779.968C386.893 776.149 380.506 766.647 374.11 770.043M442.059 771.746C434.705 774.718 440.263 783.954 446.941 781.392C454.421 778.522 449.184 768.867 442.059 771.746M407.228 773.029C400.589 777.046 407.717 785.705 413.721 781.971C420.569 777.714 413.507 769.23 407.228 773.029z"/>
</svg>
